<?xml version="1.0" encoding="utf-8"?>
<!-- Generator: Adobe Illustrator 25.0.0, SVG Export Plug-In . SVG Version: 6.00 Build 0)  -->
<svg version="1.1"
	 id="Layer_1" xmlns:cc="http://creativecommons.org/ns#" xmlns:dc="http://purl.org/dc/elements/1.1/" xmlns:rdf="http://www.w3.org/1999/02/22-rdf-syntax-ns#"
	 xmlns="http://www.w3.org/2000/svg" xmlns:xlink="http://www.w3.org/1999/xlink" x="0px" y="0px" viewBox="0 0 41.6 41.6"
	 style="enable-background:new 0 0 41.6 41.6;" xml:space="preserve">
<style type="text/css">
	.st0{fill:#C18F07;}
	.st1{fill:#FFFFFF;}
</style>
<g transform="translate(-40.525 -860.8)">
	<path class="st0" d="M40.5,902.4h41.6v-41.6H40.5C40.5,860.8,40.5,902.4,40.5,902.4z"/>
	<g>
		<path class="st1" d="M61.3,868.2l5.1,2.9c0,0,0.5,0.2,0.7,0.6c0.2,0.4,0.2,0.7,0.2,0.7v4.6c0,0,0,0.6-0.1,0.9
			c-0.2,0.3-0.4,0.5-0.4,0.5l-4.7,2.8c0,0-0.4,0.3-0.8,0.3s-1-0.3-1-0.3l-4.4-2.6c0,0-0.2-0.1-0.5-0.4c-0.3-0.4-0.3-1-0.3-0.9v-4.9
			c0,0,0-0.3,0.2-0.6c0.3-0.4,0.6-0.5,0.6-0.5S61.3,868.2,61.3,868.2z"/>
		<path class="st1" d="M48.8,868.5v1.6H55l2.8-1.6H48.8L48.8,868.5z"/>
		<path class="st1" d="M73.8,868.5h-8.9l2.8,1.6h6V868.5z"/>
		<path class="st1" d="M69,873.3h4.7v-1.6H69c0,0.1,0,0.2,0,0.2L69,873.3L69,873.3z"/>
		<path class="st1" d="M53.6,871.7h-4.8v1.6h4.8L53.6,871.7C53.6,871.8,53.6,871.7,53.6,871.7"/>
		<path class="st1" d="M73.8,875H69v1.6h4.7V875z"/>
		<path class="st1" d="M48.8,876.6h4.8V875h-4.8V876.6z"/>
		<path class="st1" d="M68.4,879.4l-0.7,0.4h6.1v-1.6H69c0,0.2-0.1,0.4-0.2,0.6C68.6,879.2,68.4,879.4,68.4,879.4"/>
		<path class="st1" d="M53.9,879.2c-0.2-0.3-0.3-0.7-0.3-0.9h-4.8v1.6h6l-0.3-0.2C54.5,879.7,54.3,879.6,53.9,879.2"/>
		<path class="st1" d="M62.2,883.2h11.6c0-0.1,0-0.1,0-0.2v-1.5h-8.9l-2.5,1.5C62.4,883,62.3,883.1,62.2,883.2"/>
		<path class="st1" d="M57.6,881.5h-8.8v1.5c0,0.1,0,0.1,0,0.2h11.6c-0.2-0.1-0.3-0.1-0.3-0.1L57.6,881.5L57.6,881.5z"/>
		<path class="st1" d="M73.2,886.4c0.2-0.5,0.3-1.1,0.4-1.6H62.1v1.6H73.2L73.2,886.4z"/>
		<path class="st1" d="M49,884.8c0.1,0.6,0.2,1.1,0.4,1.6h11v-1.6H49L49,884.8z"/>
		<path class="st1" d="M50.2,888.1c0.3,0.6,0.7,1.1,1.1,1.6h9.3v-1.6H50.2L50.2,888.1z"/>
		<path class="st1" d="M71.4,889.7c0.4-0.5,0.7-1.1,1.1-1.6H62.1v1.6H71.4L71.4,889.7z"/>
		<path class="st1" d="M52.7,891.3c0.6,0.6,1.2,1.1,1.9,1.6h5.9v-1.6H52.7z"/>
		<path class="st1" d="M68,893c0.7-0.5,1.3-1.1,1.9-1.6h-7.8v1.6H68z"/>
		<path class="st1" d="M57.3,894.6c1,0.5,2.1,1.2,3.2,1.6v-1.6H57.3z"/>
		<path class="st1" d="M65.3,894.6h-3.2v1.6C63.3,895.8,64.3,895.1,65.3,894.6"/>
	</g>
</g>
</svg>
