<?xml version="1.0" standalone="no"?>
<!DOCTYPE svg PUBLIC "-//W3C//DTD SVG 1.1//EN" "http://www.w3.org/Graphics/SVG/1.1/DTD/svg11.dtd" >
<svg xmlns="http://www.w3.org/2000/svg" xmlns:xlink="http://www.w3.org/1999/xlink" version="1.1">
<metadata></metadata>
<defs>
<font id="sansa_soft_probold" horiz-adv-x="1280" >
<font-face units-per-em="2048" ascent="1663" descent="-385" />
<missing-glyph horiz-adv-x="544" />
<glyph unicode="&#xfb01;" horiz-adv-x="1423" d="M16 920v112q0 42 23 65t65 23h89v31q0 186 105.5 285.5t293.5 99.5h113q41 0 64.5 -23.5t23.5 -64.5v-80q0 -41 -23.5 -64.5t-64.5 -23.5q-80 0 -120 -34t-40 -109v-17h631q42 0 65 -23t23 -65v-944q0 -42 -23 -65t-65 -23h-177q-41 0 -64.5 23.5t-23.5 64.5v743h-366 v-743q0 -41 -23.5 -64.5t-64.5 -23.5h-176q-42 0 -65 23t-23 65v743h-89q-42 0 -65 23.5t-23 65.5zM911 1335v113q0 41 23.5 64.5t64.5 23.5h177q42 0 65 -23t23 -65v-113q0 -42 -23 -65t-65 -23h-177q-41 0 -64.5 23.5t-23.5 64.5z" />
<glyph unicode="&#xfb02;" horiz-adv-x="1423" d="M16 920v112q0 42 23 65t65 23h89v31q0 186 105.5 285.5t293.5 99.5h584q42 0 65 -23t23 -65v-1360q0 -42 -23 -65t-65 -23h-177q-41 0 -64.5 23.5t-23.5 64.5v1192h-223q-143 0 -143 -143v-17h119q42 0 65 -23t23 -65v-112q0 -42 -23 -65.5t-65 -23.5h-119v-743 q0 -41 -23.5 -64.5t-64.5 -23.5h-176q-42 0 -65 23t-23 65v743h-89q-42 0 -65 23.5t-23 65.5z" />
<glyph horiz-adv-x="0" />
<glyph horiz-adv-x="682" />
<glyph unicode=" "  horiz-adv-x="544" />
<glyph unicode="&#x09;" horiz-adv-x="544" />
<glyph unicode="&#xa0;" horiz-adv-x="544" />
<glyph unicode="!" horiz-adv-x="671" d="M160 88v176q0 41 23.5 64.5t64.5 23.5h176q41 0 64.5 -23.5t23.5 -64.5v-176q0 -41 -23.5 -64.5t-64.5 -23.5h-176q-41 0 -64.5 23.5t-23.5 64.5zM162 1448q-1 41 22 64.5t64 23.5h176q41 0 64 -23.5t22 -64.5l-21 -848q-2 -42 -25 -65t-65 -23h-127q-42 0 -65 23t-25 65 z" />
<glyph unicode="&#x22;" horiz-adv-x="1071" d="M135 1448q-3 41 20.5 64.5t65.5 23.5h168q43 0 65 -23.5t19 -64.5l-18 -240q-3 -43 -27.5 -65.5t-65.5 -22.5h-116q-41 0 -65 22.5t-27 65.5zM600 1448q-3 41 20.5 64.5t65.5 23.5h168q42 0 64.5 -23.5t19.5 -64.5l-20 -240q-6 -88 -93 -88h-114q-87 0 -93 88z" />
<glyph unicode="#" horiz-adv-x="1472" d="M63 377v110q0 42 23.5 65t65.5 23h167v386h-167q-42 0 -65.5 23t-23.5 65v110q0 42 23.5 65t65.5 23h167v201q0 41 24 64.5t65 23.5h112q41 0 64.5 -23.5t23.5 -64.5v-201h256v201q0 42 23 65t65 23h113q41 0 63.5 -23.5t22.5 -64.5v-201h170q41 0 63.5 -22.5t22.5 -65.5 v-110q0 -43 -22.5 -65.5t-63.5 -22.5h-170v-386h170q41 0 63.5 -22.5t22.5 -65.5v-110q0 -43 -22.5 -65.5t-63.5 -22.5h-170v-201q0 -41 -22.5 -64.5t-63.5 -23.5h-113q-42 0 -65 23t-23 65v201h-256v-201q0 -41 -23.5 -64.5t-64.5 -23.5h-112q-41 0 -65 23.5t-24 64.5v201 h-167q-42 0 -65.5 23t-23.5 65zM608 575h256v386h-256v-386z" />
<glyph unicode="$" d="M113 133v127q0 76 63 76q17 0 25 -2q192 -45 344 -45h80q223 0 223 168q0 35 -14 61.5t-40.5 45t-54.5 30t-67 22.5l-240 64q-145 37 -232 141.5t-87 290.5q0 103 35.5 183t100.5 131.5t148.5 81.5t186.5 40v140q0 42 23 65t65 23h80q88 0 88 -88v-140q140 -13 209 -30 q88 -22 88 -101v-125q0 -38 -18 -59t-52 -21q-12 0 -18 2q-169 33 -289 33h-72q-46 0 -81 -5.5t-65.5 -19.5t-46.5 -41.5t-16 -68.5q0 -61 38.5 -93.5t107.5 -49.5l239 -66q177 -47 265 -155t88 -291q0 -113 -35.5 -199.5t-101.5 -142t-154 -86.5t-199 -41v-156 q0 -42 -23 -65t-65 -23h-80q-41 0 -64.5 23.5t-23.5 64.5v154q-135 13 -270 45q-88 19 -88 102z" />
<glyph unicode="%" horiz-adv-x="2111" d="M127 1100q0 245 93.5 345.5t295.5 100.5q199 0 292 -100.5t93 -345.5q0 -239 -94 -342t-291 -103q-200 0 -294.5 103t-94.5 342zM383 1100q0 -148 27 -197t106 -49q76 0 101.5 49t25.5 197q0 149 -25.5 197.5t-101.5 48.5q-79 0 -106 -48.5t-27 -197.5zM625 49q0 18 8 31 l665 1376q21 39 45 59.5t58 20.5h22q29 0 48.5 -13.5t19.5 -35.5q0 -18 -8 -31l-668 -1376q-39 -80 -100 -80h-25q-29 0 -47 13.5t-18 35.5zM1214 436q0 245 94 346t296 101q132 0 215 -41t127.5 -140.5t44.5 -265.5q0 -238 -94.5 -341t-292.5 -103q-200 0 -295 102.5 t-95 341.5zM1473 436q0 -102 11.5 -153.5t38.5 -72t81 -20.5q76 0 102.5 49t26.5 197q0 149 -26.5 197.5t-102.5 48.5q-79 0 -105 -48t-26 -198z" />
<glyph unicode="&#x26;" horiz-adv-x="1439" d="M129 449q0 121 71 222.5t185 137.5q-201 98 -201 328q0 107 45.5 188.5t124 130t177 72.5t212.5 24h41q136 0 283 -32q84 -19 84 -103v-125q0 -37 -16.5 -57.5t-47.5 -20.5q-11 0 -20 3q-132 30 -283 30h-41q-206 0 -206 -160q0 -77 44.5 -118t123.5 -41h550q42 0 65 -23 t23 -65v-113q0 -42 -23 -65t-65 -23h-38v-567q-88 -33 -236 -60.5t-276 -27.5q-576 0 -576 465zM479 457q0 -168 226 -168q82 0 159 14v338h-159q-226 0 -226 -184z" />
<glyph unicode="'" horiz-adv-x="608" d="M135 1448q-3 41 20.5 64.5t65.5 23.5h168q43 0 65 -23.5t19 -64.5l-18 -240q-3 -43 -27.5 -65.5t-65.5 -22.5h-116q-41 0 -65 22.5t-27 65.5z" />
<glyph unicode="(" horiz-adv-x="897" d="M96 608v64q0 238 70.5 441.5t198.5 334.5q49 49 79 68.5t68 19.5h170q57 0 57 -35q0 -21 -28 -53q-76 -78 -129 -171t-81 -194.5t-40 -200t-12 -210.5v-64q0 -153 20.5 -279.5t80.5 -260.5t161 -236q28 -32 28 -53q0 -35 -57 -35h-170q-38 0 -68 19.5t-79 68.5 q-130 133 -199.5 335t-69.5 441z" />
<glyph unicode=")" horiz-adv-x="897" d="M156 -221q0 23 30 53q263 273 263 776v64q0 503 -263 776q-30 30 -30 53q0 35 57 35h170q39 0 68 -19t81 -69q128 -131 198.5 -334.5t70.5 -441.5v-64q0 -238 -70 -439.5t-199 -336.5q-36 -35 -54 -50t-43 -26.5t-52 -11.5h-170q-57 0 -57 35z" />
<glyph unicode="*" horiz-adv-x="1024" d="M113 977q0 34 39 57l137 78l-137 80q-39 23 -39 55q0 22 12 43l39 68q24 41 55 41q15 0 45 -15l135 -77v157q0 72 72 72h82q72 0 72 -72v-159l137 79q30 15 45 15q28 0 53 -39l39 -70q12 -21 12 -43q0 -34 -39 -57l-137 -80l137 -78q39 -23 39 -55q0 -22 -12 -43l-39 -68 q-24 -41 -55 -41q-15 0 -45 15l-135 78v-158q0 -72 -72 -72h-82q-72 0 -72 72v158l-137 -78q-24 -15 -45 -15q-33 0 -53 39l-39 70q-12 21 -12 43z" />
<glyph unicode="+" d="M193 696v113q0 41 22.5 63.5t65.5 22.5h215v217q0 41 23.5 64.5t64.5 23.5h112q41 0 64.5 -23.5t23.5 -64.5v-217h215q43 0 65.5 -22.5t22.5 -63.5v-113q0 -88 -88 -88h-215v-217q0 -41 -23.5 -64.5t-64.5 -23.5h-112q-41 0 -64.5 23.5t-23.5 64.5v217h-215q-88 0 -88 88 z" />
<glyph unicode="," horiz-adv-x="671" d="M20 -195q0 2 5 27l112 432q22 88 103 88h184q41 0 64.5 -23.5t23.5 -64.5q0 -40 -20 -76l-195 -356q-27 -45 -54.5 -66.5t-66.5 -21.5h-80q-36 0 -56 16t-20 45z" />
<glyph unicode="-" horiz-adv-x="831" d="M63 696v113q0 41 23.5 63.5t65.5 22.5h528q41 0 64.5 -22.5t23.5 -63.5v-113q0 -42 -23 -65t-65 -23h-528q-42 0 -65.5 23t-23.5 65z" />
<glyph unicode="." horiz-adv-x="671" d="M160 88v176q0 41 23.5 64.5t64.5 23.5h176q41 0 64.5 -23.5t23.5 -64.5v-176q0 -41 -23.5 -64.5t-64.5 -23.5h-176q-41 0 -64.5 23.5t-23.5 64.5z" />
<glyph unicode="/" horiz-adv-x="1191" d="M80 -203q0 19 8 35l682 1616q20 44 46 66t67 22h157q33 0 52.5 -14t19.5 -39q0 -19 -8 -35l-682 -1616q-20 -44 -46 -66t-67 -22h-157q-33 0 -52.5 14t-19.5 39z" />
<glyph unicode="0" d="M63 768q0 220 35.5 372t110 242.5t179 130t253.5 39.5q148 0 252.5 -39.5t178.5 -130t109.5 -242.5t35.5 -372q0 -214 -35.5 -364.5t-109.5 -243t-179 -134.5t-252 -42q-197 0 -322 75.5t-190.5 249.5t-65.5 459zM416 768q0 -147 10 -237t37 -145.5t68.5 -76t109.5 -20.5 q90 0 136.5 41t66.5 142t20 296q0 196 -20 297t-66.5 141.5t-136.5 40.5q-91 0 -137.5 -40.5t-67 -141.5t-20.5 -297z" />
<glyph unicode="1" d="M160 1102v151q0 41 22 67t66 44l385 156q40 16 88 16h88q41 0 63.5 -23.5t22.5 -64.5v-1360q0 -41 -22.5 -64.5t-63.5 -23.5h-176q-42 0 -65 23t-23 65v1065l-297 -117q-24 -8 -33 -8q-26 0 -40.5 20.5t-14.5 53.5z" />
<glyph unicode="2" d="M113 88v152q0 157 62.5 262t223.5 219l209 143q28 19 49.5 36t50 46.5t44.5 65.5t16 75q0 83 -50 114.5t-173 31.5h-297q-42 0 -65 23t-23 65v127q0 41 23.5 64.5t64.5 23.5h393q227 0 353 -114t126 -318q0 -40 -5.5 -75.5t-13 -64.5t-24 -58.5t-30 -50.5t-40.5 -47.5 t-45 -43.5t-54 -43.5t-58 -42t-66 -45.5l-176 -121q-62 -41 -95.5 -86.5t-33.5 -106.5v-16h586q41 0 63.5 -22.5t22.5 -65.5v-127q0 -41 -22.5 -64.5t-63.5 -23.5h-864q-42 0 -65 23t-23 65z" />
<glyph unicode="3" d="M160 88v127q0 42 23 65t65 23h360q102 0 162.5 42.5t60.5 133.5q0 90 -58.5 125t-164.5 35h-200q-41 0 -65 23.5t-24 64.5v82q0 41 23.5 63.5t65.5 22.5h243q66 39 108 90.5t42 110.5q0 79 -49 108t-144 29h-344q-42 0 -65 23t-23 65v127q0 41 23.5 64.5t64.5 23.5h377 q94 0 167.5 -9.5t140 -35t110 -66.5t69 -106t25.5 -152q0 -85 -50 -172.5t-145 -152.5q110 -40 168 -127.5t58 -235.5q0 -222 -152 -350.5t-391 -128.5h-393q-41 0 -64.5 23.5t-23.5 64.5z" />
<glyph unicode="4" d="M96 336v96q0 43 17 82q94 206 162.5 456t99.5 476q13 90 94 90h207q80 0 80 -68q0 -13 -9.5 -58t-11.5 -56q-84 -436 -286 -801h278v190q0 42 23 65t65 23h176q88 0 88 -88v-190h49q41 0 65 -23.5t24 -64.5v-129q0 -41 -24 -64.5t-65 -23.5h-49v-160q0 -42 -23 -65 t-65 -23h-176q-41 0 -64.5 23.5t-23.5 64.5v160h-543q-42 0 -65 23t-23 65z" />
<glyph unicode="5" d="M127 88v127q0 42 23 65t65 23h360q124 0 190 43t66 150q0 39 -9.5 68.5t-29.5 48.5t-43.5 31t-59 18t-67.5 8t-77 2h-297q-41 0 -64.5 23.5t-23.5 64.5v688q0 41 23.5 64.5t64.5 23.5h784q41 0 64.5 -23.5t23.5 -64.5v-127q0 -42 -23 -65t-65 -23h-536v-256h137 q261 0 406 -118.5t145 -362.5q0 -129 -45 -225.5t-128 -155t-192 -87t-244 -28.5h-360q-41 0 -64.5 23.5t-23.5 64.5z" />
<glyph unicode="6" d="M96 496v432q0 147 51 263t143.5 191t217.5 114.5t276 39.5h199q42 0 65 -23t23 -65v-127q0 -88 -88 -88h-248q-123 0 -204.5 -69.5t-81.5 -186.5v-21q110 52 256 52q236 0 357.5 -134.5t121.5 -377.5q0 -241 -153.5 -376.5t-405.5 -135.5q-243 0 -386 137t-143 375z M449 496q0 -98 48.5 -152.5t143.5 -54.5q190 0 190 207q0 109 -44 167t-146 58q-110 0 -192 -31v-194z" />
<glyph unicode="7" d="M127 1321v127q0 41 23.5 64.5t64.5 23.5h850q41 0 63.5 -23.5t22.5 -64.5v-88q0 -45 -27 -80q-93 -106 -163.5 -213t-131 -240.5t-92.5 -294t-32 -339.5v-105q0 -41 -24 -64.5t-65 -23.5h-176q-42 0 -65 23t-23 65v105q0 307 122.5 582.5t309.5 457.5h-569q-42 0 -65 23 t-23 65z" />
<glyph unicode="8" d="M80 432q0 97 48 179t128 141l57 43q-200 119 -200 350q0 104 42 184t114 127.5t160 71.5t187 24h48q118 0 208 -21.5t157.5 -68t102.5 -126.5t35 -191q0 -80 -42.5 -163t-100.5 -134l-43 -39q219 -121 219 -377q0 -105 -44 -191.5t-118.5 -141.5t-171 -85t-202.5 -30h-48 q-259 0 -397.5 106t-138.5 342zM432 449q0 -160 184 -160h48q86 0 135 41.5t49 118.5q0 45 -13.5 78t-44.5 56t-55 34.5t-71 29.5l-107 43l-61 -65q-64 -73 -64 -176zM449 1120q0 -35 9.5 -60t32.5 -42t43 -27t58 -24q5 -2 8.5 -3.5t7.5 -2.5l117 -48l43 48q63 63 63 159 q0 62 -48 94.5t-119 32.5h-48q-71 0 -119 -32.5t-48 -94.5z" />
<glyph unicode="9" d="M96 1024q0 241 153.5 376.5t405.5 135.5q243 0 386 -137t143 -375v-416q0 -147 -51 -263t-143 -191t-217.5 -114.5t-276.5 -39.5h-199q-42 0 -65 23t-23 65v127q0 88 88 88h248q123 0 204.5 69.5t81.5 186.5v4q-108 -51 -256 -51q-236 0 -357.5 134.5t-121.5 377.5z M449 1024q0 -108 44 -165.5t148 -57.5q105 0 190 28v195q0 99 -48.5 154t-141.5 55q-192 0 -192 -209z" />
<glyph unicode=":" horiz-adv-x="671" d="M160 88v176q0 41 23.5 64.5t64.5 23.5h176q41 0 64.5 -23.5t23.5 -64.5v-176q0 -41 -23.5 -64.5t-64.5 -23.5h-176q-41 0 -64.5 23.5t-23.5 64.5zM160 856v176q0 41 23.5 64.5t64.5 23.5h176q41 0 64.5 -23.5t23.5 -64.5v-176q0 -41 -23.5 -64.5t-64.5 -23.5h-176 q-41 0 -64.5 23.5t-23.5 64.5z" />
<glyph unicode=";" horiz-adv-x="671" d="M20 -195q0 2 5 27l112 432q22 88 103 88h184q41 0 64.5 -23.5t23.5 -64.5q0 -40 -20 -76l-195 -356q-27 -45 -54.5 -66.5t-66.5 -21.5h-80q-36 0 -56 16t-20 45zM160 856v176q0 41 23.5 64.5t64.5 23.5h176q41 0 64.5 -23.5t23.5 -64.5v-176q0 -41 -23.5 -64.5 t-64.5 -23.5h-176q-41 0 -64.5 23.5t-23.5 64.5z" />
<glyph unicode="&#x3c;" d="M193 696v113q0 39 21.5 65.5t66.5 49.5l718 374q23 13 41 13q23 0 35 -19.5t12 -52.5v-160q0 -72 -88 -112l-446 -215l446 -211q88 -43 88 -115v-160q0 -69 -47 -69q-20 0 -41 12l-718 371q-46 23 -67 49t-21 67z" />
<glyph unicode="=" d="M193 424v113q0 42 23 65t65 23h718q42 0 65 -23t23 -65v-113q0 -42 -23 -65t-65 -23h-718q-42 0 -65 23t-23 65zM193 920v112q0 42 23 65t65 23h718q42 0 65 -23t23 -65v-112q0 -42 -23 -65.5t-65 -23.5h-718q-42 0 -65 23.5t-23 65.5z" />
<glyph unicode="&#x3e;" d="M193 266v160q0 72 88 115l446 211l-446 215q-88 40 -88 112v160q0 33 12 52.5t35 19.5q18 0 41 -13l718 -374q45 -23 66.5 -49.5t21.5 -65.5v-113q0 -41 -21 -67t-67 -49l-718 -371q-21 -12 -41 -12q-47 0 -47 69z" />
<glyph unicode="?" horiz-adv-x="1064" d="M133 1335v97q0 47 29 75.5t76 28.5h311q217 0 333.5 -81t116.5 -263q0 -125 -41 -216.5t-151 -182.5l-117 -97v-96q0 -41 -22.5 -64.5t-63.5 -23.5h-153q-91 0 -91 88v68q0 36 23 59l70 74q12 13 40 41.5t37 38.5t30 33t27.5 33t20.5 30t18 33t10.5 32t8.5 37.5t2 40.5 q0 38 -18.5 62t-57 34.5t-74.5 13.5t-94 3h-165q-48 0 -76.5 27.5t-28.5 74.5zM346 104v144q0 48 28 76t77 28h143q47 0 75.5 -28.5t28.5 -75.5v-144q0 -47 -28.5 -75.5t-75.5 -28.5h-143q-49 0 -77 28t-28 76z" />
<glyph unicode="@" horiz-adv-x="1888" d="M96 672q0 195 65 359.5t181 279t281 178t360 63.5q182 0 329.5 -45.5t255 -134t166 -226.5t58.5 -315q0 -242 -150.5 -377t-402.5 -135h-287q-183 0 -280 88t-97 265q0 174 102.5 279.5t274.5 105.5h232q30 0 46.5 -17.5t16.5 -48.5v-495h25q84 0 141.5 48t82 121.5 t24.5 165.5q0 248 -139.5 372t-397.5 124q-289 0 -451.5 -178t-162.5 -477q0 -193 69 -340t206 -231.5t325 -84.5q149 0 319 29q6 2 15 2q23 0 36 -15.5t13 -41.5v-94q0 -59 -64 -72q-155 -33 -319 -33q-407 0 -640 236t-233 645zM801 672q0 -81 38 -128.5t113 -47.5h72v385 h-72q-79 0 -115 -58t-36 -151z" />
<glyph unicode="A" horiz-adv-x="1536" d="M78 63q0 9 4 25q23 96 44.5 177t34.5 124t38.5 128.5t40.5 137.5q70 238 170 512t149 369h432q51 -93 151 -366.5t171 -514.5q13 -43 40.5 -135.5t38.5 -132t32.5 -121t45.5 -178.5q5 -20 5 -25q0 -29 -21.5 -46t-56.5 -17h-211q-41 0 -67.5 23t-35.5 65q-22 90 -57 248 h-528q-54 -213 -62 -248q-22 -88 -102 -88h-178q-35 0 -56.5 17t-21.5 46zM578 641h372q-127 489 -182 614q-56 -139 -190 -614z" />
<glyph unicode="B" horiz-adv-x="1392" d="M160 88v1360q0 41 23.5 64.5t64.5 23.5h536q480 0 480 -416q0 -214 -185 -311q100 -38 158.5 -126t58.5 -212q0 -471 -512 -471h-536q-41 0 -64.5 23.5t-23.5 64.5zM512 303h223q105 0 149 38.5t44 137.5q0 93 -45.5 127.5t-147.5 34.5h-223v-338zM512 911h223 q77 0 119.5 45t42.5 123q0 154 -162 154h-223v-322z" />
<glyph unicode="C" horiz-adv-x="1376" d="M80 688v160q0 220 98.5 380.5t271 242t398.5 81.5q116 0 235.5 -17t196.5 -46v-361q0 -42 -23 -65t-65 -23h-143q-88 0 -88 88v105q-18 4 -69.5 9t-76.5 5q-178 0 -272 -100.5t-94 -282.5v-176q0 -177 98 -288t268 -111h96q117 0 281 41q16 4 25 4q29 0 46 -21.5 t17 -56.5v-127q0 -80 -88 -102q-172 -43 -281 -43h-96q-345 0 -540 182.5t-195 521.5z" />
<glyph unicode="D" horiz-adv-x="1552" d="M160 88v1360q0 41 23.5 64.5t64.5 23.5h487q183 0 325 -48t231.5 -136t135.5 -207t46 -264v-193q0 -152 -44 -276t-132 -217t-231 -144t-331 -51h-487q-41 0 -64.5 23.5t-23.5 64.5zM512 303h223q179 0 274 111.5t95 306.5v127q0 182 -95 283.5t-274 101.5h-223v-930z " />
<glyph unicode="E" horiz-adv-x="1312" d="M160 416v1032q0 41 23.5 64.5t64.5 23.5h817q41 0 63.5 -23.5t22.5 -64.5v-127q0 -43 -22.5 -65.5t-63.5 -22.5h-553v-305h487q42 0 65 -23t23 -65v-127q0 -88 -88 -88h-487v-146q0 -98 33.5 -137t126.5 -39h424q42 0 65 -23t23 -65v-127q0 -41 -23.5 -64.5t-64.5 -23.5 h-551q-189 0 -287 110t-98 306z" />
<glyph unicode="F" horiz-adv-x="1153" d="M160 88v936q0 512 545 512h294q42 0 65 -23t23 -65v-127q0 -88 -88 -88h-294q-95 0 -144 -55t-49 -154v-160h457q41 0 64.5 -23.5t23.5 -64.5v-129q0 -41 -23.5 -64.5t-64.5 -23.5h-457v-471q0 -41 -23.5 -64.5t-64.5 -23.5h-176q-41 0 -64.5 23.5t-23.5 64.5z" />
<glyph unicode="G" horiz-adv-x="1519" d="M80 688v160q0 142 43 259.5t118 199t178.5 137.5t223.5 82t254 26q199 0 391 -53q88 -22 88 -102v-135q0 -34 -15.5 -54t-43.5 -20q-9 0 -29 4q-193 55 -407 55q-196 0 -314 -105t-118 -294v-160q0 -175 105 -287t277 -112h80q69 0 146 14v242h-137q-42 0 -65.5 23 t-23.5 65v127q0 41 24 64.5t65 23.5h368q41 0 64.5 -23.5t23.5 -64.5v-688q-82 -32 -209.5 -60t-255.5 -28h-80q-347 0 -549 183.5t-202 520.5z" />
<glyph unicode="H" horiz-adv-x="1568" d="M160 88v1360q0 41 23.5 64.5t64.5 23.5h176q41 0 64.5 -23.5t23.5 -64.5v-504h545v504q0 42 23 65t65 23h176q41 0 63.5 -23.5t22.5 -64.5v-1360q0 -41 -22.5 -64.5t-63.5 -23.5h-176q-42 0 -65 23t-23 65v551h-545v-551q0 -41 -23.5 -64.5t-64.5 -23.5h-176 q-41 0 -64.5 23.5t-23.5 64.5z" />
<glyph unicode="I" horiz-adv-x="671" d="M160 88v1360q0 41 23.5 64.5t64.5 23.5h176q41 0 64.5 -23.5t23.5 -64.5v-1360q0 -41 -23.5 -64.5t-64.5 -23.5h-176q-41 0 -64.5 23.5t-23.5 64.5z" />
<glyph unicode="J" horiz-adv-x="991" d="M63 88v127q0 42 23.5 65t65.5 23h137q105 0 147.5 49.5t42.5 159.5v721h-260q-42 0 -65 23t-23 65v127q0 41 23.5 64.5t64.5 23.5h524q42 0 65 -23t23 -65v-936q0 -252 -130 -382t-382 -130h-167q-41 0 -65 23.5t-24 64.5z" />
<glyph unicode="K" horiz-adv-x="1536" d="M160 88v1360q0 41 23.5 64.5t64.5 23.5h176q41 0 64.5 -23.5t23.5 -64.5v-496h88l393 496q39 48 66.5 68t66.5 20h238q63 0 63 -41q0 -21 -20 -47l-526 -633l567 -727q20 -26 20 -45q0 -43 -63 -43h-254q-38 0 -65 20t-66 68l-436 559h-72v-559q0 -41 -23.5 -64.5 t-64.5 -23.5h-176q-41 0 -64.5 23.5t-23.5 64.5z" />
<glyph unicode="L" horiz-adv-x="1153" d="M160 416v1032q0 41 23.5 64.5t64.5 23.5h176q41 0 64.5 -23.5t23.5 -64.5v-969q0 -98 33.5 -137t126.5 -39h327q88 0 88 -88v-127q0 -42 -23 -65t-65 -23h-454q-189 0 -287 110t-98 306z" />
<glyph unicode="M" horiz-adv-x="1855" d="M160 88v1360q0 41 23.5 64.5t64.5 23.5h201q63 0 98 -47l373 -537l391 537q30 47 96 47h201q41 0 64.5 -23.5t23.5 -64.5v-1360q0 -41 -23.5 -64.5t-64.5 -23.5h-176q-41 0 -65 23.5t-24 64.5v895l-360 -471q-12 -19 -25.5 -26t-37.5 -7h-17q-23 0 -36 7t-25 26l-330 471 v-895q0 -41 -23.5 -64.5t-64.5 -23.5h-176q-41 0 -64.5 23.5t-23.5 64.5z" />
<glyph unicode="N" horiz-adv-x="1568" d="M160 88v1360q0 41 23.5 64.5t64.5 23.5h168q66 0 96 -47l545 -864v823q0 42 23 65t65 23h176q41 0 63.5 -23.5t22.5 -64.5v-1360q0 -41 -22.5 -64.5t-63.5 -23.5h-168q-67 0 -94 47l-547 864v-823q0 -41 -23.5 -64.5t-64.5 -23.5h-176q-41 0 -64.5 23.5t-23.5 64.5z" />
<glyph unicode="O" horiz-adv-x="1568" d="M80 743v66q0 359 177 551t527 192q349 0 527 -192.5t178 -550.5v-66q0 -360 -179 -559.5t-526 -199.5q-348 0 -526 199t-178 560zM449 743q0 -105 15.5 -183.5t52.5 -141.5t104 -96t163 -33t163.5 33t104 96t52.5 141.5t16 183.5v66q0 104 -16 180t-53 136.5t-103.5 91 t-163.5 30.5q-78 0 -136 -21t-96 -57.5t-61 -92.5t-32.5 -120.5t-9.5 -146.5v-66z" />
<glyph unicode="P" horiz-adv-x="1376" d="M160 88v1360q0 41 23.5 64.5t64.5 23.5h473q274 0 424.5 -135t150.5 -424q0 -126 -31 -227t-86 -168.5t-132.5 -112t-166 -64.5t-192.5 -20h-176v-297q0 -41 -23.5 -64.5t-64.5 -23.5h-176q-41 0 -64.5 23.5t-23.5 64.5zM512 688h143q149 0 211 62t62 227q0 150 -61 203 t-212 53h-143v-545z" />
<glyph unicode="Q" horiz-adv-x="1568" d="M80 743v66q0 359 177 551t527 192q349 0 527 -192.5t178 -550.5v-66q0 -329 -150 -525t-442 -228v-31q0 -64 29 -87.5t98 -23.5q74 0 168 21q8 2 25 2q29 0 46 -20.5t17 -57.5v-51q0 -82 -88 -104q-80 -23 -168 -23q-164 0 -258 73t-94 224v78q-293 32 -442.5 227.5 t-149.5 525.5zM449 743q0 -105 15.5 -183.5t52.5 -141.5t104 -96t163 -33t163.5 33t104 96t52.5 141.5t16 183.5v66q0 104 -16 180t-53 136.5t-103.5 91t-163.5 30.5q-78 0 -136 -21t-96 -57.5t-61 -92.5t-32.5 -120.5t-9.5 -146.5v-66z" />
<glyph unicode="R" horiz-adv-x="1409" d="M160 88v1360q0 41 23.5 64.5t64.5 23.5h473q109 0 194.5 -15t158.5 -50.5t121 -93.5t74.5 -146.5t26.5 -206.5q0 -88 -20 -161.5t-57 -126.5t-77 -90.5t-93 -70.5q90 -72 184 -221.5t137 -265.5q6 -18 6 -33q0 -26 -20 -40.5t-53 -14.5h-218q-76 0 -108 88 q-46 111 -114.5 219t-135.5 150h-215v-369q0 -41 -23.5 -64.5t-64.5 -23.5h-176q-41 0 -64.5 23.5t-23.5 64.5zM512 752h143q147 0 210 57t63 199q0 72 -14.5 116.5t-50.5 68.5t-83 32t-125 8h-143v-481z" />
<glyph unicode="S" horiz-adv-x="1312" d="M113 133v127q0 36 16.5 57t46.5 21q9 0 25 -4q192 -45 344 -45h80q223 0 223 168q0 35 -14 61.5t-40.5 45t-54.5 30t-67 22.5l-240 64q-145 37 -232 141.5t-87 290.5q0 113 44.5 199.5t123 138t179 77t220.5 25.5h80q122 0 289 -32q42 -8 65 -34.5t23 -68.5v-125 q0 -37 -18 -57.5t-52 -20.5q-6 0 -18 3q-172 30 -289 30h-72q-46 0 -81 -5.5t-65.5 -19.5t-46.5 -41.5t-16 -68.5q0 -61 38.5 -93.5t107.5 -49.5l239 -66q177 -47 265 -155t88 -291q0 -126 -43.5 -218.5t-124 -147.5t-186 -81t-238.5 -26h-80q-167 0 -344 47q-88 19 -88 102 z" />
<glyph unicode="T" horiz-adv-x="1247" d="M33 1321v127q0 42 23 65t65 23h1007q41 0 65 -23.5t24 -64.5v-127q0 -42 -23.5 -65t-65.5 -23h-327v-1145q0 -41 -23.5 -64.5t-64.5 -23.5h-176q-42 0 -65 23t-23 65v1145h-328q-88 0 -88 88z" />
<glyph unicode="U" horiz-adv-x="1568" d="M160 557v891q0 41 23.5 64.5t64.5 23.5h176q41 0 64.5 -23.5t23.5 -64.5v-895q0 -134 64.5 -199t207.5 -65t208 65t65 199v895q0 42 23 65t65 23h176q41 0 63.5 -23.5t22.5 -64.5v-889q0 -143 -47.5 -254t-132.5 -180.5t-197 -105t-246 -35.5q-296 0 -460 144t-164 429z " />
<glyph unicode="V" horiz-adv-x="1552" d="M78 1470q0 31 21 48.5t57 17.5h211q81 0 100 -88q62 -291 157.5 -636t159.5 -501q68 165 171 514t163 623q19 88 101 88h178q36 0 57 -17.5t21 -48.5q0 -14 -2 -22q-95 -408 -231 -817.5t-234 -630.5h-463q-104 236 -240.5 641t-224.5 807q-2 8 -2 22z" />
<glyph unicode="W" horiz-adv-x="2320" d="M74 1468q0 32 21.5 50t58.5 18h213q81 0 94 -88q42 -296 116.5 -629.5t143.5 -507.5q72 176 151.5 511t122.5 626q6 42 31 65t66 23h151q83 0 96 -88q42 -281 122 -612t155 -525q70 192 144.5 522t115.5 615q13 88 94 88h211q38 0 59 -18t21 -50q0 -10 -2 -25.5 t-5.5 -35.5t-4.5 -31q-67 -382 -170 -753t-207 -623h-479q-66 159 -129 362.5t-97 389.5q-32 -182 -96.5 -391t-126.5 -361h-479q-111 253 -214.5 636.5t-164.5 747.5q-12 81 -12 84z" />
<glyph unicode="X" horiz-adv-x="1423" d="M61 45q0 19 15 43l436 696l-412 664q-14 22 -14 41q0 21 20 34t50 13h225q39 0 66.5 -21.5t54.5 -66.5l213 -342l215 342q29 46 56 67t67 21h192q32 0 51 -12t19 -33q0 -16 -17 -43l-399 -639l449 -721q14 -22 14 -43t-19 -33t-49 -12h-245q-14 0 -25.5 3.5t-18.5 6.5 t-16.5 14t-12.5 16t-14.5 23t-15.5 25l-250 399l-250 -399q-29 -46 -55.5 -67t-66.5 -21h-195q-30 0 -49 12t-19 33z" />
<glyph unicode="Y" horiz-adv-x="1431" d="M57 1489q0 23 19 35t51 12h201q39 0 66 -22t50 -66l277 -567l291 567q24 45 50 66.5t66 21.5h175q32 0 50.5 -12t18.5 -35q0 -20 -12 -41l-479 -864v-496q0 -41 -23.5 -64.5t-64.5 -23.5h-177q-42 0 -65 23t-23 65v496l-458 864q-13 23 -13 41z" />
<glyph unicode="Z" horiz-adv-x="1296" d="M80 88v55q0 62 39 113q167 215 371 516.5t286 460.5h-575q-88 0 -88 88v127q0 42 23 65t65 23h944q41 0 64.5 -23.5t23.5 -64.5v-64q0 -51 -25 -100q-98 -182 -302 -489.5t-347 -491.5h586q42 0 65 -23t23 -65v-127q0 -41 -23.5 -64.5t-64.5 -23.5h-977q-41 0 -64.5 23.5 t-23.5 64.5z" />
<glyph unicode="[" horiz-adv-x="944" d="M193 -168v1616q0 42 23 65t65 23h446q42 0 65 -23t23 -65v-80q0 -42 -23 -65t-65 -23h-182v-1280h182q42 0 65 -23t23 -65v-80q0 -42 -23 -65t-65 -23h-446q-42 0 -65 23t-23 65z" />
<glyph unicode="\" horiz-adv-x="1191" d="M80 1483q0 25 19.5 39t52.5 14h157q41 0 67 -22t46 -66l682 -1616q8 -16 8 -35q0 -25 -19.5 -39t-52.5 -14h-157q-41 0 -67 22t-46 66l-682 1616q-8 16 -8 35z" />
<glyph unicode="]" horiz-adv-x="944" d="M127 -88q0 41 23.5 64.5t64.5 23.5h184v1280h-184q-41 0 -64.5 23.5t-23.5 64.5v80q0 41 23.5 64.5t64.5 23.5h449q42 0 65 -23t23 -65v-1616q0 -42 -23 -65t-65 -23h-449q-41 0 -64.5 23.5t-23.5 64.5v80z" />
<glyph unicode="^" d="M88 272q0 21 12 39l373 721q46 88 117 88h100q71 0 117 -88l373 -721q12 -18 12 -39q0 -24 -19 -36.5t-51 -12.5h-153q-40 0 -66.5 22t-48.5 66l-215 449l-211 -449q-22 -44 -48.5 -66t-66.5 -22h-155q-32 0 -51 12.5t-19 36.5z" />
<glyph unicode="_" d="M63 -88q0 41 24 64.5t65 23.5h976q41 0 65 -23.5t24 -64.5v-113q0 -41 -24 -64.5t-65 -23.5h-976q-41 0 -65 23.5t-24 64.5v113z" />
<glyph unicode="`" horiz-adv-x="524" d="M0 1569q0 30 59 30h220q39 0 66.5 -21t57.5 -67l103 -143q18 -24 18 -45q0 -20 -18.5 -31.5t-48.5 -11.5h-86q-17 0 -30.5 3t-30.5 13.5t-26 17t-33.5 26t-35.5 28.5l-174 143q-41 35 -41 58z" />
<glyph unicode="a" horiz-adv-x="1376" d="M113 352v223q0 164 78 289t212 190.5t302 65.5h423q41 0 65 -23.5t24 -64.5v-944q0 -41 -24 -64.5t-65 -23.5h-176q-42 0 -65 23t-23 65v64l-80 -56q-83 -57 -155 -84.5t-158 -27.5q-172 0 -265 97t-93 271zM465 416q0 -66 30.5 -96.5t96.5 -30.5q80 0 209 80l63 39v423 h-129q-270 0 -270 -256v-159z" />
<glyph unicode="b" horiz-adv-x="1376" d="M160 88v1360q0 41 23.5 64.5t64.5 23.5h176q41 0 64.5 -23.5t23.5 -64.5v-479l80 55q81 58 153.5 85.5t157.5 27.5q173 0 267 -97t94 -272v-223q0 -164 -78 -289t-212 -190.5t-302 -65.5h-424q-41 0 -64.5 23.5t-23.5 64.5zM512 289h127q272 0 272 256v160q0 66 -30.5 96 t-96.5 30q-82 0 -209 -79l-63 -39v-424z" />
<glyph unicode="c" horiz-adv-x="1136" d="M80 416v239q0 144 74.5 255.5t198 169t272.5 57.5q222 0 383 -80v-297q0 -42 -23 -65t-65 -23h-111q-42 0 -65 23t-23 65v55q-32 16 -96 16q-91 0 -142 -50.5t-51 -141.5v-143q0 -207 223 -207q140 0 265 35q20 4 26 4q29 0 45.5 -20.5t16.5 -55.5v-123q0 -76 -88 -104 q-128 -41 -273 -41q-99 0 -182 14t-155 46.5t-122.5 81.5t-79 123t-28.5 167z" />
<glyph unicode="d" horiz-adv-x="1376" d="M113 352v223q0 164 78 289t212 190.5t302 65.5h159v328q0 42 23 65t65 23h176q41 0 65 -23.5t24 -64.5v-1360q0 -41 -24 -64.5t-65 -23.5h-176q-42 0 -65 23t-23 65v64l-80 -56q-83 -57 -155 -84.5t-158 -27.5q-172 0 -265 97t-93 271zM465 416q0 -66 30.5 -96.5 t96.5 -30.5q80 0 209 80l63 39v423h-129q-270 0 -270 -256v-159z" />
<glyph unicode="e" horiz-adv-x="1263" d="M80 440v215q0 118 43.5 211t120.5 151.5t179.5 89t223.5 30.5q506 0 506 -369q0 -171 -112 -249.5t-306 -78.5h-303v-8q0 -43 20 -73t56.5 -44.5t75 -20t88.5 -5.5q163 0 297 28q8 2 22 2q66 0 66 -73v-121q0 -80 -88 -102q-155 -39 -328 -39q-127 0 -227.5 25.5 t-176.5 79t-116.5 142.5t-40.5 209zM432 647h281q118 0 118 96q0 28 -10.5 48t-26 30.5t-41.5 17t-49.5 8t-56.5 1.5q-106 0 -160.5 -42.5t-54.5 -141.5v-17z" />
<glyph unicode="f" horiz-adv-x="751" d="M16 920v112q0 42 23 65t65 23h89v31q0 186 105.5 285.5t293.5 99.5h135q42 0 65 -23t23 -65v-80q0 -42 -23 -65t-65 -23h-22q-80 0 -120 -34t-40 -109v-17h151q41 0 64.5 -23.5t23.5 -64.5v-112q0 -41 -23.5 -65t-64.5 -24h-151v-743q0 -41 -23.5 -64.5t-64.5 -23.5h-176 q-42 0 -65 23t-23 65v743h-89q-42 0 -65 23.5t-23 65.5z" />
<glyph unicode="g" horiz-adv-x="1376" d="M113 432v143q0 164 78 289t212 190.5t302 65.5h423q41 0 65 -23.5t24 -64.5v-872q0 -254 -158.5 -399.5t-419.5 -145.5h-295q-41 0 -64.5 23.5t-23.5 64.5v113q0 41 23.5 64.5t64.5 23.5h168q92 0 153.5 11.5t108.5 41.5t68.5 86t21.5 141v9l-80 -41q-4 -2 -25.5 -12 t-27.5 -13t-26 -12t-28.5 -12t-27.5 -10.5t-30.5 -10.5t-30 -7.5t-33 -6.5t-32.5 -3.5t-36 -1.5q-181 0 -277.5 95t-96.5 274zM465 496q0 -66 30.5 -96.5t96.5 -30.5q93 0 217 55l55 25v382h-129q-270 0 -270 -256v-79z" />
<glyph unicode="h" horiz-adv-x="1409" d="M160 88v1360q0 41 23.5 64.5t64.5 23.5h176q41 0 64.5 -23.5t23.5 -64.5v-498l47 33q114 81 192.5 117.5t176.5 36.5q159 0 239 -93.5t80 -259.5v-696q0 -42 -23 -65t-65 -23h-176q-41 0 -64.5 23.5t-23.5 64.5v600q0 74 -20.5 108.5t-81.5 34.5q-71 0 -218 -96l-63 -39 v-608q0 -41 -23.5 -64.5t-64.5 -23.5h-176q-41 0 -64.5 23.5t-23.5 64.5z" />
<glyph unicode="i" horiz-adv-x="704" d="M33 920v112q0 42 23 65t65 23h336q41 0 64.5 -23.5t23.5 -64.5v-944q0 -41 -23.5 -64.5t-64.5 -23.5h-176q-42 0 -65 23t-23 65v743h-72q-42 0 -65 23.5t-23 65.5zM193 1335v113q0 42 23 65t65 23h176q41 0 64.5 -23.5t23.5 -64.5v-113q0 -41 -23.5 -64.5t-64.5 -23.5 h-176q-42 0 -65 23t-23 65z" />
<glyph unicode="j" horiz-adv-x="704" d="M-72 -184q0 42 23 65t65 23q107 0 150 42.5t43 149.5v735h-74q-41 0 -64.5 24t-23.5 65v112q0 41 23.5 64.5t64.5 23.5h336q42 0 65 -23t23 -65v-969q0 -145 -60.5 -248t-159.5 -151.5t-226 -48.5h-97q-42 0 -65 23t-23 65v113zM209 1335v113q0 42 23 65t65 23h174 q42 0 65 -23t23 -65v-113q0 -42 -23 -65t-65 -23h-174q-42 0 -65 23t-23 65z" />
<glyph unicode="k" horiz-adv-x="1312" d="M160 88v1360q0 41 23.5 64.5t64.5 23.5h176q41 0 64.5 -23.5t23.5 -64.5v-713h80l248 297q41 48 68.5 68t66.5 20h227q55 0 55 -41q0 -16 -22 -47l-354 -416l366 -528q17 -23 17 -43q0 -21 -15.5 -33t-44.5 -12h-239q-40 0 -67 21t-58 67l-248 361h-80v-361 q0 -41 -23.5 -64.5t-64.5 -23.5h-176q-41 0 -64.5 23.5t-23.5 64.5z" />
<glyph unicode="l" horiz-adv-x="704" d="M33 1335v113q0 42 23 65t65 23h336q41 0 64.5 -23.5t23.5 -64.5v-1360q0 -41 -23.5 -64.5t-64.5 -23.5h-176q-42 0 -65 23t-23 65v1159h-72q-42 0 -65 23t-23 65z" />
<glyph unicode="m" horiz-adv-x="2111" d="M160 88v944q0 41 23.5 64.5t64.5 23.5h176q41 0 64.5 -23.5t23.5 -64.5v-82l41 33q98 81 177.5 117.5t180.5 36.5q115 0 190.5 -50.5t106.5 -142.5h17l47 39q100 81 179.5 117.5t180.5 36.5q158 0 239 -94t81 -259v-696q0 -41 -23.5 -64.5t-64.5 -23.5h-176 q-41 0 -65 23.5t-24 64.5v600q0 73 -21 108t-83 35q-75 0 -207 -96l-55 -39v-608q0 -41 -23.5 -64.5t-64.5 -23.5h-176q-42 0 -65 23t-23 65v600q0 73 -21.5 108t-83.5 35q-73 0 -209 -96l-55 -39v-608q0 -41 -23.5 -64.5t-64.5 -23.5h-176q-41 0 -64.5 23.5t-23.5 64.5z " />
<glyph unicode="n" horiz-adv-x="1409" d="M160 88v944q0 41 23.5 64.5t64.5 23.5h176q41 0 64.5 -23.5t23.5 -64.5v-82l47 33q114 81 192.5 117.5t176.5 36.5q159 0 239 -93.5t80 -259.5v-696q0 -42 -23 -65t-65 -23h-176q-41 0 -64.5 23.5t-23.5 64.5v600q0 74 -20.5 108.5t-81.5 34.5q-71 0 -218 -96l-63 -39 v-608q0 -41 -23.5 -64.5t-64.5 -23.5h-176q-41 0 -64.5 23.5t-23.5 64.5z" />
<glyph unicode="o" horiz-adv-x="1312" d="M80 559q0 578 575 578q292 0 435 -140t143 -438q0 -160 -35.5 -271t-110 -178t-179.5 -96.5t-253 -29.5q-142 0 -245.5 29.5t-179 96t-113 178.5t-37.5 271zM432 559q0 -148 51 -209t172 -61t173.5 61t52.5 209q0 149 -52.5 210.5t-173.5 61.5t-172 -61t-51 -211z" />
<glyph unicode="p" horiz-adv-x="1376" d="M160 -297v1329q0 41 23.5 64.5t64.5 23.5h176q41 0 64.5 -23.5t23.5 -64.5v-63l80 55q81 58 153.5 85.5t157.5 27.5q173 0 267 -97t94 -272v-223q0 -164 -78 -289t-212 -190.5t-302 -65.5h-160v-297q0 -41 -23.5 -64.5t-64.5 -23.5h-176q-41 0 -64.5 23.5t-23.5 64.5z M512 289h127q272 0 272 256v160q0 66 -30.5 96t-96.5 30q-82 0 -209 -79l-63 -39v-424z" />
<glyph unicode="q" horiz-adv-x="1376" d="M113 352v223q0 164 78 289t212 190.5t302 65.5h423q41 0 65 -23.5t24 -64.5v-1329q0 -41 -24 -64.5t-65 -23.5h-176q-42 0 -65 23t-23 65v449l-80 -56q-83 -57 -155 -84.5t-158 -27.5q-172 0 -265 97t-93 271zM465 416q0 -66 30.5 -96.5t96.5 -30.5q80 0 209 80l63 39 v423h-129q-270 0 -270 -256v-159z" />
<glyph unicode="r" horiz-adv-x="897" d="M160 88v944q0 41 23.5 64.5t64.5 23.5h176q41 0 64.5 -23.5t23.5 -64.5v-49q46 71 128.5 112.5t168.5 41.5q41 0 63.5 -23.5t22.5 -64.5v-129q0 -42 -22.5 -65.5t-63.5 -23.5h-33q-168 0 -264 -110v-633q0 -41 -23.5 -64.5t-64.5 -23.5h-176q-41 0 -64.5 23.5t-23.5 64.5 z" />
<glyph unicode="s" horiz-adv-x="1103" d="M80 106v121q0 38 17.5 59t49.5 21l21 -2q161 -24 289 -24q198 0 198 63q0 33 -20.5 47.5t-67.5 24.5l-176 41q-158 36 -234.5 118.5t-76.5 200.5q0 93 43 164t120.5 113t177 63t220.5 21q120 0 231 -19q89 -16 89 -98v-123q0 -37 -18.5 -58.5t-51.5 -21.5l-19 2 q-133 21 -239 21q-184 0 -184 -56q0 -22 17.5 -36.5t33 -19.5t51.5 -13q5 -1 8 -2l154 -33q311 -66 311 -328q0 -368 -567 -368q-138 0 -289 24q-88 16 -88 98z" />
<glyph unicode="t" horiz-adv-x="864" d="M16 920v112q0 42 23 65t65 23h89v201q0 41 22.5 63.5t65.5 22.5h176q41 0 64.5 -22.5t23.5 -63.5v-201h198q42 0 65 -23t23 -65v-112q0 -42 -23 -65.5t-65 -23.5h-198v-319q0 -123 44.5 -173t162.5 -50h24q41 0 64.5 -23.5t23.5 -64.5v-113q0 -41 -23.5 -64.5 t-64.5 -23.5h-121q-219 0 -340.5 109.5t-121.5 322.5v399h-89q-42 0 -65 23.5t-23 65.5z" />
<glyph unicode="u" horiz-adv-x="1409" d="M160 336v696q0 41 23.5 64.5t64.5 23.5h176q41 0 64.5 -23.5t23.5 -64.5v-600q0 -73 21 -108t83 -35q29 0 69.5 16t69.5 32.5t76 45.5l64 41v608q0 41 23.5 64.5t64.5 23.5h176q42 0 65 -23t23 -65v-944q0 -42 -23 -65t-65 -23h-176q-41 0 -64.5 23.5t-23.5 64.5v82 l-47 -35q-109 -79 -189 -115t-180 -36q-158 0 -238.5 93.5t-80.5 258.5z" />
<glyph unicode="v" horiz-adv-x="1183" d="M63 831v201q0 41 24 64.5t65 23.5h176q41 0 64.5 -23.5t23.5 -64.5v-201q0 -182 53 -341t131 -250q74 88 121 246t47 345v201q0 41 23.5 64.5t64.5 23.5h176q41 0 64.5 -23.5t23.5 -64.5v-201q0 -135 -36 -276t-90 -249t-109 -187.5t-101 -118.5h-399q-45 38 -98.5 118 t-104.5 188t-85 248.5t-34 276.5z" />
<glyph unicode="w" horiz-adv-x="1792" d="M63 831v201q0 41 24 64.5t65 23.5h176q41 0 64.5 -23.5t23.5 -64.5v-201q0 -193 39.5 -350t111.5 -241q72 85 113 242t41 349v201q0 42 23 65t65 23h174q42 0 65 -23t23 -65v-201q0 -192 41 -349t113 -242q72 84 111.5 241t39.5 350v201q0 42 23 65t65 23h176 q41 0 65 -23.5t24 -64.5v-201q0 -135 -34 -276t-85 -249t-103.5 -187.5t-97.5 -118.5h-369q-29 24 -78.5 113t-72.5 159q-23 -67 -79 -155t-89 -117h-369q-44 37 -93 117.5t-93.5 188.5t-73.5 248.5t-29 276.5z" />
<glyph unicode="x" horiz-adv-x="1087" d="M33 45q0 21 14 43l320 477l-304 467q-16 26 -16 43q0 45 59 45h193q40 0 67 -21t58 -67l127 -194l129 194q30 46 57.5 67t67.5 21h176q59 0 59 -45q0 -17 -16 -43l-303 -454l321 -490q17 -27 17 -43q0 -45 -62 -45h-192q-40 0 -67 21t-58 67l-141 217l-146 -217 q-31 -46 -58 -67t-65 -21h-178q-59 0 -59 45z" />
<glyph unicode="y" horiz-adv-x="1392" d="M143 430v602q0 41 23.5 64.5t64.5 23.5h177q42 0 65 -23t23 -65v-538q0 -66 31.5 -96.5t97.5 -30.5q105 0 206 55l50 24v586q0 42 23 65t65 23h176q41 0 64.5 -23.5t23.5 -64.5v-872q0 -255 -158 -400t-420 -145h-264q-47 0 -74.5 28.5t-27.5 75.5v80q0 49 27.5 77 t74.5 28h137q93 0 155 12.5t108 44t67.5 87.5t22.5 142l-72 -40q-53 -28 -87.5 -43.5t-89.5 -29.5t-112 -14q-181 0 -279 94t-98 273z" />
<glyph unicode="z" horiz-adv-x="1071" d="M63 88v33q0 45 11 76.5t43 64.5q324 335 467 569h-416q-41 0 -64.5 24t-23.5 65v112q0 41 23.5 64.5t64.5 23.5h752q42 0 65 -23t23 -65v-33q0 -89 -39 -159q-83 -141 -197.5 -290t-226.5 -261h391q41 0 64.5 -23.5t23.5 -64.5v-113q0 -41 -23.5 -64.5t-64.5 -23.5h-784 q-41 0 -65 23.5t-24 64.5z" />
<glyph unicode="{" horiz-adv-x="1071" d="M127 606v68q0 77 88 96q101 20 134.5 71t33.5 150v193q0 352 418 352h119q42 0 65 -23t23 -65v-80q0 -42 -23 -65t-65 -23h-9q-106 0 -141 -43t-35 -166v-127q0 -73 -20 -127.5t-58 -88.5t-82.5 -54t-103.5 -33q59 -13 103 -33.5t82.5 -55t58.5 -89t20 -127.5v-127 q0 -123 35 -166t141 -43h9q42 0 65 -23t23 -65v-80q0 -42 -23 -65t-65 -23h-119q-418 0 -418 352v193q0 99 -33 149t-135 72q-88 19 -88 96z" />
<glyph unicode="|" horiz-adv-x="735" d="M223 -297v1876q0 41 23.5 63.5t64.5 22.5h113q41 0 64.5 -22.5t23.5 -63.5v-1876q0 -41 -23.5 -64.5t-64.5 -23.5h-113q-41 0 -64.5 23.5t-23.5 64.5z" />
<glyph unicode="}" horiz-adv-x="1071" d="M63 -88q0 41 24 64.5t65 23.5h8q106 0 141 43t35 166v127q0 73 20.5 127.5t59 89t82.5 55t102 33.5q-58 13 -102.5 33t-82.5 54t-58.5 88.5t-20.5 127.5v127q0 123 -35 166t-141 43h-8q-41 0 -65 23.5t-24 64.5v80q0 41 24 64.5t65 23.5h120q416 0 416 -352v-193 q0 -98 34 -149t134 -72q88 -19 88 -96v-68q0 -77 -88 -96q-101 -22 -134.5 -72t-33.5 -149v-193q0 -352 -416 -352h-120q-41 0 -65 23.5t-24 64.5v80z" />
<glyph unicode="~" d="M193 590v123q0 40 20.5 70t67.5 65q62 49 151 49q48 0 110.5 -21.5t113 -47t107 -47t93.5 -21.5q95 0 143 45q40 29 58 29q30 0 30 -62v-117q0 -40 -20.5 -70t-67.5 -65q-27 -21 -69 -35t-82 -14q-48 0 -110.5 21.5t-113 47t-107 47t-93.5 21.5q-83 0 -143 -51 q-37 -27 -58 -27q-30 0 -30 60z" />
<glyph unicode="&#xa1;" horiz-adv-x="671" d="M160 1272v176q0 41 23.5 64.5t64.5 23.5h176q41 0 64.5 -23.5t23.5 -64.5v-176q0 -41 -23.5 -64.5t-64.5 -23.5h-176q-41 0 -64.5 23.5t-23.5 64.5zM162 88l20 848q2 42 25 65t65 23h127q42 0 65 -23t25 -65l21 -848q1 -41 -22 -64.5t-64 -23.5h-176q-41 0 -64 23.5 t-22 64.5z" />
<glyph unicode="&#xa2;" d="M63 688v160q0 285 155 465t423 225v150q0 42 23 65t65 23h82q41 0 63.5 -22.5t22.5 -65.5v-138q104 -5 215 -30q88 -22 88 -103v-125q0 -37 -17 -57.5t-48 -20.5q-11 0 -23 3q-140 30 -328 30q-176 0 -264 -99.5t-88 -283.5v-176q0 -182 84.5 -290.5t251.5 -108.5h96 q106 0 250 41q20 4 27 4q27 0 43 -21t16 -55v-129q0 -78 -88 -104q-117 -36 -215 -41v-152q0 -41 -22.5 -64.5t-63.5 -23.5h-82q-41 0 -64.5 23.5t-23.5 64.5v160q-282 32 -430 210t-148 486z" />
<glyph unicode="&#xa3;" d="M113 88v127q0 88 88 88h22q36 30 58 93.5t22 131.5v97h-72q-42 0 -65 23t-23 65v127q0 41 23.5 64.5t64.5 23.5h72v55q0 273 152.5 413t433.5 140h190q42 0 65 -23t23 -65v-127q0 -88 -88 -88h-190q-234 0 -234 -250v-55h297q41 0 64.5 -23.5t23.5 -64.5v-127 q0 -42 -23 -65t-65 -23h-297v-97q0 -66 -21.5 -127t-58.5 -98h504q88 0 88 -88v-127q0 -42 -23 -65t-65 -23h-878q-42 0 -65 23t-23 65z" />
<glyph unicode="&#xa4;" horiz-adv-x="1024" d="M57 1071l93 94l139 -155q97 84 235 84h2q69 0 131.5 -22t104.5 -60l145 153l92 -94l-161 -145q71 -95 71 -242q0 -157 -71 -250l153 -151l-90 -90l-141 155q-44 -41 -109.5 -63.5t-130.5 -22.5q-64 0 -128 22t-105 60l-137 -151l-89 90l148 143q-33 44 -54.5 109.5 t-21.5 138.5q0 151 80 252zM279 676q0 -137 75 -211t166 -74q98 0 171 72.5t73 218.5q0 74 -27 137t-83 104.5t-132 41.5h-2q-110 0 -175.5 -82.5t-65.5 -206.5z" />
<glyph unicode="&#xa5;" d="M27 1489q0 47 69 47h201q39 0 65 -22t48 -66l237 -504l248 504q22 44 48 66t65 22h174q69 0 69 -47q0 -20 -12 -41l-430 -801v-88h248q42 0 65 -23t23 -65v-127q0 -41 -23.5 -64.5t-64.5 -23.5h-248v-168q0 -41 -23.5 -64.5t-64.5 -23.5h-176q-42 0 -65 23t-23 65v168 h-248q-42 0 -65 23t-23 65v127q0 88 88 88h248v88l-418 801q-12 21 -12 41z" />
<glyph unicode="&#xa6;" horiz-adv-x="735" d="M223 -297v657q0 41 23.5 65t64.5 24h113q41 0 64.5 -24t23.5 -65v-657q0 -41 -23.5 -64.5t-64.5 -23.5h-113q-41 0 -64.5 23.5t-23.5 64.5zM223 920v657q0 41 23.5 63.5t64.5 22.5h113q41 0 64.5 -22.5t23.5 -63.5v-657q0 -41 -23.5 -65t-64.5 -24h-113q-41 0 -64.5 24 t-23.5 65z" />
<glyph unicode="&#xa7;" horiz-adv-x="1191" d="M104 -168q0 42 23 65t66 23h303q58 0 97.5 25t39.5 80q0 45 -20.5 68.5t-75.5 49.5l-344 172q-89 45 -89 117v164q0 32 13.5 51t36.5 19q20 0 39 -11l503 -247q48 -24 86.5 -48t80.5 -62t70.5 -80t47 -100.5t18.5 -125.5q0 -92 -44 -166t-116.5 -119t-160.5 -68.5 t-182 -23.5h-303q-43 0 -66 23.5t-23 64.5v129zM193 1159q0 92 44 166t116.5 119t160.5 68.5t182 23.5h303q42 0 65 -23t23 -65v-127q0 -88 -88 -88h-303q-58 0 -97.5 -25t-39.5 -80q0 -45 20 -67.5t76 -52.5l344 -172q45 -21 66.5 -48t21.5 -67v-166q0 -31 -13 -50.5 t-36 -19.5q-20 0 -39 11l-503 247q-48 24 -86.5 48t-80.5 62t-70.5 80t-47 100.5t-18.5 125.5z" />
<glyph unicode="&#xa8;" horiz-adv-x="845" d="M0 1368v80q0 41 23.5 64.5t64.5 23.5h96q41 0 64.5 -23.5t23.5 -64.5v-80q0 -41 -23.5 -64.5t-64.5 -23.5h-96q-41 0 -64.5 23.5t-23.5 64.5zM573 1368v80q0 41 24 64.5t65 23.5h96q41 0 64.5 -23.5t23.5 -64.5v-80q0 -41 -23.5 -64.5t-64.5 -23.5h-96q-41 0 -65 23.5 t-24 64.5z" />
<glyph unicode="&#xa9;" horiz-adv-x="1800" d="M96 784q0 165 63.5 306.5t172.5 238.5t257 152t314 55q224 0 406 -93.5t288.5 -266t106.5 -392.5q0 -165 -62 -306t-169.5 -238t-255 -152t-314.5 -55q-166 0 -314 55t-257 151.5t-172.5 238t-63.5 306.5zM281 784q0 -271 168.5 -439.5t453.5 -168.5q189 0 330 78 t214 215t73 315q0 271 -166.5 440t-450.5 169q-285 0 -453.5 -169t-168.5 -440zM496 784q0 110 39.5 192.5t108 130t152 70.5t181.5 23q57 0 151 -20q48 -12 48 -56v-16q0 -41 -31 -41h-17q-90 20 -151 20q-126 0 -203.5 -77t-77.5 -226q0 -150 80.5 -227.5t206.5 -77.5 q71 0 145 19q6 2 17 2q31 0 31 -41v-17q0 -45 -48 -57q-74 -16 -145 -16q-77 0 -146 13.5t-132.5 45t-109 78.5t-72.5 118t-27 160z" />
<glyph unicode="&#xaa;" horiz-adv-x="1112" d="M96 944v176q0 192 130 304t329 112h309q41 0 64.5 -23.5t23.5 -64.5v-688q0 -41 -23.5 -64.5t-64.5 -23.5h-96q-41 0 -64.5 23.5t-23.5 64.5v22l-55 -30q-52 -29 -82.5 -43t-72.5 -25.5t-85 -11.5q-137 0 -213 69.5t-76 202.5zM369 946q0 -51 24.5 -74.5t75.5 -23.5 q60 0 164 63l47 31v418h-96q-215 0 -215 -201v-213z" />
<glyph unicode="&#xab;" horiz-adv-x="1200" d="M127 639v96q0 39 20.5 66.5t67.5 64.5l272 205q27 21 48 21q40 0 40 -66v-98q0 -39 -21 -67.5t-67 -59.5l-151 -113l151 -113q46 -32 67 -59.5t21 -66.5v-99q0 -65 -40 -65q-21 0 -48 18l-272 207q-47 37 -67.5 64t-20.5 65zM639 639v96q0 39 20.5 66.5t67.5 64.5 l272 205q27 21 48 21q40 0 40 -66v-98q0 -39 -21 -67.5t-67 -59.5l-151 -113l151 -113q46 -32 67 -59.5t21 -66.5v-99q0 -65 -40 -65q-21 0 -48 18l-272 207q-47 37 -67.5 64t-20.5 65z" />
<glyph unicode="&#xac;" d="M193 696v113q0 41 22.5 63.5t65.5 22.5h718q43 0 65.5 -22.5t22.5 -63.5v-418q0 -42 -23 -65t-65 -23h-110q-42 0 -65 23t-23 65v217h-520q-88 0 -88 88z" />
<glyph unicode="&#xad;" horiz-adv-x="831" d="M63 696v113q0 41 23.5 63.5t65.5 22.5h528q41 0 64.5 -22.5t23.5 -63.5v-113q0 -42 -23 -65t-65 -23h-528q-42 0 -65.5 23t-23.5 65z" />
<glyph unicode="&#xae;" horiz-adv-x="1800" d="M96 784q0 165 63.5 306.5t172.5 238.5t257 152t314 55q224 0 406 -93.5t288.5 -266t106.5 -392.5q0 -165 -62 -306t-169.5 -238t-255 -152t-314.5 -55q-166 0 -314 55t-257 151.5t-172.5 238t-63.5 306.5zM281 784q0 -271 168.5 -439.5t453.5 -168.5q189 0 330 78 t214 215t73 315q0 271 -166.5 440t-450.5 169q-285 0 -453.5 -169t-168.5 -440zM575 432v705q0 29 17.5 46t46.5 17h242q344 0 344 -256q0 -83 -46.5 -145t-121.5 -86l168 -281q10 -17 10 -29q0 -15 -14.5 -24.5t-36.5 -9.5h-90q-51 0 -88 63l-121 215h-109v-215 q0 -30 -16.5 -46.5t-46.5 -16.5h-74q-30 0 -47 16.5t-17 46.5zM776 768h80q74 0 121 42.5t47 133.5q0 73 -47 108t-121 35h-80v-319z" />
<glyph unicode="&#xaf;" horiz-adv-x="663" d="M0 1368v39q0 42 23 65t65 23h487q43 0 66 -22.5t23 -65.5v-39q0 -42 -23 -65t-66 -23h-487q-41 0 -64.5 23.5t-23.5 64.5z" />
<glyph unicode="&#xb0;" horiz-adv-x="1056" d="M127 1100q0 245 93.5 345.5t295.5 100.5q199 0 292 -100.5t93 -345.5q0 -239 -94 -342t-291 -103q-200 0 -294.5 103t-94.5 342zM383 1100q0 -148 27 -197t106 -49q76 0 101.5 49t25.5 197q0 149 -25.5 197.5t-101.5 48.5q-79 0 -106 -48.5t-27 -197.5z" />
<glyph unicode="&#xb1;" d="M193 -88q0 42 23 65t65 23h718q42 0 65 -23t23 -65v-113q0 -42 -23 -65t-65 -23h-718q-42 0 -65 23t-23 65v113zM193 696v113q0 41 22.5 63.5t65.5 22.5h215v217q0 41 23.5 64.5t64.5 23.5h112q41 0 64.5 -23.5t23.5 -64.5v-217h215q43 0 65.5 -22.5t22.5 -63.5v-113 q0 -88 -88 -88h-215v-217q0 -41 -23.5 -64.5t-64.5 -23.5h-112q-41 0 -64.5 23.5t-23.5 64.5v217h-215q-88 0 -88 88z" />
<glyph unicode="&#xb2;" horiz-adv-x="843" d="M66 727v84q0 90 43 151t151 125l133 78q94 54 94 111q0 36 -27.5 48.5t-97.5 12.5h-192q-72 0 -72 68v68q0 63 72 63h254q155 0 239.5 -66.5t84.5 -185.5q0 -41 -12 -75t-27.5 -57.5t-49.5 -50.5t-59.5 -43.5t-75.5 -45.5l-114 -66q-74 -45 -76 -84h362q34 0 53 -17 t19 -46v-72q0 -29 -19 -46t-53 -17h-559q-32 0 -51.5 17t-19.5 46z" />
<glyph unicode="&#xb3;" horiz-adv-x="843" d="M102 727v72q0 30 18.5 46.5t53.5 16.5h232q59 0 95 20t36 60q0 72 -131 72h-127q-72 0 -72 63v45q0 64 72 64h153q82 46 82 94q0 33 -27.5 45t-80.5 12h-222q-71 0 -71 68v68q0 63 71 63h244q80 0 139.5 -9.5t108 -33t73.5 -66.5t25 -106q0 -106 -104 -174 q62 -29 93.5 -77.5t31.5 -127.5q0 -129 -102.5 -203.5t-264.5 -74.5h-254q-35 0 -53.5 16.5t-18.5 46.5z" />
<glyph unicode="&#xb4;" horiz-adv-x="524" d="M0 1323q0 21 18 45l103 143q30 46 58 67t67 21h219q59 0 59 -30q0 -23 -41 -58l-176 -143q-11 -9 -35 -29t-32.5 -26t-25 -16.5t-30 -13.5t-30.5 -3h-86q-30 0 -49 11.5t-19 31.5z" />
<glyph unicode="&#xb5;" horiz-adv-x="1409" d="M160 -297v1329q0 41 23.5 64.5t64.5 23.5h176q41 0 64.5 -23.5t23.5 -64.5v-600q0 -70 44.5 -106.5t148.5 -36.5q114 0 190 78v665q0 41 23.5 64.5t64.5 23.5h176q42 0 65 -23t23 -65v-776q0 -100 21 -168q12 -40 -9 -64t-63 -24h-172q-78 0 -104 88q-1 4 -4.5 12.5 t-4.5 12.5q-101 -113 -223 -113q-119 0 -176 63v-360q0 -41 -23.5 -64.5t-64.5 -23.5h-176q-41 0 -64.5 23.5t-23.5 64.5z" />
<glyph unicode="&#xb6;" horiz-adv-x="1759" d="M63 961q0 140 45 251t123.5 181t183 106.5t226.5 36.5h391q41 0 64.5 -23.5t23.5 -64.5v-1745q0 -41 -23.5 -64.5t-64.5 -23.5h-176q-41 0 -64.5 23.5t-23.5 64.5v682h-127q-121 0 -225 36.5t-183.5 106.5t-124.5 181t-45 252zM1247 -297v1745q0 41 23.5 64.5t64.5 23.5 h176q42 0 65 -23t23 -65v-1745q0 -42 -23 -65t-65 -23h-176q-41 0 -64.5 23.5t-23.5 64.5z" />
<glyph unicode="&#xb7;" horiz-adv-x="671" d="M160 647v176q0 42 23 65t65 23h176q42 0 65 -23t23 -65v-176q0 -41 -23.5 -64.5t-64.5 -23.5h-176q-41 0 -64.5 23.5t-23.5 64.5z" />
<glyph unicode="&#xb8;" horiz-adv-x="487" d="M0 -291q0 51 47 51h146q110 0 110 64q0 9 -1.5 17t-6.5 15.5t-8 13t-11.5 12.5t-12 10.5t-15.5 10t-15 8.5t-16.5 9t-15.5 8v25h159q54 -25 90.5 -73t36.5 -95q0 -86 -63 -128t-160 -42h-217q-47 0 -47 49v45z" />
<glyph unicode="&#xb9;" horiz-adv-x="843" d="M94 1284v82q0 50 68 76l246 86q21 8 63 8h57q33 0 52.5 -16.5t19.5 -46.5v-746q0 -29 -19.5 -46t-52.5 -17h-114q-34 0 -53 17t-19 46v561l-172 -55q-10 -4 -29 -4q-47 0 -47 55z" />
<glyph unicode="&#xba;" horiz-adv-x="1024" d="M96 1104q0 226 101.5 329t314.5 103t314.5 -103t101.5 -329q0 -225 -101.5 -328.5t-314.5 -103.5t-314.5 103.5t-101.5 328.5zM369 1104q0 -147 29.5 -201.5t113.5 -54.5t113.5 54.5t29.5 201.5t-29.5 201.5t-113.5 54.5t-113.5 -54.5t-29.5 -201.5z" />
<glyph unicode="&#xbb;" horiz-adv-x="1200" d="M113 350v99q0 39 21 66.5t67 59.5l151 113l-151 113q-46 31 -67 59.5t-21 67.5v98q0 66 41 66q20 0 47 -21l270 -205q47 -36 67.5 -63.5t20.5 -67.5v-96q0 -39 -20.5 -66t-67.5 -63l-270 -207q-27 -18 -47 -18q-41 0 -41 65zM625 350v99q0 39 21 66.5t67 59.5l151 113 l-151 113q-46 31 -67 59.5t-21 67.5v98q0 66 41 66q20 0 47 -21l270 -205q47 -36 67.5 -63.5t20.5 -67.5v-96q0 -39 -20.5 -66t-67.5 -63l-270 -207q-27 -18 -47 -18q-41 0 -41 65z" />
<glyph unicode="&#xbc;" horiz-adv-x="2111" d="M199 1284v82q0 52 67 76l246 86q21 8 63 8h58q33 0 52.5 -16.5t19.5 -46.5v-746q0 -29 -19.5 -46t-52.5 -17h-115q-35 0 -53.5 16.5t-18.5 46.5v561l-172 -55q-10 -4 -28 -4q-47 0 -47 55zM625 49q0 18 8 31l665 1376q21 39 45 59.5t58 20.5h22q29 0 48.5 -13.5 t19.5 -35.5q0 -18 -8 -31l-668 -1376q-39 -80 -100 -80h-25q-29 0 -47 13.5t-18 35.5zM1237 201v51q0 38 10 53q107 195 166 506q13 61 80 61h133q31 0 49.5 -14.5t18.5 -40.5q0 -15 -13 -65q-47 -205 -174 -418h138v88q0 65 71 65h115q72 0 72 -65v-88h16q34 0 53 -16.5 t19 -47.5v-69q0 -32 -19 -50t-53 -18h-16v-70q0 -29 -19 -46t-53 -17h-115q-71 0 -71 63v70h-336q-72 0 -72 68z" />
<glyph unicode="&#xbd;" horiz-adv-x="2111" d="M199 1284v82q0 52 67 76l246 86q21 8 63 8h58q33 0 52.5 -16.5t19.5 -46.5v-746q0 -29 -19.5 -46t-52.5 -17h-115q-35 0 -53.5 16.5t-18.5 46.5v561l-172 -55q-10 -4 -28 -4q-47 0 -47 55zM625 49q0 18 8 31l665 1376q21 39 45 59.5t58 20.5h22q29 0 48.5 -13.5 t19.5 -35.5q0 -18 -8 -31l-668 -1376q-39 -80 -100 -80h-25q-29 0 -47 13.5t-18 35.5zM1313 63v82q0 91 42 153t150 126l135 78q21 13 30 19t28 21.5t28 33t9 36.5q0 36 -28.5 49t-98.5 13h-193q-72 0 -72 65v70q0 63 72 63h254q155 0 240.5 -66t85.5 -185q0 -35 -6.5 -63.5 t-23 -53.5t-32 -42.5t-47 -39.5t-53 -35.5t-64.5 -38.5l-112 -65q-76 -44 -78 -84h363q71 0 71 -66v-70q0 -63 -71 -63h-558q-34 0 -52.5 17t-18.5 46z" />
<glyph unicode="&#xbe;" horiz-adv-x="2111" d="M119 727v72q0 63 71 63h232q59 0 95 20t36 60q0 72 -131 72h-127q-74 0 -74 63v45q0 30 19 47t55 17h154q81 45 81 94q0 33 -27.5 45t-80.5 12h-221q-35 0 -54.5 18t-19.5 50v68q0 63 74 63h243q80 0 139 -9.5t108 -33t74.5 -66.5t25.5 -106q0 -105 -105 -174 q62 -29 93.5 -77.5t31.5 -127.5q0 -129 -103 -203.5t-264 -74.5h-254q-71 0 -71 63zM625 49q0 18 8 31l665 1376q21 39 45 59.5t58 20.5h22q29 0 48.5 -13.5t19.5 -35.5q0 -18 -8 -31l-668 -1376q-39 -80 -100 -80h-25q-29 0 -47 13.5t-18 35.5zM1237 201v51q0 38 10 53 q107 195 166 506q13 61 80 61h133q31 0 49.5 -14.5t18.5 -40.5q0 -15 -13 -65q-47 -205 -174 -418h138v88q0 65 71 65h115q72 0 72 -65v-88h16q34 0 53 -16.5t19 -47.5v-69q0 -32 -19 -50t-53 -18h-16v-70q0 -29 -19 -46t-53 -17h-115q-71 0 -71 63v70h-336q-72 0 -72 68z " />
<glyph unicode="&#xbf;" horiz-adv-x="1064" d="M68 344q0 124 42 216t152 183l117 97v96q0 42 22 65t64 23h153q45 0 68 -23.5t23 -64.5v-68q0 -37 -25 -59l-68 -74q-11 -11 -40.5 -41.5t-37.5 -39t-30 -32.5t-28 -33t-20.5 -29.5t-18.5 -33t-11 -32t-8.5 -38t-1.5 -40.5q0 -31 14 -52.5t34.5 -33t55.5 -18t65 -8 t75 -1.5h165q49 0 77 -27.5t28 -74.5v-97q0 -48 -28 -76t-77 -28h-309q-218 0 -335 80.5t-117 263.5zM371 1288v144q0 47 27.5 75.5t74.5 28.5h145q47 0 76 -28.5t29 -75.5v-144q0 -47 -29 -75.5t-76 -28.5h-145q-47 0 -74.5 28.5t-27.5 75.5z" />
<glyph unicode="&#xc0;" horiz-adv-x="1536" d="M78 63q0 9 4 25q23 96 44.5 177t34.5 124t38.5 128.5t40.5 137.5q70 238 170 512t149 369h432q51 -93 151 -366.5t171 -514.5q13 -43 40.5 -135.5t38.5 -132t32.5 -121t45.5 -178.5q5 -20 5 -25q0 -29 -21.5 -46t-56.5 -17h-211q-41 0 -67.5 23t-35.5 65q-22 90 -57 248 h-528q-54 -213 -62 -248q-22 -88 -102 -88h-178q-35 0 -56.5 17t-21.5 46zM489 1985q0 30 60 30h219q39 0 67 -21t58 -67l102 -143q19 -25 19 -45t-19 -31.5t-49 -11.5h-86q-17 0 -30.5 3.5t-30 13t-26 16.5t-33 26t-35.5 29l-175 143q-41 35 -41 58zM578 641h372 q-127 489 -182 614q-56 -139 -190 -614z" />
<glyph unicode="&#xc1;" horiz-adv-x="1536" d="M78 63q0 9 4 25q23 96 44.5 177t34.5 124t38.5 128.5t40.5 137.5q70 238 170 512t149 369h432q51 -93 151 -366.5t171 -514.5q13 -43 40.5 -135.5t38.5 -132t32.5 -121t45.5 -178.5q5 -20 5 -25q0 -29 -21.5 -46t-56.5 -17h-211q-41 0 -67.5 23t-35.5 65q-22 90 -57 248 h-528q-54 -213 -62 -248q-22 -88 -102 -88h-178q-35 0 -56.5 17t-21.5 46zM522 1739q0 20 19 45l102 143q30 46 58 67t67 21h219q60 0 60 -30q0 -23 -41 -58l-177 -143q-11 -9 -35 -29t-32.5 -26t-25 -16.5t-30 -13.5t-30.5 -3h-86q-30 0 -49 11.5t-19 31.5zM578 641h372 q-127 489 -182 614q-56 -139 -190 -614z" />
<glyph unicode="&#xc2;" horiz-adv-x="1536" d="M78 63q0 9 4 25q23 96 44.5 177t34.5 124t38.5 128.5t40.5 137.5q70 238 170 512t149 369h432q51 -93 151 -366.5t171 -514.5q13 -43 40.5 -135.5t38.5 -132t32.5 -121t45.5 -178.5q5 -20 5 -25q0 -29 -21.5 -46t-56.5 -17h-211q-41 0 -67.5 23t-35.5 65q-22 90 -57 248 h-528q-54 -213 -62 -248q-22 -88 -102 -88h-178q-35 0 -56.5 17t-21.5 46zM344 1737q0 16 25 47l163 192q40 47 69 67.5t67 20.5h200q38 0 67 -20.5t69 -67.5l163 -192q25 -31 25 -47q0 -19 -18 -30t-46 -11h-84q-41 0 -75 23t-74 65l-119 104h-16l-117 -104 q-27 -27 -44 -41.5t-47.5 -30.5t-59.5 -16h-84q-28 0 -46 11t-18 30zM578 641h372q-127 489 -182 614q-56 -139 -190 -614z" />
<glyph unicode="&#xc3;" horiz-adv-x="1536" d="M78 63q0 9 4 25q23 96 44.5 177t34.5 124t38.5 128.5t40.5 137.5q70 238 170 512t149 369h432q51 -93 151 -366.5t171 -514.5q13 -43 40.5 -135.5t38.5 -132t32.5 -121t45.5 -178.5q5 -20 5 -25q0 -29 -21.5 -46t-56.5 -17h-211q-41 0 -67.5 23t-35.5 65q-22 90 -57 248 h-528q-54 -213 -62 -248q-22 -88 -102 -88h-178q-35 0 -56.5 17t-21.5 46zM416 1815v36q0 37 20 66.5t66 62.5q58 35 114 35q37 0 80 -20t75.5 -43.5t69 -43.5t62.5 -20q73 0 129 49q33 29 51 29q37 0 37 -59v-35q0 -35 -20.5 -64t-65.5 -65q-68 -47 -131 -47 q-37 0 -79.5 20t-75 44.5t-69.5 44.5t-63 20q-69 0 -112 -43q-31 -31 -51 -31q-37 0 -37 64zM578 641h372q-127 489 -182 614q-56 -139 -190 -614z" />
<glyph unicode="&#xc4;" horiz-adv-x="1536" d="M78 63q0 9 4 25q23 96 44.5 177t34.5 124t38.5 128.5t40.5 137.5q70 238 170 512t149 369h432q51 -93 151 -366.5t171 -514.5q13 -43 40.5 -135.5t38.5 -132t32.5 -121t45.5 -178.5q5 -20 5 -25q0 -29 -21.5 -46t-56.5 -17h-211q-41 0 -67.5 23t-35.5 65q-22 90 -57 248 h-528q-54 -213 -62 -248q-22 -88 -102 -88h-178q-35 0 -56.5 17t-21.5 46zM344 1784v80q0 41 23.5 64.5t64.5 23.5h96q41 0 64.5 -23.5t23.5 -64.5v-80q0 -41 -23.5 -64.5t-64.5 -23.5h-96q-41 0 -64.5 23.5t-23.5 64.5zM578 641h372q-127 489 -182 614q-56 -139 -190 -614z M918 1784v80q0 41 23.5 64.5t64.5 23.5h96q41 0 64.5 -23.5t23.5 -64.5v-80q0 -41 -23.5 -64.5t-64.5 -23.5h-96q-41 0 -64.5 23.5t-23.5 64.5z" />
<glyph unicode="&#xc5;" horiz-adv-x="1536" d="M78 63q0 9 4 25q23 96 44.5 177t34.5 124t38.5 128.5t40.5 137.5q70 238 170 512t149 369h432q51 -93 151 -366.5t171 -514.5q13 -43 40.5 -135.5t38.5 -132t32.5 -121t45.5 -178.5q5 -20 5 -25q0 -29 -21.5 -46t-56.5 -17h-211q-41 0 -67.5 23t-35.5 65q-22 90 -57 248 h-528q-54 -213 -62 -248q-22 -88 -102 -88h-178q-35 0 -56.5 17t-21.5 46zM487 1905q0 98 78.5 152t202.5 54q126 0 202.5 -51.5t76.5 -154.5q0 -100 -77.5 -154.5t-201.5 -54.5q-129 0 -205 50t-76 159zM578 641h372q-127 489 -182 614q-56 -139 -190 -614zM631 1905 q0 -54 34.5 -91.5t102.5 -37.5q67 0 101 37.5t34 91.5q0 53 -34 90t-101 37t-102 -37.5t-35 -89.5z" />
<glyph unicode="&#xc6;" horiz-adv-x="2048" d="M78 63q0 9 4 25q45 186 158 567q70 238 170 512t149 369h1241q41 0 64.5 -23.5t23.5 -64.5v-127q0 -42 -23 -65t-65 -23h-553v-305h490q41 0 64.5 -23.5t23.5 -64.5v-127q0 -42 -23 -65t-65 -23h-490v-146q0 -98 33.5 -137t126.5 -39h426q41 0 63.5 -22.5t22.5 -65.5 v-127q0 -41 -22.5 -64.5t-63.5 -23.5h-553q-169 0 -265.5 88t-115.5 248h-403q-40 -153 -60 -248q-19 -88 -100 -88h-180q-35 0 -56.5 17t-21.5 46zM578 641h317v592h-135q-51 -124 -182 -592z" />
<glyph unicode="&#xc7;" horiz-adv-x="1376" d="M80 688v160q0 220 98.5 380.5t271 242t398.5 81.5q116 0 235.5 -17t196.5 -46v-361q0 -42 -23 -65t-65 -23h-143q-88 0 -88 88v105q-18 4 -69.5 9t-76.5 5q-178 0 -272 -100.5t-94 -282.5v-176q0 -177 98 -288t268 -111h96q117 0 281 41q16 4 25 4q29 0 46 -21.5 t17 -56.5v-127q0 -80 -88 -102q-172 -43 -281 -43h-96q-345 0 -540 182.5t-195 521.5zM571 -291q0 51 47 51h146q110 0 110 64q0 9 -1.5 17t-6.5 15.5t-8 13t-11.5 12.5t-12 10.5t-15.5 10t-15 8.5t-16.5 9t-15.5 8v25h160q54 -25 90.5 -73t36.5 -95q0 -86 -63 -128 t-160 -42h-218q-47 0 -47 49v45z" />
<glyph unicode="&#xc8;" horiz-adv-x="1312" d="M160 416v1032q0 41 23.5 64.5t64.5 23.5h817q41 0 63.5 -23.5t22.5 -64.5v-127q0 -43 -22.5 -65.5t-63.5 -22.5h-553v-305h487q42 0 65 -23t23 -65v-127q0 -88 -88 -88h-487v-146q0 -98 33.5 -137t126.5 -39h424q42 0 65 -23t23 -65v-127q0 -41 -23.5 -64.5t-64.5 -23.5 h-551q-189 0 -287 110t-98 306zM346 1985q0 30 60 30h219q39 0 67 -21t58 -67l102 -143q18 -24 18 -45q0 -20 -18.5 -31.5t-48.5 -11.5h-86q-17 0 -30.5 3t-30.5 13.5t-26 17t-33.5 26t-35.5 28.5l-174 143q-41 35 -41 58z" />
<glyph unicode="&#xc9;" horiz-adv-x="1312" d="M160 416v1032q0 41 23.5 64.5t64.5 23.5h817q41 0 63.5 -23.5t22.5 -64.5v-127q0 -43 -22.5 -65.5t-63.5 -22.5h-553v-305h487q42 0 65 -23t23 -65v-127q0 -88 -88 -88h-487v-146q0 -98 33.5 -137t126.5 -39h424q42 0 65 -23t23 -65v-127q0 -41 -23.5 -64.5t-64.5 -23.5 h-551q-189 0 -287 110t-98 306zM442 1739q0 20 19 45l102 143q30 46 58 67t67 21h219q60 0 60 -30q0 -23 -41 -58l-176 -143q-11 -9 -30 -24.5t-27 -22t-22.5 -16.5t-24.5 -14t-23 -7.5t-27 -3.5h-86q-30 0 -49 11.5t-19 31.5z" />
<glyph unicode="&#xca;" horiz-adv-x="1312" d="M160 416v1032q0 41 23.5 64.5t64.5 23.5h817q41 0 63.5 -23.5t22.5 -64.5v-127q0 -43 -22.5 -65.5t-63.5 -22.5h-553v-305h487q42 0 65 -23t23 -65v-127q0 -88 -88 -88h-487v-146q0 -98 33.5 -137t126.5 -39h424q42 0 65 -23t23 -65v-127q0 -41 -23.5 -64.5t-64.5 -23.5 h-551q-189 0 -287 110t-98 306zM231 1737q0 16 25 47l164 192q40 47 68.5 67.5t66.5 20.5h201q38 0 66.5 -20.5t68.5 -67.5l164 -192q24 -30 24 -47q0 -20 -18 -30.5t-45 -10.5h-84q-41 0 -76 23.5t-74 64.5l-118 104h-17l-117 -104q-27 -27 -44 -41.5t-47.5 -30.5 t-59.5 -16h-84q-28 0 -46 11t-18 30z" />
<glyph unicode="&#xcb;" horiz-adv-x="1312" d="M160 416v1032q0 41 23.5 64.5t64.5 23.5h817q41 0 63.5 -23.5t22.5 -64.5v-127q0 -43 -22.5 -65.5t-63.5 -22.5h-553v-305h487q42 0 65 -23t23 -65v-127q0 -88 -88 -88h-487v-146q0 -98 33.5 -137t126.5 -39h424q42 0 65 -23t23 -65v-127q0 -41 -23.5 -64.5t-64.5 -23.5 h-551q-189 0 -287 110t-98 306zM231 1784v80q0 41 23.5 64.5t64.5 23.5h97q41 0 64.5 -23.5t23.5 -64.5v-80q0 -41 -23.5 -64.5t-64.5 -23.5h-97q-41 0 -64.5 23.5t-23.5 64.5zM805 1784v80q0 41 23.5 64.5t64.5 23.5h96q41 0 64.5 -23.5t23.5 -64.5v-80q0 -41 -23.5 -64.5 t-64.5 -23.5h-96q-41 0 -64.5 23.5t-23.5 64.5z" />
<glyph unicode="&#xcc;" horiz-adv-x="671" d="M43 1985q0 30 59 30h220q39 0 66.5 -21t57.5 -67l103 -143q18 -24 18 -45q0 -20 -18.5 -31.5t-48.5 -11.5h-86q-17 0 -30.5 3t-30.5 13.5t-26 17t-33.5 26t-35.5 28.5l-174 143q-41 35 -41 58zM160 88v1360q0 41 23.5 64.5t64.5 23.5h176q41 0 64.5 -23.5t23.5 -64.5 v-1360q0 -41 -23.5 -64.5t-64.5 -23.5h-176q-41 0 -64.5 23.5t-23.5 64.5z" />
<glyph unicode="&#xcd;" horiz-adv-x="671" d="M106 1739q0 20 19 45l102 143q30 46 58 67t67 21h219q60 0 60 -30q0 -23 -41 -58l-176 -143q-11 -9 -30 -24.5t-27 -22t-22.5 -16.5t-24.5 -14t-23 -7.5t-27 -3.5h-86q-30 0 -49 11.5t-19 31.5zM160 88v1360q0 41 23.5 64.5t64.5 23.5h176q41 0 64.5 -23.5t23.5 -64.5 v-1360q0 -41 -23.5 -64.5t-64.5 -23.5h-176q-41 0 -64.5 23.5t-23.5 64.5z" />
<glyph unicode="&#xce;" horiz-adv-x="671" d="M-88 1737q0 16 25 47l163 192q40 47 69 67.5t67 20.5h200q38 0 66.5 -20.5t68.5 -67.5l164 -192q25 -31 25 -47q0 -19 -18 -30t-46 -11h-84q-41 0 -75 23t-74 65l-119 104h-16l-117 -104q-27 -27 -44 -42t-48 -30.5t-60 -15.5h-84q-27 0 -45 10.5t-18 30.5zM160 88v1360 q0 41 23.5 64.5t64.5 23.5h176q41 0 64.5 -23.5t23.5 -64.5v-1360q0 -41 -23.5 -64.5t-64.5 -23.5h-176q-41 0 -64.5 23.5t-23.5 64.5z" />
<glyph unicode="&#xcf;" horiz-adv-x="671" d="M-86 1784v80q0 41 23.5 64.5t64.5 23.5h96q41 0 64.5 -23.5t23.5 -64.5v-80q0 -41 -23.5 -64.5t-64.5 -23.5h-96q-41 0 -64.5 23.5t-23.5 64.5zM160 88v1360q0 41 23.5 64.5t64.5 23.5h176q41 0 64.5 -23.5t23.5 -64.5v-1360q0 -41 -23.5 -64.5t-64.5 -23.5h-176 q-41 0 -64.5 23.5t-23.5 64.5zM487 1784v80q0 41 23.5 64.5t64.5 23.5h97q41 0 64.5 -23.5t23.5 -64.5v-80q0 -41 -23.5 -64.5t-64.5 -23.5h-97q-41 0 -64.5 23.5t-23.5 64.5z" />
<glyph unicode="&#xd0;" horiz-adv-x="1552" d="M55 743v66q0 41 23.5 63.5t64.5 22.5h17v553q0 41 23.5 64.5t64.5 23.5h487q183 0 325 -48t231.5 -136t135.5 -207t46 -264v-193q0 -152 -44 -276t-132 -217t-231 -144t-331 -51h-487q-41 0 -64.5 23.5t-23.5 64.5v567h-17q-41 0 -64.5 23.5t-23.5 64.5zM512 303h223 q179 0 274 111.5t95 306.5v127q0 182 -95 283.5t-274 101.5h-223v-338h123q41 0 64.5 -22.5t23.5 -63.5v-66q0 -41 -23.5 -64.5t-64.5 -23.5h-123v-352z" />
<glyph unicode="&#xd1;" horiz-adv-x="1568" d="M160 88v1360q0 41 23.5 64.5t64.5 23.5h168q66 0 96 -47l545 -864v823q0 42 23 65t65 23h176q41 0 63.5 -23.5t22.5 -64.5v-1360q0 -41 -22.5 -64.5t-63.5 -23.5h-168q-67 0 -94 47l-547 864v-823q0 -41 -23.5 -64.5t-64.5 -23.5h-176q-41 0 -64.5 23.5t-23.5 64.5z M432 1815v36q0 37 20 66.5t66 62.5q58 35 115 35q37 0 80 -20t75.5 -43.5t69 -43.5t62.5 -20q73 0 129 49q33 29 51 29q37 0 37 -59v-35q0 -35 -20.5 -64t-65.5 -65q-68 -47 -131 -47q-37 0 -79.5 20t-75 44.5t-69.5 44.5t-63 20q-70 0 -113 -43q-31 -31 -51 -31 q-37 0 -37 64z" />
<glyph unicode="&#xd2;" horiz-adv-x="1568" d="M80 743v66q0 359 177 551t527 192q349 0 527 -192.5t178 -550.5v-66q0 -360 -179 -559.5t-526 -199.5q-348 0 -526 199t-178 560zM449 743q0 -105 15.5 -183.5t52.5 -141.5t104 -96t163 -33t163.5 33t104 96t52.5 141.5t16 183.5v66q0 104 -16 180t-53 136.5t-103.5 91 t-163.5 30.5q-78 0 -136 -21t-96 -57.5t-61 -92.5t-32.5 -120.5t-9.5 -146.5v-66zM489 1985q0 30 60 30h219q39 0 67 -21t58 -67l102 -143q19 -25 19 -45t-19 -31.5t-49 -11.5h-86q-17 0 -30.5 3.5t-30 13t-26 16.5t-33 26t-35.5 29l-175 143q-41 35 -41 58z" />
<glyph unicode="&#xd3;" horiz-adv-x="1568" d="M80 743v66q0 359 177 551t527 192q349 0 527 -192.5t178 -550.5v-66q0 -360 -179 -559.5t-526 -199.5q-348 0 -526 199t-178 560zM449 743q0 -105 15.5 -183.5t52.5 -141.5t104 -96t163 -33t163.5 33t104 96t52.5 141.5t16 183.5v66q0 104 -16 180t-53 136.5t-103.5 91 t-163.5 30.5q-78 0 -136 -21t-96 -57.5t-61 -92.5t-32.5 -120.5t-9.5 -146.5v-66zM555 1739q0 21 18 45l103 143q30 46 58 67t67 21h219q59 0 59 -30q0 -23 -41 -58l-176 -143q-11 -9 -35 -29t-32.5 -26t-25 -16.5t-30 -13.5t-30.5 -3h-86q-30 0 -49 11.5t-19 31.5z" />
<glyph unicode="&#xd4;" horiz-adv-x="1568" d="M80 743v66q0 359 177 551t527 192q349 0 527 -192.5t178 -550.5v-66q0 -360 -179 -559.5t-526 -199.5q-348 0 -526 199t-178 560zM360 1737q0 16 25 47l164 192q40 47 68.5 67.5t66.5 20.5h201q38 0 66.5 -20.5t68.5 -67.5l164 -192q24 -30 24 -47q0 -20 -18 -30.5 t-45 -10.5h-84q-41 0 -76 23.5t-74 64.5l-118 104h-17l-117 -104q-27 -27 -44 -41.5t-47.5 -30.5t-59.5 -16h-84q-28 0 -46 11t-18 30zM449 743q0 -105 15.5 -183.5t52.5 -141.5t104 -96t163 -33t163.5 33t104 96t52.5 141.5t16 183.5v66q0 104 -16 180t-53 136.5t-103.5 91 t-163.5 30.5q-78 0 -136 -21t-96 -57.5t-61 -92.5t-32.5 -120.5t-9.5 -146.5v-66z" />
<glyph unicode="&#xd5;" horiz-adv-x="1568" d="M80 743v66q0 359 177 551t527 192q349 0 527 -192.5t178 -550.5v-66q0 -360 -179 -559.5t-526 -199.5q-348 0 -526 199t-178 560zM432 1815v36q0 37 20 66.5t66 62.5q58 35 115 35q37 0 80 -20t75.5 -43.5t69 -43.5t62.5 -20q73 0 129 49q33 29 51 29q37 0 37 -59v-35 q0 -35 -20.5 -64t-65.5 -65q-68 -47 -131 -47q-37 0 -79.5 20t-75 44.5t-69.5 44.5t-63 20q-70 0 -113 -43q-31 -31 -51 -31q-37 0 -37 64zM449 743q0 -105 15.5 -183.5t52.5 -141.5t104 -96t163 -33t163.5 33t104 96t52.5 141.5t16 183.5v66q0 104 -16 180t-53 136.5 t-103.5 91t-163.5 30.5q-78 0 -136 -21t-96 -57.5t-61 -92.5t-32.5 -120.5t-9.5 -146.5v-66z" />
<glyph unicode="&#xd6;" horiz-adv-x="1568" d="M80 743v66q0 359 177 551t527 192q349 0 527 -192.5t178 -550.5v-66q0 -360 -179 -559.5t-526 -199.5q-348 0 -526 199t-178 560zM360 1784v80q0 41 24 64.5t65 23.5h96q41 0 64.5 -23.5t23.5 -64.5v-80q0 -41 -23.5 -64.5t-64.5 -23.5h-96q-41 0 -65 23.5t-24 64.5z M449 743q0 -105 15.5 -183.5t52.5 -141.5t104 -96t163 -33t163.5 33t104 96t52.5 141.5t16 183.5v66q0 104 -16 180t-53 136.5t-103.5 91t-163.5 30.5q-78 0 -136 -21t-96 -57.5t-61 -92.5t-32.5 -120.5t-9.5 -146.5v-66zM934 1784v80q0 41 23.5 64.5t64.5 23.5h96 q41 0 64.5 -23.5t23.5 -64.5v-80q0 -41 -23.5 -64.5t-64.5 -23.5h-96q-41 0 -64.5 23.5t-23.5 64.5z" />
<glyph unicode="&#xd7;" d="M254 537q0 32 31 63l151 152l-151 151q-31 31 -31 64q0 32 31 63l77 78q31 31 62 31q35 0 63 -31l152 -154l154 154q28 31 61 31t64 -31l77 -78q31 -31 31 -63q0 -33 -31 -64l-151 -151l151 -152q31 -31 31 -63q0 -33 -31 -64l-77 -78q-31 -28 -64 -28t-61 28l-154 152 l-152 -152q-28 -28 -63 -28q-31 0 -62 28l-77 78q-31 31 -31 64z" />
<glyph unicode="&#xd8;" horiz-adv-x="1568" d="M80 743v66q0 359 177 551t527 192q269 0 443 -120l24 30q32 39 57.5 56.5t57.5 17.5h45q55 0 55 -37q0 -16 -18 -37l-111 -135q152 -190 152 -518v-66q0 -360 -179 -559.5t-526 -199.5q-270 0 -442 122l-27 -32q-30 -38 -55 -56t-57 -18h-47q-23 0 -38.5 9.5t-15.5 27.5 q0 15 19 37l112 137q-153 197 -153 532zM449 743q0 -138 26 -233l539 659q-81 78 -230 78q-78 0 -136 -21t-96 -57.5t-61 -92.5t-32.5 -120.5t-9.5 -146.5v-66zM555 369q80 -80 229 -80q96 0 163.5 33t104 96t52.5 141.5t16 183.5v66q0 131 -26 219z" />
<glyph unicode="&#xd9;" horiz-adv-x="1568" d="M160 557v891q0 41 23.5 64.5t64.5 23.5h176q41 0 64.5 -23.5t23.5 -64.5v-895q0 -134 64.5 -199t207.5 -65t208 65t65 199v895q0 42 23 65t65 23h176q41 0 63.5 -23.5t22.5 -64.5v-889q0 -143 -47.5 -254t-132.5 -180.5t-197 -105t-246 -35.5q-296 0 -460 144t-164 429z M498 1985q0 30 59 30h219q39 0 67 -21t58 -67l103 -143q18 -24 18 -45q0 -20 -19 -31.5t-49 -11.5h-86q-17 0 -30.5 3.5t-30 13t-26 16.5t-33 26t-35.5 29l-174 143q-41 35 -41 58z" />
<glyph unicode="&#xda;" horiz-adv-x="1568" d="M160 557v891q0 41 23.5 64.5t64.5 23.5h176q41 0 64.5 -23.5t23.5 -64.5v-895q0 -134 64.5 -199t207.5 -65t208 65t65 199v895q0 42 23 65t65 23h176q41 0 63.5 -23.5t22.5 -64.5v-889q0 -143 -47.5 -254t-132.5 -180.5t-197 -105t-246 -35.5q-296 0 -460 144t-164 429z M555 1739q0 21 18 45l103 143q30 46 58 67t67 21h219q59 0 59 -30q0 -23 -41 -58l-176 -143q-11 -9 -35 -29t-32.5 -26t-25 -16.5t-30 -13.5t-30.5 -3h-86q-30 0 -49 11.5t-19 31.5z" />
<glyph unicode="&#xdb;" horiz-adv-x="1568" d="M160 557v891q0 41 23.5 64.5t64.5 23.5h176q41 0 64.5 -23.5t23.5 -64.5v-895q0 -134 64.5 -199t207.5 -65t208 65t65 199v895q0 42 23 65t65 23h176q41 0 63.5 -23.5t22.5 -64.5v-889q0 -143 -47.5 -254t-132.5 -180.5t-197 -105t-246 -35.5q-296 0 -460 144t-164 429z M360 1737q0 16 25 47l164 192q40 47 68.5 67.5t66.5 20.5h201q38 0 66.5 -20.5t68.5 -67.5l164 -192q24 -30 24 -47q0 -20 -18 -30.5t-45 -10.5h-84q-41 0 -76 23.5t-74 64.5l-118 104h-17l-117 -104q-27 -27 -44 -41.5t-47.5 -30.5t-59.5 -16h-84q-28 0 -46 11t-18 30z" />
<glyph unicode="&#xdc;" horiz-adv-x="1568" d="M160 557v891q0 41 23.5 64.5t64.5 23.5h176q41 0 64.5 -23.5t23.5 -64.5v-895q0 -134 64.5 -199t207.5 -65t208 65t65 199v895q0 42 23 65t65 23h176q41 0 63.5 -23.5t22.5 -64.5v-889q0 -143 -47.5 -254t-132.5 -180.5t-197 -105t-246 -35.5q-296 0 -460 144t-164 429z M360 1784v80q0 41 24 64.5t65 23.5h96q41 0 64.5 -23.5t23.5 -64.5v-80q0 -41 -23.5 -64.5t-64.5 -23.5h-96q-41 0 -65 23.5t-24 64.5zM934 1784v80q0 41 23.5 64.5t64.5 23.5h96q41 0 64.5 -23.5t23.5 -64.5v-80q0 -41 -23.5 -64.5t-64.5 -23.5h-96q-41 0 -64.5 23.5 t-23.5 64.5z" />
<glyph unicode="&#xdd;" horiz-adv-x="1431" d="M57 1489q0 23 19 35t51 12h201q39 0 66 -22t50 -66l277 -567l291 567q24 45 50 66.5t66 21.5h175q32 0 50.5 -12t18.5 -35q0 -20 -12 -41l-479 -864v-496q0 -41 -23.5 -64.5t-64.5 -23.5h-177q-42 0 -65 23t-23 65v496l-458 864q-13 23 -13 41zM502 1739q0 21 18 45 l103 143q30 46 58 67t67 21h219q59 0 59 -30q0 -23 -41 -58l-176 -143q-11 -9 -30 -24.5t-27 -22t-22.5 -16.5t-24.5 -14t-23 -7.5t-27 -3.5h-86q-30 0 -48.5 11.5t-18.5 31.5z" />
<glyph unicode="&#xde;" horiz-adv-x="1376" d="M160 88v1360q0 41 23.5 64.5t64.5 23.5h176q41 0 64.5 -23.5t23.5 -64.5v-72h209q276 0 425.5 -125.5t149.5 -402.5q0 -122 -31.5 -217.5t-85.5 -159t-132 -105t-166.5 -59.5t-192.5 -18h-176v-201q0 -41 -23.5 -64.5t-64.5 -23.5h-176q-41 0 -64.5 23.5t-23.5 64.5z M512 592h143q151 0 212 53t61 203q0 72 -14.5 116t-50.5 67.5t-83 31.5t-125 8h-143v-479z" />
<glyph unicode="&#xdf;" horiz-adv-x="1536" d="M16 920v112q0 42 23 65t65 23h89v17q0 102 45.5 179.5t127.5 125t187 71t231 23.5q79 0 161 -17.5t157 -52t122.5 -94t47.5 -133.5q0 -29 -5 -55.5t-9 -45.5t-18.5 -40.5t-20 -31.5t-26.5 -29.5t-25 -23.5t-29.5 -23.5t-26.5 -20.5q-5 -4 -20 -15.5t-21.5 -17t-17.5 -17 t-16 -21.5t-9 -25.5t-4 -32.5q0 -38 26.5 -64t77.5 -49l97 -39q64 -27 105.5 -52.5t76 -63t50.5 -89.5t16 -123q0 -124 -62.5 -210.5t-167.5 -126t-244 -39.5q-154 0 -264 20q-88 16 -88 100v123q0 76 66 76q14 0 22 -2q127 -20 201 -20q35 0 61 2.5t53 9.5t41.5 22t14.5 37 q0 13 -2.5 23.5t-10.5 19t-14 14.5t-21 13t-24.5 10.5t-31 11.5t-33.5 13l-105 39q-97 37 -153 112t-56 185q0 142 154 247q70 49 90.5 79.5t20.5 64.5q0 42 -39.5 69t-104.5 27q-26 0 -43.5 -1t-44 -6.5t-44.5 -15t-38 -28.5t-32.5 -45.5t-20.5 -67.5t-8 -92v-936 q0 -41 -23.5 -64.5t-64.5 -23.5h-176q-42 0 -65 23t-23 65v743h-89q-42 0 -65 23.5t-23 65.5z" />
<glyph unicode="&#xe0;" horiz-adv-x="1376" d="M113 352v223q0 164 78 289t212 190.5t302 65.5h423q41 0 65 -23.5t24 -64.5v-944q0 -41 -24 -64.5t-65 -23.5h-176q-42 0 -65 23t-23 65v64l-80 -56q-83 -57 -155 -84.5t-158 -27.5q-172 0 -265 97t-93 271zM426 1569q0 30 59 30h220q39 0 66.5 -21t57.5 -67l103 -143 q18 -24 18 -45q0 -20 -18.5 -31.5t-48.5 -11.5h-86q-17 0 -30.5 3t-30.5 13.5t-26 17t-33.5 26t-35.5 28.5l-174 143q-41 35 -41 58zM465 416q0 -66 30.5 -96.5t96.5 -30.5q80 0 209 80l63 39v423h-129q-270 0 -270 -256v-159z" />
<glyph unicode="&#xe1;" horiz-adv-x="1376" d="M113 352v223q0 164 78 289t212 190.5t302 65.5h423q41 0 65 -23.5t24 -64.5v-944q0 -41 -24 -64.5t-65 -23.5h-176q-42 0 -65 23t-23 65v64l-80 -56q-83 -57 -155 -84.5t-158 -27.5q-172 0 -265 97t-93 271zM465 416q0 -66 30.5 -96.5t96.5 -30.5q80 0 209 80l63 39v423 h-129q-270 0 -270 -256v-159zM514 1323q0 21 18 45l103 143q30 46 58 67t67 21h219q59 0 59 -30q0 -23 -41 -58l-176 -143q-11 -9 -35 -29t-32.5 -26t-25 -16.5t-30 -13.5t-30.5 -3h-86q-30 0 -49 11.5t-19 31.5z" />
<glyph unicode="&#xe2;" horiz-adv-x="1376" d="M113 352v223q0 164 78 289t212 190.5t302 65.5h423q41 0 65 -23.5t24 -64.5v-944q0 -41 -24 -64.5t-65 -23.5h-176q-42 0 -65 23t-23 65v64l-80 -56q-83 -57 -155 -84.5t-158 -27.5q-172 0 -265 97t-93 271zM297 1321q0 16 25 47l163 193q40 47 69 67.5t67 20.5h200 q38 0 66.5 -20.5t68.5 -67.5l164 -193q25 -31 25 -47q0 -19 -18 -30t-46 -11h-84q-41 0 -75 23t-74 65l-119 105h-16l-117 -105q-27 -27 -44 -42t-48 -30.5t-60 -15.5h-84q-27 0 -45 10.5t-18 30.5zM465 416q0 -66 30.5 -96.5t96.5 -30.5q80 0 209 80l63 39v423h-129 q-270 0 -270 -256v-159z" />
<glyph unicode="&#xe3;" horiz-adv-x="1376" d="M113 352v223q0 164 78 289t212 190.5t302 65.5h423q41 0 65 -23.5t24 -64.5v-944q0 -41 -24 -64.5t-65 -23.5h-176q-42 0 -65 23t-23 65v64l-80 -56q-83 -57 -155 -84.5t-158 -27.5q-172 0 -265 97t-93 271zM360 1399v37q0 37 20 66.5t66 62.5q56 34 115 34 q46 0 101.5 -31.5t104.5 -63t81 -31.5q73 0 129 49q32 28 51 28q37 0 37 -59v-35q0 -35 -20.5 -64t-65.5 -65q-68 -47 -131 -47q-37 0 -79.5 20t-75 44.5t-69.5 44.5t-63 20q-69 0 -112 -43q-31 -31 -52 -31q-37 0 -37 64zM465 416q0 -66 30.5 -96.5t96.5 -30.5q80 0 209 80 l63 39v423h-129q-270 0 -270 -256v-159z" />
<glyph unicode="&#xe4;" horiz-adv-x="1376" d="M113 352v223q0 164 78 289t212 190.5t302 65.5h423q41 0 65 -23.5t24 -64.5v-944q0 -41 -24 -64.5t-65 -23.5h-176q-42 0 -65 23t-23 65v64l-80 -56q-83 -57 -155 -84.5t-158 -27.5q-172 0 -265 97t-93 271zM297 1368v80q0 41 23.5 64.5t64.5 23.5h96q41 0 64.5 -23.5 t23.5 -64.5v-80q0 -41 -23.5 -64.5t-64.5 -23.5h-96q-41 0 -64.5 23.5t-23.5 64.5zM465 416q0 -66 30.5 -96.5t96.5 -30.5q80 0 209 80l63 39v423h-129q-270 0 -270 -256v-159zM870 1368v80q0 41 23.5 64.5t64.5 23.5h97q41 0 64.5 -23.5t23.5 -64.5v-80q0 -41 -23.5 -64.5 t-64.5 -23.5h-97q-41 0 -64.5 23.5t-23.5 64.5z" />
<glyph unicode="&#xe5;" horiz-adv-x="1376" d="M113 352v223q0 164 78 289t212 190.5t302 65.5h423q41 0 65 -23.5t24 -64.5v-944q0 -41 -24 -64.5t-65 -23.5h-176q-42 0 -65 23t-23 65v64l-80 -56q-83 -57 -155 -84.5t-158 -27.5q-172 0 -265 97t-93 271zM432 1489q0 98 78.5 152.5t202.5 54.5q126 0 202 -52t76 -155 q0 -100 -77 -154.5t-201 -54.5q-129 0 -205 50t-76 159zM465 416q0 -66 30.5 -96.5t96.5 -30.5q80 0 209 80l63 39v423h-129q-270 0 -270 -256v-159zM575 1489q0 -54 35 -91.5t103 -37.5q67 0 101 37.5t34 91.5q0 53 -34 90t-101 37t-102.5 -37.5t-35.5 -89.5z" />
<glyph unicode="&#xe6;" horiz-adv-x="2048" d="M113 352v223q0 164 78 289t212 190.5t302 65.5h727q505 0 505 -368q0 -88 -31 -152.5t-88 -102t-131 -55.5t-167 -18h-303q1 -41 21 -69t56 -42t74 -19t88 -5q163 0 295 28q8 2 25 2q63 0 63 -73v-121q0 -80 -88 -102q-152 -39 -326 -39q-372 0 -501 211l-140 -99 q-81 -57 -153.5 -84.5t-159.5 -27.5q-172 0 -265 97t-93 271zM465 416q0 -66 30.5 -96.5t96.5 -30.5q80 0 209 80l63 39v231q0 105 35 192h-164q-270 0 -270 -256v-159zM1217 633h278q59 0 90 21.5t31 72.5q0 28 -10.5 47.5t-26 30.5t-41.5 17t-49 7.5t-57 1.5 q-106 0 -160.5 -42.5t-54.5 -141.5v-14z" />
<glyph unicode="&#xe7;" horiz-adv-x="1136" d="M80 416v239q0 144 74.5 255.5t198 169t272.5 57.5q222 0 383 -80v-297q0 -42 -23 -65t-65 -23h-111q-42 0 -65 23t-23 65v55q-32 16 -96 16q-91 0 -142 -50.5t-51 -141.5v-143q0 -207 223 -207q140 0 265 35q20 4 26 4q29 0 45.5 -20.5t16.5 -55.5v-123q0 -76 -88 -104 q-128 -41 -273 -41q-99 0 -182 14t-155 46.5t-122.5 81.5t-79 123t-28.5 167zM365 -291q0 51 47 51h145q111 0 111 64q0 9 -1.5 17t-6 15.5t-8.5 13t-12 12.5t-12.5 10.5t-15.5 10t-15 8.5t-16.5 8.5t-15.5 8.5v25h160q54 -25 90.5 -73t36.5 -95q0 -86 -63 -128t-160 -42 h-217q-47 0 -47 49v45z" />
<glyph unicode="&#xe8;" horiz-adv-x="1263" d="M80 440v215q0 118 43.5 211t120.5 151.5t179.5 89t223.5 30.5q506 0 506 -369q0 -171 -112 -249.5t-306 -78.5h-303v-8q0 -43 20 -73t56.5 -44.5t75 -20t88.5 -5.5q163 0 297 28q8 2 22 2q66 0 66 -73v-121q0 -80 -88 -102q-155 -39 -328 -39q-127 0 -227.5 25.5 t-176.5 79t-116.5 142.5t-40.5 209zM322 1569q0 30 59 30h219q39 0 67 -21t58 -67l102 -143q19 -25 19 -45t-19 -31.5t-49 -11.5h-86q-17 0 -30.5 3.5t-30 13t-26 16.5t-33 26t-35.5 29l-175 143q-40 34 -40 58zM432 647h281q118 0 118 96q0 28 -10.5 48t-26 30.5t-41.5 17 t-49.5 8t-56.5 1.5q-106 0 -160.5 -42.5t-54.5 -141.5v-17z" />
<glyph unicode="&#xe9;" horiz-adv-x="1263" d="M80 440v215q0 118 43.5 211t120.5 151.5t179.5 89t223.5 30.5q506 0 506 -369q0 -171 -112 -249.5t-306 -78.5h-303v-8q0 -43 20 -73t56.5 -44.5t75 -20t88.5 -5.5q163 0 297 28q8 2 22 2q66 0 66 -73v-121q0 -80 -88 -102q-155 -39 -328 -39q-127 0 -227.5 25.5 t-176.5 79t-116.5 142.5t-40.5 209zM418 1323q0 21 18 45l103 143q30 46 58 67t67 21h219q59 0 59 -30q0 -23 -41 -58l-176 -143q-11 -9 -30 -24.5t-27 -22t-22.5 -16.5t-24.5 -14t-23 -7.5t-27 -3.5h-86q-30 0 -48.5 11.5t-18.5 31.5zM432 647h281q118 0 118 96 q0 28 -10.5 48t-26 30.5t-41.5 17t-49.5 8t-56.5 1.5q-106 0 -160.5 -42.5t-54.5 -141.5v-17z" />
<glyph unicode="&#xea;" horiz-adv-x="1263" d="M80 440v215q0 118 43.5 211t120.5 151.5t179.5 89t223.5 30.5q506 0 506 -369q0 -171 -112 -249.5t-306 -78.5h-303v-8q0 -43 20 -73t56.5 -44.5t75 -20t88.5 -5.5q163 0 297 28q8 2 22 2q66 0 66 -73v-121q0 -80 -88 -102q-155 -39 -328 -39q-127 0 -227.5 25.5 t-176.5 79t-116.5 142.5t-40.5 209zM193 1321q0 17 24 47l164 193q40 47 68.5 67.5t66.5 20.5h201q38 0 66.5 -20.5t68.5 -67.5l164 -193q24 -30 24 -47q0 -20 -18 -30.5t-45 -10.5h-84q-41 0 -76 23.5t-74 64.5l-118 105h-17l-116 -105q-27 -27 -44 -42t-48 -30.5 t-60 -15.5h-84q-27 0 -45 10.5t-18 30.5zM432 647h281q118 0 118 96q0 28 -10.5 48t-26 30.5t-41.5 17t-49.5 8t-56.5 1.5q-106 0 -160.5 -42.5t-54.5 -141.5v-17z" />
<glyph unicode="&#xeb;" horiz-adv-x="1263" d="M80 440v215q0 118 43.5 211t120.5 151.5t179.5 89t223.5 30.5q506 0 506 -369q0 -171 -112 -249.5t-306 -78.5h-303v-8q0 -43 20 -73t56.5 -44.5t75 -20t88.5 -5.5q163 0 297 28q8 2 22 2q66 0 66 -73v-121q0 -80 -88 -102q-155 -39 -328 -39q-127 0 -227.5 25.5 t-176.5 79t-116.5 142.5t-40.5 209zM193 1368v80q0 41 23.5 64.5t64.5 23.5h96q41 0 64.5 -23.5t23.5 -64.5v-80q0 -41 -23.5 -64.5t-64.5 -23.5h-96q-41 0 -64.5 23.5t-23.5 64.5zM432 647h281q118 0 118 96q0 28 -10.5 48t-26 30.5t-41.5 17t-49.5 8t-56.5 1.5 q-106 0 -160.5 -42.5t-54.5 -141.5v-17zM766 1368v80q0 41 23.5 64.5t64.5 23.5h96q41 0 64.5 -23.5t23.5 -64.5v-80q0 -41 -23.5 -64.5t-64.5 -23.5h-96q-41 0 -64.5 23.5t-23.5 64.5z" />
<glyph unicode="&#xec;" horiz-adv-x="704" d="M33 920v112q0 42 23 65t65 23h336q41 0 64.5 -23.5t23.5 -64.5v-944q0 -41 -23.5 -64.5t-64.5 -23.5h-176q-42 0 -65 23t-23 65v743h-72q-42 0 -65 23.5t-23 65.5zM43 1569q0 30 59 30h220q39 0 66.5 -21t57.5 -67l103 -143q18 -24 18 -45q0 -20 -18.5 -31.5t-48.5 -11.5 h-86q-17 0 -30.5 3t-30.5 13.5t-26 17t-33.5 26t-35.5 28.5l-174 143q-41 35 -41 58z" />
<glyph unicode="&#xed;" horiz-adv-x="704" d="M33 920v112q0 42 23 65t65 23h336q41 0 64.5 -23.5t23.5 -64.5v-944q0 -41 -23.5 -64.5t-64.5 -23.5h-176q-42 0 -65 23t-23 65v743h-72q-42 0 -65 23.5t-23 65.5zM145 1323q0 20 19 45l102 143q30 46 58 67t67 21h219q60 0 60 -30q0 -23 -41 -58l-176 -143 q-11 -9 -30 -24.5t-27 -22t-22.5 -16.5t-24.5 -14t-23 -7.5t-27 -3.5h-86q-30 0 -49 11.5t-19 31.5z" />
<glyph unicode="&#xee;" horiz-adv-x="704" d="M-96 1321q0 17 24 47l164 193q40 47 68.5 67.5t66.5 20.5h201q38 0 66.5 -20.5t68.5 -67.5l164 -193q25 -31 25 -47q0 -19 -18 -30t-46 -11h-84q-41 0 -75 23t-74 65l-119 105h-17l-116 -105q-27 -27 -44 -42t-48 -30.5t-60 -15.5h-84q-27 0 -45 10.5t-18 30.5zM33 920 v112q0 42 23 65t65 23h336q41 0 64.5 -23.5t23.5 -64.5v-944q0 -41 -23.5 -64.5t-64.5 -23.5h-176q-42 0 -65 23t-23 65v743h-72q-42 0 -65 23.5t-23 65.5z" />
<glyph unicode="&#xef;" horiz-adv-x="704" d="M-102 1368v80q0 41 23.5 64.5t64.5 23.5h96q41 0 64.5 -23.5t23.5 -64.5v-80q0 -41 -23.5 -64.5t-64.5 -23.5h-96q-41 0 -64.5 23.5t-23.5 64.5zM33 920v112q0 42 23 65t65 23h336q41 0 64.5 -23.5t23.5 -64.5v-944q0 -41 -23.5 -64.5t-64.5 -23.5h-176q-42 0 -65 23 t-23 65v743h-72q-42 0 -65 23.5t-23 65.5zM471 1368v80q0 41 23.5 64.5t64.5 23.5h96q41 0 64.5 -23.5t23.5 -64.5v-80q0 -41 -23.5 -64.5t-64.5 -23.5h-96q-41 0 -64.5 23.5t-23.5 64.5z" />
<glyph unicode="&#xf0;" horiz-adv-x="1376" d="M113 352v223q0 164 78 289t212 190.5t302 65.5h159v119h-159q-43 0 -66 23.5t-23 64.5v8q0 43 23 65.5t66 22.5h159v25q0 42 23 65t65 23h176q41 0 65 -23.5t24 -64.5v-25h30q88 0 88 -88v-8q0 -42 -23 -65t-65 -23h-30v-1151q0 -41 -24 -64.5t-65 -23.5h-176 q-42 0 -65 23t-23 65v64l-80 -56q-83 -57 -155 -84.5t-158 -27.5q-172 0 -265 97t-93 271zM465 416q0 -66 30.5 -96.5t96.5 -30.5q80 0 209 80l63 39v423h-129q-270 0 -270 -256v-159z" />
<glyph unicode="&#xf1;" horiz-adv-x="1409" d="M160 88v944q0 41 23.5 64.5t64.5 23.5h176q41 0 64.5 -23.5t23.5 -64.5v-82l47 33q114 81 192.5 117.5t176.5 36.5q159 0 239 -93.5t80 -259.5v-696q0 -42 -23 -65t-65 -23h-176q-41 0 -64.5 23.5t-23.5 64.5v600q0 74 -20.5 108.5t-81.5 34.5q-71 0 -218 -96l-63 -39 v-608q0 -41 -23.5 -64.5t-64.5 -23.5h-176q-41 0 -64.5 23.5t-23.5 64.5zM352 1399v37q0 37 20 66.5t66 62.5q56 34 115 34q46 0 101.5 -31.5t104.5 -63t81 -31.5q73 0 129 49q32 28 51 28q37 0 37 -59v-35q0 -35 -20.5 -64t-65.5 -65q-68 -47 -131 -47q-37 0 -79.5 20 t-75 44.5t-69.5 44.5t-63 20q-70 0 -113 -43q-31 -31 -51 -31q-37 0 -37 64z" />
<glyph unicode="&#xf2;" horiz-adv-x="1312" d="M80 559q0 578 575 578q292 0 435 -140t143 -438q0 -160 -35.5 -271t-110 -178t-179.5 -96.5t-253 -29.5q-142 0 -245.5 29.5t-179 96t-113 178.5t-37.5 271zM354 1569q0 30 60 30h219q39 0 67 -21t58 -67l102 -143q19 -25 19 -45t-19 -31.5t-49 -11.5h-86q-17 0 -30.5 3 t-30.5 13.5t-26 17t-33.5 26t-35.5 28.5l-174 143q-41 35 -41 58zM432 559q0 -148 51 -209t172 -61t173.5 61t52.5 209q0 149 -52.5 210.5t-173.5 61.5t-172 -61t-51 -211z" />
<glyph unicode="&#xf3;" horiz-adv-x="1312" d="M80 559q0 578 575 578q292 0 435 -140t143 -438q0 -160 -35.5 -271t-110 -178t-179.5 -96.5t-253 -29.5q-142 0 -245.5 29.5t-179 96t-113 178.5t-37.5 271zM432 559q0 -148 51 -209t172 -61t173.5 61t52.5 209q0 149 -52.5 210.5t-173.5 61.5t-172 -61t-51 -211z M434 1323q0 20 19 45l102 143q30 46 58 67t67 21h219q59 0 59 -30q0 -24 -40 -58l-177 -143q-11 -9 -35 -29t-32.5 -26t-25 -16.5t-30 -13.5t-30.5 -3h-86q-30 0 -49 11.5t-19 31.5z" />
<glyph unicode="&#xf4;" horiz-adv-x="1312" d="M80 559q0 578 575 578q292 0 435 -140t143 -438q0 -160 -35.5 -271t-110 -178t-179.5 -96.5t-253 -29.5q-142 0 -245.5 29.5t-179 96t-113 178.5t-37.5 271zM231 1321q0 16 25 47l164 193q40 47 68.5 67.5t66.5 20.5h201q38 0 66.5 -20.5t68.5 -67.5l164 -193 q24 -30 24 -47q0 -20 -18 -30.5t-45 -10.5h-84q-41 0 -76 23.5t-74 64.5l-118 105h-17l-117 -105q-27 -27 -44 -41.5t-47.5 -30.5t-59.5 -16h-84q-28 0 -46 11t-18 30zM432 559q0 -148 51 -209t172 -61t173.5 61t52.5 209q0 149 -52.5 210.5t-173.5 61.5t-172 -61t-51 -211z " />
<glyph unicode="&#xf5;" horiz-adv-x="1312" d="M80 559q0 578 575 578q292 0 435 -140t143 -438q0 -160 -35.5 -271t-110 -178t-179.5 -96.5t-253 -29.5q-142 0 -245.5 29.5t-179 96t-113 178.5t-37.5 271zM303 1399v37q0 37 20 66.5t66 62.5q56 34 115 34q46 0 101.5 -31.5t104.5 -63t81 -31.5q73 0 129 49 q32 28 51 28q37 0 37 -59v-35q0 -35 -20.5 -64t-65.5 -65q-68 -47 -131 -47q-37 0 -79.5 20t-75 44.5t-69.5 44.5t-63 20q-70 0 -113 -43q-31 -31 -51 -31q-37 0 -37 64zM432 559q0 -148 51 -209t172 -61t173.5 61t52.5 209q0 149 -52.5 210.5t-173.5 61.5t-172 -61 t-51 -211z" />
<glyph unicode="&#xf6;" horiz-adv-x="1312" d="M80 559q0 578 575 578q292 0 435 -140t143 -438q0 -160 -35.5 -271t-110 -178t-179.5 -96.5t-253 -29.5q-142 0 -245.5 29.5t-179 96t-113 178.5t-37.5 271zM231 1368v80q0 41 23.5 64.5t64.5 23.5h97q41 0 64.5 -23.5t23.5 -64.5v-80q0 -41 -23.5 -64.5t-64.5 -23.5h-97 q-41 0 -64.5 23.5t-23.5 64.5zM432 559q0 -148 51 -209t172 -61t173.5 61t52.5 209q0 149 -52.5 210.5t-173.5 61.5t-172 -61t-51 -211zM805 1368v80q0 41 23.5 64.5t64.5 23.5h96q41 0 64.5 -23.5t23.5 -64.5v-80q0 -41 -23.5 -64.5t-64.5 -23.5h-96q-41 0 -64.5 23.5 t-23.5 64.5z" />
<glyph unicode="&#xf7;" d="M193 696v113q0 41 22.5 63.5t65.5 22.5h718q43 0 65.5 -22.5t22.5 -63.5v-113q0 -88 -88 -88h-718q-88 0 -88 88zM496 281v110q0 42 23 65t65 23h112q42 0 65 -23t23 -65v-110q0 -42 -23 -65t-65 -23h-112q-42 0 -65 23t-23 65zM496 1112v113q0 41 23.5 64.5t64.5 23.5 h112q41 0 64.5 -23.5t23.5 -64.5v-113q0 -41 -23.5 -64.5t-64.5 -23.5h-112q-41 0 -64.5 23.5t-23.5 64.5z" />
<glyph unicode="&#xf8;" horiz-adv-x="1312" d="M80 559q0 578 575 578q215 0 349 -76q28 31 49.5 45t50.5 14h47q23 0 38 -9.5t15 -27.5q0 -15 -18 -36l-70 -78q117 -141 117 -410q0 -160 -35.5 -271t-110 -178t-179.5 -96.5t-253 -29.5q-222 0 -350 71q-49 -55 -96 -55h-47q-53 0 -53 37q0 16 18 37l66 73 q-113 140 -113 412zM432 559q0 -75 12 -127l334 377q-52 22 -123 22q-121 0 -172 -61t-51 -211zM532 311q43 -22 123 -22q121 0 173.5 61t52.5 209q0 73 -15 129z" />
<glyph unicode="&#xf9;" horiz-adv-x="1409" d="M160 336v696q0 41 23.5 64.5t64.5 23.5h176q41 0 64.5 -23.5t23.5 -64.5v-600q0 -73 21 -108t83 -35q29 0 69.5 16t69.5 32.5t76 45.5l64 41v608q0 41 23.5 64.5t64.5 23.5h176q42 0 65 -23t23 -65v-944q0 -42 -23 -65t-65 -23h-176q-41 0 -64.5 23.5t-23.5 64.5v82 l-47 -35q-109 -79 -189 -115t-180 -36q-158 0 -238.5 93.5t-80.5 258.5zM410 1569q0 30 59 30h219q39 0 67 -21t58 -67l102 -143q19 -25 19 -45t-19 -31.5t-49 -11.5h-86q-17 0 -30.5 3.5t-30 13t-26 16.5t-33 26t-35.5 29l-174 143q-41 35 -41 58z" />
<glyph unicode="&#xfa;" horiz-adv-x="1409" d="M160 336v696q0 41 23.5 64.5t64.5 23.5h176q41 0 64.5 -23.5t23.5 -64.5v-600q0 -73 21 -108t83 -35q29 0 69.5 16t69.5 32.5t76 45.5l64 41v608q0 41 23.5 64.5t64.5 23.5h176q42 0 65 -23t23 -65v-944q0 -42 -23 -65t-65 -23h-176q-41 0 -64.5 23.5t-23.5 64.5v82 l-47 -35q-109 -79 -189 -115t-180 -36q-158 0 -238.5 93.5t-80.5 258.5zM473 1323q0 20 19 45l102 143q30 46 58 67t67 21h219q59 0 59 -30q0 -23 -41 -58l-176 -143q-11 -9 -35 -29t-32.5 -26t-25 -16.5t-30 -13.5t-30.5 -3h-86q-30 0 -49 11.5t-19 31.5z" />
<glyph unicode="&#xfb;" horiz-adv-x="1409" d="M160 336v696q0 41 23.5 64.5t64.5 23.5h176q41 0 64.5 -23.5t23.5 -64.5v-600q0 -73 21 -108t83 -35q29 0 69.5 16t69.5 32.5t76 45.5l64 41v608q0 41 23.5 64.5t64.5 23.5h176q42 0 65 -23t23 -65v-944q0 -42 -23 -65t-65 -23h-176q-41 0 -64.5 23.5t-23.5 64.5v82 l-47 -35q-109 -79 -189 -115t-180 -36q-158 0 -238.5 93.5t-80.5 258.5zM281 1321q0 17 24 47l164 193q40 47 68.5 67.5t66.5 20.5h201q38 0 66.5 -20.5t68.5 -67.5l164 -193q24 -30 24 -47q0 -20 -18 -30.5t-45 -10.5h-84q-41 0 -76 23.5t-74 64.5l-118 105h-17l-116 -105 q-27 -27 -44 -42t-48 -30.5t-60 -15.5h-84q-27 0 -45 10.5t-18 30.5z" />
<glyph unicode="&#xfc;" horiz-adv-x="1409" d="M160 336v696q0 41 23.5 64.5t64.5 23.5h176q41 0 64.5 -23.5t23.5 -64.5v-600q0 -73 21 -108t83 -35q29 0 69.5 16t69.5 32.5t76 45.5l64 41v608q0 41 23.5 64.5t64.5 23.5h176q42 0 65 -23t23 -65v-944q0 -42 -23 -65t-65 -23h-176q-41 0 -64.5 23.5t-23.5 64.5v82 l-47 -35q-109 -79 -189 -115t-180 -36q-158 0 -238.5 93.5t-80.5 258.5zM283 1368v80q0 41 23.5 64.5t64.5 23.5h96q41 0 64.5 -23.5t23.5 -64.5v-80q0 -41 -23.5 -64.5t-64.5 -23.5h-96q-41 0 -64.5 23.5t-23.5 64.5zM856 1368v80q0 41 23.5 64.5t64.5 23.5h96 q41 0 64.5 -23.5t23.5 -64.5v-80q0 -41 -23.5 -64.5t-64.5 -23.5h-96q-41 0 -64.5 23.5t-23.5 64.5z" />
<glyph unicode="&#xfd;" horiz-adv-x="1392" d="M143 430v602q0 41 23.5 64.5t64.5 23.5h177q42 0 65 -23t23 -65v-538q0 -66 31.5 -96.5t97.5 -30.5q105 0 206 55l50 24v586q0 42 23 65t65 23h176q41 0 64.5 -23.5t23.5 -64.5v-872q0 -255 -158 -400t-420 -145h-264q-47 0 -74.5 28.5t-27.5 75.5v80q0 49 27.5 77 t74.5 28h137q93 0 155 12.5t108 44t67.5 87.5t22.5 142l-72 -40q-53 -28 -87.5 -43.5t-89.5 -29.5t-112 -14q-181 0 -279 94t-98 273zM481 1323q0 20 19 45l102 143q30 46 58 67t67 21h219q60 0 60 -30q0 -23 -41 -58l-177 -143q-11 -9 -35 -29t-32.5 -26t-25 -16.5 t-30 -13.5t-30.5 -3h-86q-30 0 -49 11.5t-19 31.5z" />
<glyph unicode="&#xfe;" horiz-adv-x="1376" d="M160 -297v1745q0 41 23.5 64.5t64.5 23.5h176q41 0 64.5 -23.5t23.5 -64.5v-479l80 55q81 58 153.5 85.5t157.5 27.5q173 0 267 -97t94 -272v-223q0 -164 -78 -289t-212 -190.5t-302 -65.5h-160v-297q0 -41 -23.5 -64.5t-64.5 -23.5h-176q-41 0 -64.5 23.5t-23.5 64.5z M512 289h129q270 0 270 256v160q0 66 -30.5 96t-96.5 30q-82 0 -209 -79l-63 -39v-424z" />
<glyph unicode="&#xff;" horiz-adv-x="1392" d="M143 430v602q0 41 23.5 64.5t64.5 23.5h177q42 0 65 -23t23 -65v-538q0 -66 31.5 -96.5t97.5 -30.5q105 0 206 55l50 24v586q0 42 23 65t65 23h176q41 0 64.5 -23.5t23.5 -64.5v-872q0 -255 -158 -400t-420 -145h-264q-47 0 -74.5 28.5t-27.5 75.5v80q0 49 27.5 77 t74.5 28h137q93 0 155 12.5t108 44t67.5 87.5t22.5 142l-72 -40q-53 -28 -87.5 -43.5t-89.5 -29.5t-112 -14q-181 0 -279 94t-98 273zM272 1368v80q0 41 23.5 64.5t64.5 23.5h97q41 0 64.5 -23.5t23.5 -64.5v-80q0 -41 -23.5 -64.5t-64.5 -23.5h-97q-41 0 -64.5 23.5 t-23.5 64.5zM846 1368v80q0 41 23.5 64.5t64.5 23.5h96q41 0 64.5 -23.5t23.5 -64.5v-80q0 -41 -23.5 -64.5t-64.5 -23.5h-96q-41 0 -64.5 23.5t-23.5 64.5z" />
<glyph unicode="&#x152;" horiz-adv-x="2095" d="M80 760v33q0 359 177 551t527 192h1063q42 0 65 -23t23 -65v-127q0 -88 -88 -88h-551v-305h488q41 0 64.5 -23.5t23.5 -64.5v-127q0 -42 -23 -65t-65 -23h-488v-322h584q42 0 65 -23t23 -65v-127q0 -41 -23.5 -64.5t-64.5 -23.5h-1096q-348 0 -526 199.5t-178 560.5z M449 760q0 -105 15.5 -184t52.5 -142.5t104 -97t163 -33.5h160v930h-160q-78 0 -136 -21t-96 -57.5t-61 -93t-32.5 -121t-9.5 -147.5v-33z" />
<glyph unicode="&#x153;" horiz-adv-x="2064" d="M80 559q0 578 575 578q258 0 402 -111q150 111 391 111q506 0 506 -369q0 -88 -31 -152.5t-88.5 -102t-131.5 -55.5t-167 -18h-303v-8q0 -43 19.5 -73t56 -44.5t75 -20t89.5 -5.5q160 0 294 28q8 2 25 2q63 0 63 -73v-121q0 -80 -88 -102q-152 -39 -325 -39 q-253 0 -391 96q-133 -96 -396 -96q-142 0 -245.5 29.5t-179 96t-113 178.5t-37.5 271zM432 559q0 -148 51 -209t172 -61t173.5 61t52.5 209v29q-4 132 -57.5 187.5t-168.5 55.5q-121 0 -172 -61t-51 -211zM1233 647h278q121 0 121 96q0 28 -10.5 48t-26 30.5t-41.5 17 t-49.5 8t-56.5 1.5q-106 0 -160.5 -42.5t-54.5 -141.5v-17z" />
<glyph unicode="&#x178;" horiz-adv-x="1431" d="M57 1489q0 23 19 35t51 12h201q39 0 66 -22t50 -66l277 -567l291 567q24 45 50 66.5t66 21.5h175q32 0 50.5 -12t18.5 -35q0 -20 -12 -41l-479 -864v-496q0 -41 -23.5 -64.5t-64.5 -23.5h-177q-42 0 -65 23t-23 65v496l-458 864q-13 23 -13 41zM293 1784v80 q0 41 23.5 64.5t64.5 23.5h96q41 0 64.5 -23.5t23.5 -64.5v-80q0 -41 -23.5 -64.5t-64.5 -23.5h-96q-41 0 -64.5 23.5t-23.5 64.5zM866 1784v80q0 41 23.5 64.5t64.5 23.5h97q41 0 64.5 -23.5t23.5 -64.5v-80q0 -41 -23.5 -64.5t-64.5 -23.5h-97q-41 0 -64.5 23.5 t-23.5 64.5z" />
<glyph unicode="&#x2c6;" horiz-adv-x="847" d="M0 1321q0 16 25 47l163 193q40 47 69 67.5t67 20.5h200q38 0 66.5 -20.5t68.5 -67.5l164 -193q25 -31 25 -47q0 -19 -18 -30t-46 -11h-84q-41 0 -75 23t-74 65l-119 105h-16l-117 -105q-27 -27 -44 -42t-48 -30.5t-60 -15.5h-84q-27 0 -45 10.5t-18 30.5z" />
<glyph unicode="&#x2dc;" horiz-adv-x="704" d="M0 1399v37q0 37 20 66.5t66 62.5q56 34 115 34q46 0 101 -31.5t104 -63t81 -31.5q73 0 129 49q32 28 52 28q37 0 37 -59v-35q0 -35 -20.5 -64t-66.5 -65q-68 -47 -131 -47q-46 0 -100.5 32t-103.5 64.5t-82 32.5q-70 0 -113 -43q-31 -31 -51 -31q-37 0 -37 64z" />
<glyph unicode="&#x2000;" horiz-adv-x="1055" />
<glyph unicode="&#x2001;" horiz-adv-x="2111" />
<glyph unicode="&#x2002;" horiz-adv-x="1055" />
<glyph unicode="&#x2003;" horiz-adv-x="2111" />
<glyph unicode="&#x2004;" horiz-adv-x="703" />
<glyph unicode="&#x2005;" horiz-adv-x="527" />
<glyph unicode="&#x2006;" horiz-adv-x="351" />
<glyph unicode="&#x2007;" horiz-adv-x="351" />
<glyph unicode="&#x2008;" horiz-adv-x="263" />
<glyph unicode="&#x2009;" horiz-adv-x="422" />
<glyph unicode="&#x200a;" horiz-adv-x="117" />
<glyph unicode="&#x2010;" horiz-adv-x="831" d="M63 696v113q0 41 23.5 63.5t65.5 22.5h528q41 0 64.5 -22.5t23.5 -63.5v-113q0 -42 -23 -65t-65 -23h-528q-42 0 -65.5 23t-23.5 65z" />
<glyph unicode="&#x2011;" horiz-adv-x="831" d="M63 696v113q0 41 23.5 63.5t65.5 22.5h528q41 0 64.5 -22.5t23.5 -63.5v-113q0 -42 -23 -65t-65 -23h-528q-42 0 -65.5 23t-23.5 65z" />
<glyph unicode="&#x2012;" horiz-adv-x="831" d="M63 696v113q0 41 23.5 63.5t65.5 22.5h528q41 0 64.5 -22.5t23.5 -63.5v-113q0 -42 -23 -65t-65 -23h-528q-42 0 -65.5 23t-23.5 65z" />
<glyph unicode="&#x2013;" horiz-adv-x="1024" d="M63 696v113q0 41 23.5 63.5t65.5 22.5h720q42 0 65.5 -22.5t23.5 -63.5v-113q0 -42 -23.5 -65t-65.5 -23h-720q-42 0 -65.5 23t-23.5 65z" />
<glyph unicode="&#x2014;" horiz-adv-x="2048" d="M63 696v113q0 41 23.5 63.5t65.5 22.5h1744q42 0 65.5 -22.5t23.5 -63.5v-113q0 -42 -23.5 -65t-65.5 -23h-1744q-42 0 -65.5 23t-23.5 65z" />
<glyph unicode="&#x2018;" horiz-adv-x="608" d="M63 1016q0 38 21 76l197 356q25 45 52 66.5t66 21.5h80q36 0 56 -16t20 -45q0 -17 -2 -27l-115 -432q-22 -88 -102 -88h-184q-41 0 -65 23.5t-24 64.5z" />
<glyph unicode="&#x2019;" horiz-adv-x="608" d="M51 989q0 7 4 27l115 432q22 88 102 88h185q41 0 64.5 -23.5t23.5 -64.5q0 -38 -21 -76l-196 -356q-25 -44 -52.5 -66t-66.5 -22h-82q-34 0 -55 16t-21 45z" />
<glyph unicode="&#x201a;" horiz-adv-x="671" d="M20 -195q0 2 5 27l112 432q22 88 103 88h184q41 0 64.5 -23.5t23.5 -64.5q0 -40 -20 -76l-195 -356q-27 -45 -54.5 -66.5t-66.5 -21.5h-80q-36 0 -56 16t-20 45z" />
<glyph unicode="&#x201c;" horiz-adv-x="1136" d="M63 1016q0 38 21 76l197 356q25 45 52 66.5t66 21.5h80q36 0 56 -16t20 -45q0 -17 -2 -27l-115 -432q-22 -88 -102 -88h-184q-41 0 -65 23.5t-24 64.5zM592 1016q0 40 20 76l197 356q25 44 52.5 66t66.5 22h80q35 0 55 -16t20 -45q0 -7 -4 -27l-112 -432 q-22 -88 -103 -88h-184q-41 0 -64.5 23.5t-23.5 64.5z" />
<glyph unicode="&#x201d;" horiz-adv-x="1136" d="M51 989q0 7 4 27l115 432q22 88 102 88h185q41 0 64.5 -23.5t23.5 -64.5q0 -38 -21 -76l-196 -356q-25 -44 -52.5 -66t-66.5 -22h-82q-34 0 -55 16t-21 45zM580 989q0 7 4 27l114 432q22 88 103 88h182q42 0 65 -23t23 -65q0 -44 -18 -76l-197 -356q-27 -45 -54 -66.5 t-67 -21.5h-80q-34 0 -54.5 16t-20.5 45z" />
<glyph unicode="&#x201e;" horiz-adv-x="1136" d="M20 -195q0 2 5 27l112 432q22 88 103 88h184q41 0 64.5 -23.5t23.5 -64.5q0 -40 -20 -76l-195 -356q-27 -45 -54.5 -66.5t-66.5 -21.5h-80q-36 0 -56 16t-20 45zM549 -195q0 7 4 27l113 432q22 88 102 88h184q41 0 64.5 -23.5t23.5 -64.5q0 -40 -20 -76l-197 -356 q-25 -45 -52 -66.5t-66 -21.5h-80q-36 0 -56 16t-20 45z" />
<glyph unicode="&#x2022;" horiz-adv-x="1024" d="M129 641q0 93 32.5 167.5t87 120.5t122 70.5t141.5 24.5t142 -24.5t122.5 -70.5t87.5 -120.5t33 -167.5t-33 -168t-87.5 -121.5t-122.5 -71t-142 -24.5t-141.5 24.5t-122 71t-87 121.5t-32.5 168z" />
<glyph unicode="&#x2026;" horiz-adv-x="1888" d="M160 88v176q0 41 23.5 64.5t64.5 23.5h176q41 0 64.5 -23.5t23.5 -64.5v-176q0 -41 -23.5 -64.5t-64.5 -23.5h-176q-41 0 -64.5 23.5t-23.5 64.5zM768 88v176q0 41 23.5 64.5t64.5 23.5h176q41 0 64.5 -23.5t23.5 -64.5v-176q0 -41 -23.5 -64.5t-64.5 -23.5h-176 q-41 0 -64.5 23.5t-23.5 64.5zM1376 88v176q0 42 23 65t65 23h176q41 0 65 -23.5t24 -64.5v-176q0 -41 -24 -64.5t-65 -23.5h-176q-42 0 -65 23t-23 65z" />
<glyph unicode="&#x202f;" horiz-adv-x="422" />
<glyph unicode="&#x2039;" horiz-adv-x="688" d="M127 639v96q0 39 20.5 66.5t67.5 64.5l272 205q27 21 48 21q40 0 40 -66v-98q0 -39 -21 -67.5t-67 -59.5l-151 -113l151 -113q46 -32 67 -59.5t21 -66.5v-99q0 -65 -40 -65q-21 0 -48 18l-272 207q-47 37 -67.5 64t-20.5 65z" />
<glyph unicode="&#x203a;" horiz-adv-x="688" d="M113 350v99q0 39 21 66.5t67 59.5l151 113l-151 113q-46 31 -67 59.5t-21 67.5v98q0 66 41 66q20 0 47 -21l270 -205q47 -36 67.5 -63.5t20.5 -67.5v-96q0 -39 -20.5 -66t-67.5 -63l-270 -207q-27 -18 -47 -18q-41 0 -41 65z" />
<glyph unicode="&#x205f;" horiz-adv-x="527" />
<glyph unicode="&#x20ac;" d="M63 575v58q0 29 17.5 46t46.5 17h96v144h-96q-31 0 -47.5 17t-16.5 46v58q0 29 17.5 46t46.5 17h96q0 159 84 281t221.5 184.5t302.5 62.5h50q97 0 215 -30q88 -22 88 -105v-125q0 -75 -64 -75q-16 0 -24 2q-98 28 -215 28h-50q-239 0 -239 -223h399q31 0 48.5 -17 t17.5 -46v-58q0 -30 -17 -46.5t-49 -16.5h-399v-144h399q31 0 48.5 -17t17.5 -46v-58q0 -30 -17 -46.5t-49 -16.5h-399q0 -114 65.5 -168.5t173.5 -54.5h66q108 0 201 35q18 6 30 6q26 0 41 -20.5t15 -53.5v-127q0 -77 -88 -109q-95 -36 -199 -36h-66q-95 0 -182.5 19 t-165.5 61t-135.5 102.5t-91 149.5t-33.5 196h-96q-31 0 -47.5 17t-16.5 46z" />
<glyph unicode="&#x2122;" horiz-adv-x="1759" d="M63 1415v58q0 29 17.5 46t46.5 17h498q29 0 46 -17t17 -46v-58q0 -29 -17 -46t-46 -17h-138v-584q0 -63 -63 -63h-96q-30 0 -47 16.5t-17 46.5v584h-137q-29 0 -46.5 17t-17.5 46zM801 768v705q0 30 16.5 46.5t46.5 16.5h103q48 0 88 -63l162 -265l161 265q21 33 40 48 t48 15h105q29 0 46 -17t17 -46v-705q0 -30 -16.5 -46.5t-46.5 -16.5h-96q-31 0 -48.5 16.5t-17.5 46.5v385l-137 -229q-18 -29 -47 -29h-17q-14 0 -29 8.5t-22 20.5l-133 213v-369q0 -30 -16.5 -46.5t-46.5 -16.5h-97q-63 0 -63 63z" />
<glyph unicode="&#x25fc;" horiz-adv-x="1116" d="M0 0v1116h1116v-1116h-1116z" />
<glyph unicode="&#xfb03;" horiz-adv-x="2144" d="M16 920v112q0 42 23 65t65 23h89v31q0 186 105.5 285.5t293.5 99.5h113q41 0 64.5 -23.5t23.5 -64.5v-80q0 -41 -23.5 -64.5t-64.5 -23.5q-80 0 -120 -34t-40 -109v-17h366v31q0 185 107 285t295 100h110q42 0 65 -23t23 -65v-80q0 -42 -23 -65t-65 -23q-159 0 -159 -143 v-17h632q41 0 65 -23.5t24 -64.5v-944q0 -41 -24 -64.5t-65 -23.5h-176q-42 0 -65 23t-23 65v743h-368v-743q0 -42 -23 -65t-65 -23h-177q-41 0 -64.5 23.5t-23.5 64.5v743h-366v-743q0 -41 -23.5 -64.5t-64.5 -23.5h-176q-42 0 -65 23t-23 65v743h-89q-42 0 -65 23.5 t-23 65.5zM1632 1335v113q0 42 23 65t65 23h176q41 0 65 -23.5t24 -64.5v-113q0 -41 -24 -64.5t-65 -23.5h-176q-42 0 -65 23t-23 65z" />
<glyph unicode="&#xfb04;" horiz-adv-x="2144" d="M16 920v112q0 42 23 65t65 23h89v31q0 186 105.5 285.5t293.5 99.5h113q41 0 64.5 -23.5t23.5 -64.5v-80q0 -41 -23.5 -64.5t-64.5 -23.5q-80 0 -120 -34t-40 -109v-17h366v31q0 185 107 285t295 100h583q41 0 65 -23.5t24 -64.5v-1360q0 -41 -24 -64.5t-65 -23.5h-176 q-42 0 -65 23t-23 65v1192h-225q-143 0 -143 -143v-17h120q41 0 65 -23.5t24 -64.5v-112q0 -41 -24 -65t-65 -24h-120v-743q0 -42 -23 -65t-65 -23h-177q-41 0 -64.5 23.5t-23.5 64.5v743h-366v-743q0 -41 -23.5 -64.5t-64.5 -23.5h-176q-42 0 -65 23t-23 65v743h-89 q-42 0 -65 23.5t-23 65.5z" />
</font>
</defs>
</svg>
