<?xml version="1.0" standalone="no"?>
<!DOCTYPE svg PUBLIC "-//W3C//DTD SVG 1.1//EN" "http://www.w3.org/Graphics/SVG/1.1/DTD/svg11.dtd" >
<svg xmlns="http://www.w3.org/2000/svg" xmlns:xlink="http://www.w3.org/1999/xlink" version="1.1">
<metadata></metadata>
<defs>
<font id="sansa_soft_prolightitalic" horiz-adv-x="1280" >
<font-face units-per-em="2048" ascent="1663" descent="-385" />
<missing-glyph horiz-adv-x="544" />
<glyph unicode="&#xfb01;" horiz-adv-x="1161" d="M135 20q0 11 4 27l207 985h-172q-27 0 -27 25q0 1 7 30q7 33 39 33h172l18 80q73 336 410 336h69q27 0 27 -25q0 -5 -6 -30q-7 -33 -39 -33h-70q-240 0 -295 -248l-18 -80h590q24 0 24 -24q0 -9 -4 -29l-221 -1034q-7 -33 -39 -33h-31q-26 0 -26 20q0 11 4 27l211 985 h-527l-211 -999q-7 -33 -36 -33h-33q-27 0 -27 20zM1049 1397q0 6 4 26l14 80q7 33 39 33h33q24 0 24 -20q0 -11 -4 -27l-14 -82q-7 -31 -39 -31h-33q-24 0 -24 21z" />
<glyph unicode="&#xfb02;" horiz-adv-x="1157" d="M135 20q0 11 4 27l207 985h-172q-27 0 -27 25q0 1 7 30q7 33 39 33h172l18 80q73 336 410 336h344q24 0 24 -25q0 -6 -4 -22l-309 -1456q-7 -33 -37 -33h-33q-26 0 -26 20q0 11 4 27l299 1401h-281q-240 0 -295 -248l-18 -80h266q27 0 27 -24q0 -6 -6 -31q-7 -33 -37 -33 h-269l-211 -999q-7 -33 -36 -33h-33q-27 0 -27 20z" />
<glyph horiz-adv-x="0" />
<glyph horiz-adv-x="682" />
<glyph unicode=" "  horiz-adv-x="544" />
<glyph unicode="&#x09;" horiz-adv-x="544" />
<glyph unicode="&#xa0;" horiz-adv-x="544" />
<glyph unicode="!" horiz-adv-x="559" d="M98 23q0 14 4 28l23 109q1 15 12.5 24t26.5 9h49q23 0 23 -23q0 -11 -5 -31l-20 -106q-7 -33 -41 -33h-47q-25 0 -25 23zM213 469q0 1 1 6.5t4 19t5 25.5l187 983q7 33 39 33h55q26 0 26 -25q0 -11 -10 -47l-231 -985q-7 -30 -41 -30h-8q-27 0 -27 20z" />
<glyph unicode="&#x22;" horiz-adv-x="911" d="M303 1143q0 3 6 33l58 327q7 33 39 33h49q22 0 22 -23q0 -12 -8 -40l-80 -322q-7 -31 -39 -31h-20q-27 0 -27 23zM655 1143q0 1 1 4.5t2.5 12t3.5 16.5l57 327q7 33 39 33h49q22 0 22 -23q0 -12 -8 -40l-80 -322q-7 -31 -39 -31h-20q-27 0 -27 23z" />
<glyph unicode="#" d="M0 414q0 6 4 26q6 31 39 31h264l127 594h-266q-27 0 -27 20q0 7 4 27q7 33 41 33h265l77 358q7 33 37 33h17q26 0 26 -25q0 -10 -4 -28l-72 -338h400l76 358q7 33 39 33h16q24 0 24 -25q0 -10 -4 -28l-71 -338h262q26 0 26 -23q0 -6 -4 -26q-6 -31 -41 -31h-262 l-125 -594h265q24 0 24 -20q0 -7 -4 -27q-1 -15 -12.5 -24t-26.5 -9h-264l-76 -358q-7 -33 -39 -33h-14q-27 0 -27 25q0 10 4 28l72 338h-399l-76 -358q-7 -33 -39 -33h-16q-27 0 -27 25q0 10 4 28l72 338h-262q-27 0 -27 23zM389 471h397l127 594h-399z" />
<glyph unicode="$" d="M109 66q0 6 10 57q6 22 26 22q12 0 35 -10q155 -55 273 -55h22q119 0 217.5 41t160.5 124.5t62 194.5q0 196 -176 273l-198 88q-126 55 -191 135t-65 201q0 97 43 176t116 129t164.5 78t194.5 32l41 193q7 31 39 31h39q26 0 26 -25q0 -14 -8 -47l-35 -154 q155 -11 269 -53q24 -6 24 -31q0 -6 -8 -45q-7 -24 -29 -24q-5 0 -19 4.5t-18 5.5q-125 49 -272 49h-25q-71 0 -134.5 -11t-120 -35t-97.5 -60.5t-64.5 -91t-23.5 -121.5q0 -82 38.5 -135.5t115.5 -90.5l207 -96q72 -32 118.5 -62.5t83.5 -73.5t53.5 -101.5t16.5 -137.5 q0 -138 -74 -240.5t-192.5 -155.5t-266.5 -60l-43 -207q-7 -33 -38 -33h-39q-27 0 -27 25q0 14 8 47l35 170q-126 6 -252 51q-22 6 -22 29z" />
<glyph unicode="%" horiz-adv-x="1921" d="M117 915q0 82 18 168t57 169t92.5 148.5t131 105.5t166.5 40q124 0 191 -66.5t67 -191.5q0 -67 -13 -138t-37.5 -142.5t-64.5 -134.5t-90.5 -112t-118.5 -77.5t-145 -28.5q-119 0 -186.5 67.5t-67.5 192.5zM215 915q0 -88 45 -133t121 -45q100 0 182.5 73.5t130 200 t47.5 277.5q0 95 -43.5 134.5t-126.5 39.5q-98 0 -180 -73.5t-129 -199.5t-47 -274zM543 14q0 5 4 13l751 1482q15 27 35 27h23q22 0 22 -14q0 -5 -4 -13l-751 -1482q-15 -27 -37 -27h-23q-20 0 -20 14zM1079 252q0 82 18.5 168t57.5 169t93 148.5t131.5 105.5t166.5 40 q124 0 191 -66.5t67 -191.5q0 -67 -13 -138t-37.5 -142.5t-64.5 -134.5t-90.5 -112t-119 -77.5t-146.5 -28.5q-117 0 -185.5 68t-68.5 192zM1180 252q0 -89 43.5 -133.5t119.5 -44.5q101 0 184.5 73.5t131 200t47.5 277.5q0 95 -43.5 134.5t-126.5 39.5q-99 0 -181 -73.5 t-128.5 -199t-46.5 -274.5z" />
<glyph unicode="&#x26;" horiz-adv-x="1327" d="M127 352q0 180 94 296t250 175q-68 41 -105.5 114.5t-37.5 149.5q0 140 72 247.5t189 162.5t259 55h41q82 0 166 -16t143 -43q25 -7 25 -29q0 -4 -1 -7.5t-3.5 -14t-4.5 -21.5q-7 -24 -26 -24q-4 0 -17.5 4.5t-19.5 5.5q-131 49 -295 49h-41q-100 0 -185 -42 t-137.5 -123.5t-52.5 -186.5q0 -99 57.5 -169.5t149.5 -70.5h602q29 0 29 -24q0 -7 -4 -19l-6 -20q-10 -33 -37 -33h-96l-152 -696q-226 -88 -408 -88q-199 0 -323.5 101t-124.5 267zM231 377q0 -75 28.5 -134t77 -93.5t107 -52t123.5 -17.5q112 0 184.5 15.5t143.5 47.5 l133 625h-381q-68 0 -139.5 -27t-134 -75t-102.5 -124t-40 -165z" />
<glyph unicode="'" horiz-adv-x="495" d="M295 1143q0 1 0.5 4.5t1.5 11.5t2 17l57 327q3 15 14 24t25 9h49q25 0 25 -23q0 -12 -8 -40l-80 -322q-3 -14 -14.5 -22.5t-26.5 -8.5h-21q-24 0 -24 23z" />
<glyph unicode="(" horiz-adv-x="608" d="M117 307q0 136 28 301l13 64q50 264 184 481t320 350q48 33 65 33h23q18 0 18 -10q0 -8 -18 -23q-396 -290 -496 -831l-12 -64q-35 -175 -35 -334q0 -310 176 -497q8 -12 8 -17q0 -16 -24 -16h-23q-21 0 -49 33q-178 178 -178 530z" />
<glyph unicode=")" horiz-adv-x="608" d="M-160 -246q0 7 19 23q397 296 499 831l13 64q32 197 32 325q0 320 -178 506q-10 10 -10 17q0 16 27 16h22q20 0 49 -33q183 -183 183 -534q0 -129 -29 -297l-12 -64q-52 -264 -186 -481t-320 -350q-45 -33 -66 -33h-24q-19 0 -19 10z" />
<glyph unicode="*" horiz-adv-x="1024" d="M160 924q0 20 24 34l299 154l-233 154q-12 9 -12 20q0 12 10 25l22 26q13 19 29 19q5 0 31 -17l221 -145l65 309q3 15 14 24t25 9h33q27 0 27 -23q0 -8 -6 -26l-62 -293l301 156q9 6 19 6q9 0 22 -19q12 -24 12 -37q0 -19 -22 -34l-303 -154l235 -154q13 -10 13 -20 t-11 -25q-1 -1 -11.5 -16t-19.5 -22t-20 -7q-10 0 -16 6l-234 154l-65 -307q-7 -33 -41 -33h-33q-24 0 -24 23q0 1 1 4.5t1 5.5l65 307l-303 -154q-6 -6 -16 -6q-15 0 -25 19q-12 20 -12 37z" />
<glyph unicode="+" d="M199 733q0 7 4 27q7 33 39 33h374l82 374q7 33 37 33h17q26 0 26 -24q0 -11 -4 -29l-76 -354h375q27 0 27 -23q0 -7 -4 -27q-3 -13 -14 -21.5t-25 -8.5h-377l-80 -377q-7 -33 -39 -33h-14q-27 0 -27 25q0 10 4 30l76 355h-377q-24 0 -24 20z" />
<glyph unicode="," horiz-adv-x="559" d="M-35 -240q0 3 4 15l187 385q16 33 45 33h49q29 0 29 -25q0 -6 -9 -33q-3 -7 -8 -23.5t-9.5 -26.5t-10.5 -19l-201 -291q-22 -31 -45 -31h-8q-23 0 -23 16z" />
<glyph unicode="-" horiz-adv-x="831" d="M133 733q0 10 6 35q7 33 41 33h508q27 0 27 -23q0 -10 -6 -35q-7 -30 -41 -30h-508q-27 0 -27 20z" />
<glyph unicode="." horiz-adv-x="544" d="M88 23q0 14 4 28l23 109q7 33 39 33h49q22 0 22 -23q0 -15 -4 -31l-20 -106q-7 -33 -41 -33h-47q-25 0 -25 23z" />
<glyph unicode="/" horiz-adv-x="944" d="M61 -236q0 5 11 27l723 1712q13 33 41 33h20q27 0 27 -20q0 -9 -11 -31l-722 -1708q-13 -33 -41 -33h-21q-27 0 -27 20z" />
<glyph unicode="0" d="M143 432q0 120 20 247.5t57.5 253t97.5 237t135 197t175 135.5t212 50q181 0 279 -112.5t98 -327.5q0 -102 -13.5 -210t-42.5 -218.5t-70.5 -212.5t-100.5 -191t-128.5 -154.5t-159.5 -103.5t-190 -38q-170 0 -269.5 117.5t-99.5 330.5zM248 432q0 -179 74 -265.5 t206 -86.5q162 0 296.5 138.5t211 375.5t76.5 518q0 189 -73.5 266.5t-215.5 77.5q-158 0 -290.5 -138t-208.5 -373.5t-76 -512.5z" />
<glyph unicode="1" d="M305 1237q0 1 10 57q5 26 43 39l500 195q24 8 37 8h14q27 0 27 -25q0 -12 -10 -55l-303 -1423q-7 -33 -39 -33h-39q-27 0 -27 25q0 12 6 30l289 1354l-471 -182q-10 -4 -20 -4q-17 0 -17 14z" />
<glyph unicode="2" d="M102 25q0 14 2 22l17 105q11 72 30 124t60.5 108.5t112.5 110.5t180 113l192 105q202 108 285.5 211.5t83.5 242.5q0 138 -89.5 205.5t-240.5 67.5h-358q-27 0 -27 24q0 6 6 39q7 33 37 33h328q215 0 330.5 -100.5t115.5 -268.5q0 -94 -31.5 -173t-97 -146.5 t-145.5 -122.5t-197 -117l-137 -71q-129 -69 -195.5 -122.5t-100 -117t-48.5 -162.5l-6 -39h790q27 0 27 -24q0 -6 -6 -39q-7 -33 -39 -33h-854q-25 0 -25 25z" />
<glyph unicode="3" d="M61 25q0 1 0.5 3t2.5 11.5t4 23.5q7 33 38 33h359q504 0 504 416q0 122 -88.5 197t-233.5 75h-231q-27 0 -27 25q0 4 6 39q7 33 39 33h309q140 56 214.5 137t74.5 199q0 105 -76.5 164t-228.5 59h-350q-27 0 -27 24q0 6 6 39q7 33 37 33h342q194 0 298 -86.5t104 -232.5 q0 -116 -78 -217.5t-228 -159.5q240 -91 240 -328q0 -89 -21.5 -164.5t-69.5 -140.5t-121 -110.5t-181.5 -71t-245.5 -25.5h-344q-27 0 -27 25z" />
<glyph unicode="4" d="M86 422q0 6 6 47q5 25 29 53q366 448 579 981q13 33 39 33h41q27 0 27 -20q0 -9 -2 -13q-111 -269 -258.5 -509.5t-337.5 -497.5h608l105 473q7 30 39 30h38q27 0 27 -22q0 -6 -6 -33l-96 -448h206q23 0 23 -23q0 -4 -4 -41q-7 -33 -41 -33h-207l-80 -366q-7 -33 -37 -33 h-41q-24 0 -24 25q0 9 6 30l74 344h-688q-25 0 -25 23z" />
<glyph unicode="5" d="M61 25q0 1 0.5 3t2.5 11.5t4 23.5q7 33 38 33h343q233 0 360 131t127 348q0 129 -85 197t-259 68h-295q-27 0 -27 24q0 7 6 31l125 608q7 33 39 33h713q27 0 27 -25q0 -5 -6 -38q-7 -33 -37 -33h-650l-104 -504h209q225 0 341 -97.5t116 -263.5q0 -54 -9 -108.5 t-30.5 -112t-54 -108.5t-81.5 -96.5t-110.5 -78.5t-144.5 -52t-179 -19h-352q-27 0 -27 25z" />
<glyph unicode="6" d="M143 311q0 98 25 217l88 408q28 130 85.5 236.5t146 189t217.5 128.5t286 46h162q27 0 27 -25q0 -5 -6 -38q-7 -33 -37 -33h-176q-107 0 -201 -30t-173.5 -91t-138 -160.5t-88.5 -230.5l-24 -107q72 48 166 81.5t194 33.5q179 0 277 -100t98 -252q0 -168 -64 -304 t-185 -216t-277 -80q-204 0 -303 86t-99 241zM248 311q0 -64 22.5 -110t65.5 -72t97.5 -37.5t125.5 -11.5q82 0 155 31t130.5 91t91 158.5t33.5 223.5q0 120 -74.5 188t-206.5 68q-110 0 -197.5 -30.5t-177.5 -86.5l-41 -195q-24 -115 -24 -217z" />
<glyph unicode="7" d="M270 1464q0 6 6 39q7 33 37 33h963q27 0 27 -25q0 -1 -0.5 -3t-1 -8.5t-1.5 -16.5q-6 -23 -26 -43q-136 -135 -248.5 -272.5t-216 -300t-183 -349.5t-128.5 -389l-25 -96q-7 -33 -37 -33h-41q-24 0 -24 25q0 12 4 22l18 82q41 169 107.5 333.5t142 299.5t167 263 t178.5 227t181 188h-872q-27 0 -27 24z" />
<glyph unicode="8" d="M113 319q0 238 264 424l125 91q-83 46 -133 120t-50 174q0 82 25.5 151.5t69.5 119t103 84.5t126.5 52t140.5 17h80q153 0 236.5 -82.5t83.5 -222.5q0 -215 -264 -407l-93 -66q109 -59 165.5 -131t56.5 -186q0 -93 -38.5 -179.5t-105.5 -151t-163 -103.5t-205 -39h-66 q-159 0 -258.5 89.5t-99.5 245.5zM215 319q0 -116 81 -177.5t208 -61.5h24q173 0 294.5 104t121.5 273q0 77 -43 130t-133 101l-182 100l-107 -75q-55 -39 -96 -75t-82.5 -85.5t-63.5 -108.5t-22 -125zM424 1128q0 -132 135 -208l184 -103l72 55q130 95 197 182t67 193 t-62 161.5t-177 55.5h-80q-150 0 -243 -87t-93 -249z" />
<glyph unicode="9" d="M133 25q0 5 6 38q7 33 39 33h166q228 0 375.5 121t210.5 383l24 107q-69 -43 -166 -71t-196 -28q-167 0 -268 88t-101 256q0 174 66.5 311t185 213t268.5 76q186 0 294 -107t108 -269q0 -118 -17 -185l-96 -391q-20 -82 -47.5 -152.5t-67.5 -140t-95 -123.5t-124.5 -96.5 t-161.5 -65t-200 -22.5h-176q-27 0 -27 25zM328 952q0 -247 272 -247q219 0 379 104l45 182q16 63 16 185q0 131 -83 205.5t-222 74.5q-182 0 -294.5 -132t-112.5 -372z" />
<glyph unicode=":" horiz-adv-x="559" d="M88 23q0 14 4 28l23 109q7 33 39 33h49q22 0 22 -23q0 -15 -4 -31l-20 -106q-7 -33 -41 -33h-47q-25 0 -25 23zM289 950q0 15 4 31l20 106q7 33 41 33h47q25 0 25 -22q0 -15 -4 -31l-23 -106q-7 -33 -39 -33h-49q-22 0 -22 22z" />
<glyph unicode=";" horiz-adv-x="610" d="M-35 -240q0 3 4 15l187 385q16 33 45 33h49q29 0 29 -25q0 -6 -9 -33q-3 -7 -8 -23.5t-9.5 -26.5t-10.5 -19l-201 -291q-22 -31 -45 -31h-8q-23 0 -23 16zM338 950q0 15 4 31l23 106q7 33 38 33h50q22 0 22 -22q0 -15 -4 -31l-20 -106q-7 -33 -41 -33h-48q-24 0 -24 22z " />
<glyph unicode="&#x3c;" d="M178 727q0 6 6 39q5 26 39 43l903 422q34 12 35 12q17 0 17 -14q0 -6 -9 -43q-9 -30 -41 -41l-833 -393l668 -392q22 -13 22 -32q0 -6 -6 -41q-7 -27 -25 -27q-4 0 -12 4l-739 432q-25 12 -25 31z" />
<glyph unicode="=" d="M139 510q0 7 4 27q7 30 41 30h832q26 0 26 -20q0 -7 -4 -27q-7 -33 -41 -33h-831q-27 0 -27 23zM236 958q0 7 4 25q7 33 41 33h831q27 0 27 -23q0 -6 -4 -24q-7 -33 -41 -33h-832q-26 0 -26 22z" />
<glyph unicode="&#x3e;" d="M113 276q0 10 8 41q9 29 41 43l833 392l-667 393q-25 11 -25 31q0 6 8 43q6 24 25 24q4 0 12 -4l739 -430q25 -13 25 -33q0 -6 -6 -39q-5 -24 -39 -41l-903 -422q-32 -14 -37 -14q-14 0 -14 16z" />
<glyph unicode="?" horiz-adv-x="888" d="M127 23q0 14 4 28l23 109q7 33 41 33h47q24 0 24 -23q0 -15 -4 -31l-22 -106q-3 -15 -14 -24t-25 -9h-49q-25 0 -25 23zM217 408q0 14 4 30l25 111q5 24 26 45l250 237q95 91 147 153t83.5 133.5t31.5 150.5q0 90 -56 135t-177 45h-250q-25 0 -25 25q0 1 7 30q7 33 36 33 h218q178 0 262 -61t84 -185q0 -133 -58.5 -237t-210.5 -244l-270 -250l-31 -141q-7 -33 -39 -33h-32q-25 0 -25 23z" />
<glyph unicode="@" horiz-adv-x="1835" d="M92 457q0 211 55.5 389.5t153 307t231 219.5t290.5 135t329 44q189 0 339 -64.5t240.5 -193.5t90.5 -303q0 -298 -169.5 -485t-434.5 -187h-353q-124 0 -196 70t-72 195q0 111 38.5 202t103 149.5t146 90t169.5 31.5h237q27 0 27 -25q0 -6 -4 -26l-127 -598h47 q98 0 185 38t154 108.5t105.5 181t38.5 247.5q0 226 -156.5 353.5t-431.5 127.5q-143 0 -276 -37t-251.5 -117.5t-206 -196.5t-138.5 -284.5t-51 -371.5q0 -278 160.5 -428t439.5 -150q147 0 325 37q45 10 46 10q14 0 14 -18q0 -6 -4 -37q-3 -13 -14.5 -25t-26.5 -16 q-147 -39 -348 -39q-150 0 -276.5 40.5t-223 120.5t-151 209t-54.5 296zM700 584q0 -85 44 -130.5t130 -45.5h207l121 561h-184q-133 0 -225.5 -103.5t-92.5 -281.5z" />
<glyph unicode="A" horiz-adv-x="1249" d="M-68 20q0 5 9 23q171 425 383.5 822t420.5 671h111q98 -357 150 -715t53 -788q0 -14 -13.5 -23.5t-29.5 -9.5h-39q-31 0 -31 33q-3 184 -20 446h-682q-71 -150 -197 -446q-10 -33 -39 -33h-51q-25 0 -25 20zM289 575h629q-43 471 -140 865q-268 -400 -489 -865z" />
<glyph unicode="B" horiz-adv-x="1241" d="M63 25q0 6 5 26l311 1452q7 33 37 33h418q168 0 264 -81t96 -238q0 -144 -79 -258.5t-218 -174.5q176 -86 176 -297q0 -218 -146.5 -352.5t-371.5 -134.5h-465q-27 0 -27 25zM180 96h406q172 0 274.5 108t102.5 283q0 119 -67.5 183.5t-188.5 64.5h-390zM338 831h399 q98 0 180 54.5t127.5 143t45.5 188.5q0 114 -75.5 168.5t-203.5 54.5h-344z" />
<glyph unicode="C" horiz-adv-x="1239" d="M96 479q0 91 25 201l39 184q73 334 269 511t515 177q231 0 369 -79l-68 -306q-7 -30 -37 -30h-32q-25 0 -25 22q0 21 2 29l47 227q-39 18 -122.5 29.5t-149.5 11.5q-275 0 -440 -154t-224 -438l-41 -192q-22 -134 -22 -193q0 -399 415 -399h64q98 0 264 45q6 1 25 6.5 t24 5.5q15 0 15 -16q0 -7 -4 -23l-7 -22q-9 -31 -41 -39q-154 -53 -299 -53h-41q-255 0 -387.5 123t-132.5 372z" />
<glyph unicode="D" horiz-adv-x="1384" d="M63 25q0 6 5 26l311 1452q7 33 37 33h401q537 0 537 -457q0 -97 -19 -182l-47 -225q-32 -148 -90 -266t-147 -211t-219.5 -144t-292.5 -51h-449q-27 0 -27 25zM180 96h398q128 0 233 46t178 127t121 182t74 221l49 225q16 85 16 174q0 202 -112.5 285.5t-333.5 83.5h-336 z" />
<glyph unicode="E" horiz-adv-x="1136" d="M88 240q0 60 12 112l246 1151q7 33 37 33h727q29 0 29 -25q0 -6 -4 -18l-7 -20q-10 -33 -38 -33h-654l-123 -576h615q28 0 28 -24q0 -7 -4 -19l-6 -20q-10 -33 -39 -33h-614l-90 -424q-10 -42 -10 -88q0 -87 52.5 -123.5t153.5 -36.5h447q28 0 28 -24q0 -7 -4 -19l-6 -20 q-10 -33 -39 -33h-442q-133 0 -214 59.5t-81 180.5z" />
<glyph unicode="F" horiz-adv-x="1067" d="M63 25q0 6 5 26l245 1141q38 178 144 261t288 83h383q27 0 27 -25q0 -6 -4 -18l-4 -20q-10 -33 -39 -33h-393q-125 0 -197 -60.5t-100 -187.5l-72 -328h615q26 0 26 -24q0 -7 -4 -19l-4 -20q-10 -33 -39 -33h-614l-158 -735q-7 -33 -39 -33h-39q-27 0 -27 25z" />
<glyph unicode="G" horiz-adv-x="1359" d="M80 479q0 95 24 201l39 184q73 335 271 511.5t522 176.5q214 0 369 -67q18 -8 18 -31v-18l-4 -23q-7 -24 -27 -24q-7 0 -37 12q-155 55 -327 55q-281 0 -451.5 -154t-228.5 -438l-39 -192q-25 -127 -25 -193q0 -399 416 -399h64q71 0 171 21.5t148 41.5l121 570h-318 q-26 0 -26 22q0 9 4 25l4 16q7 33 39 33h391q27 0 27 -25q0 -12 -4 -28l-150 -676q-95 -41 -218 -68.5t-212 -27.5h-41q-255 0 -387.5 123t-132.5 372z" />
<glyph unicode="H" horiz-adv-x="1406" d="M63 25q0 6 5 26l311 1452q7 33 37 33h41q24 0 24 -25q0 -10 -4 -26l-133 -621h817l137 639q7 33 37 33h41q27 0 27 -25q0 -10 -4 -26l-312 -1452q-7 -33 -36 -33h-41q-27 0 -27 25q0 10 4 26l154 717h-817l-156 -735q-7 -33 -39 -33h-39q-27 0 -27 25z" />
<glyph unicode="I" horiz-adv-x="487" d="M63 25q0 6 5 26l311 1452q7 33 37 33h41q24 0 24 -25q0 -10 -4 -26l-309 -1452q-7 -33 -39 -33h-39q-27 0 -27 25z" />
<glyph unicode="J" horiz-adv-x="872" d="M-66 25q0 3 5 18l6 20q10 33 37 33h161q288 0 361 353l209 991h-383q-29 0 -29 24q0 7 4 19l6 20q10 33 39 33h457q27 0 27 -25q0 -3 -2 -10.5t-4.5 -18t-4.5 -18.5l-215 -1015q-42 -207 -162 -328t-323 -121h-162q-27 0 -27 25z" />
<glyph unicode="K" horiz-adv-x="1136" d="M63 25q0 6 5 26l311 1452q7 33 37 33h41q24 0 24 -25q0 -10 -4 -26l-135 -637h84l731 655q38 33 57 33h56q20 0 20 -12q0 -9 -12 -21l-768 -694l467 -776q4 -6 4 -15q0 -8 -7.5 -13t-17.5 -5h-53q-21 0 -41 33l-436 719h-104l-154 -719q-7 -33 -39 -33h-39q-27 0 -27 25z " />
<glyph unicode="L" horiz-adv-x="1007" d="M88 240q0 60 12 112l244 1151q7 33 39 33h39q27 0 27 -25q0 -6 -5 -26l-241 -1141q-10 -42 -10 -88q0 -87 52.5 -123.5t153.5 -36.5h447q28 0 28 -24q0 -7 -4 -19l-6 -20q-10 -33 -39 -33h-442q-133 0 -214 59.5t-81 180.5z" />
<glyph unicode="M" horiz-adv-x="1615" d="M63 25q0 6 5 26l311 1452q7 33 37 33h22q26 0 35 -25l358 -751l693 751q25 25 45 25h14q27 0 27 -25q0 -12 -4 -24l-310 -1454q-7 -33 -39 -33h-38q-15 0 -22.5 9t-4.5 24l272 1280l-633 -688q-17 -17 -28 -17q-12 0 -19 17l-335 700l-281 -1292q-7 -33 -39 -33h-39 q-27 0 -27 25z" />
<glyph unicode="N" horiz-adv-x="1406" d="M63 25q0 6 5 26l311 1452q7 33 37 33h16q26 0 37 -25l557 -1288l272 1280q7 33 37 33h41q27 0 27 -25q0 -10 -4 -26l-312 -1452q-7 -33 -36 -33h-15q-26 0 -37 25l-557 1288l-274 -1280q-7 -33 -39 -33h-39q-27 0 -27 25z" />
<glyph unicode="O" horiz-adv-x="1386" d="M98 487q0 99 27 248l10 66q24 130 63.5 239.5t101.5 205.5t142 163t190.5 105t241.5 38q230 0 351 -133t121 -370q0 -94 -25 -248l-12 -66q-141 -751 -754 -751q-95 0 -171 24t-129 68t-88.5 107t-52 138.5t-16.5 165.5zM203 487q0 -191 92 -299t274 -108 q115 0 210.5 34.5t163.5 93t121 143.5t86 178.5t54 205.5l13 66q24 129 24 248q0 189 -100 298t-283 109q-114 0 -207.5 -34.5t-159.5 -93t-116.5 -144t-81.5 -178t-53 -205.5l-13 -66q-24 -151 -24 -248z" />
<glyph unicode="P" horiz-adv-x="1167" d="M63 25q0 6 5 26l311 1452q7 33 37 33h379q186 0 292.5 -88.5t106.5 -263.5q0 -281 -156 -453t-428 -172h-331l-111 -526q-7 -33 -39 -33h-39q-27 0 -27 25zM299 655h342q210 0 329.5 144.5t119.5 367.5q0 136 -74 204.5t-213 68.5h-334z" />
<glyph unicode="Q" horiz-adv-x="1392" d="M98 487q0 99 27 248l10 66q26 166 81.5 299t144 236t219 159.5t294.5 56.5q230 0 351 -133t121 -370q0 -94 -25 -248l-12 -66q-132 -711 -691 -749l-24 -115q-8 -36 -8 -55q0 -105 143 -105q70 0 168 25q42 12 43 12q16 0 16 -16q0 -8 -12 -47q-9 -31 -39 -39 q-110 -31 -190 -31q-111 0 -172.5 40t-61.5 136q0 30 8 80l25 115q-211 12 -313.5 145t-102.5 356zM203 487q0 -191 92 -299t274 -108q512 0 635 655l13 66q24 129 24 248q0 189 -100 298t-283 109q-114 0 -207.5 -34t-159.5 -91.5t-116.5 -143t-82 -179t-52.5 -207.5 l-13 -66q-24 -151 -24 -248z" />
<glyph unicode="R" horiz-adv-x="1247" d="M63 25q0 6 5 26l311 1452q7 33 37 33h426q169 0 268.5 -81.5t99.5 -237.5q0 -113 -40.5 -216t-134.5 -193t-232 -136q65 -75 124.5 -254t82.5 -346q6 -42 6 -45q0 -12 -9.5 -19.5t-23.5 -7.5h-41q-28 0 -31 31q-12 156 -74.5 343.5t-129.5 266.5h-410l-129 -608 q-7 -33 -39 -33h-39q-27 0 -27 25zM317 735h357q117 0 217 64t157.5 169t57.5 224q0 123 -71.5 185.5t-200.5 62.5h-365z" />
<glyph unicode="S" horiz-adv-x="1071" d="M-2 66q0 10 4 26l8 31q7 24 25 24q6 0 14 -4q165 -63 295 -63h25q95 0 175.5 21.5t141 64t95 110.5t34.5 156q0 109 -50 175t-157 120l-143 74q-141 71 -202.5 146.5t-61.5 197.5q0 101 42.5 180.5t116 128t167 73.5t200.5 25h25q156 0 313 -53q25 -11 25 -31 q0 -2 -11 -45q-7 -26 -26 -26q-4 0 -17.5 4.5t-19.5 5.5q-128 49 -273 49h-22q-91 0 -164 -16.5t-131.5 -52t-90.5 -97t-32 -145.5q0 -80 43 -134.5t125 -99.5l154 -80q61 -32 98 -54.5t79 -58t64.5 -72.5t38 -91.5t15.5 -122.5q0 -144 -78.5 -247t-206.5 -152t-291 -49h-25 q-143 0 -294 53q-27 8 -27 29z" />
<glyph unicode="T" horiz-adv-x="1136" d="M199 1464q0 7 4 19l6 20q7 33 37 33h1032q29 0 29 -25q0 -6 -4 -18l-7 -20q-10 -33 -39 -33h-448l-299 -1407q-7 -33 -39 -33h-39q-26 0 -26 25q0 10 4 26l297 1389h-482q-26 0 -26 24z" />
<glyph unicode="U" horiz-adv-x="1378" d="M121 344q0 76 18 168l215 991q7 33 37 33h41q27 0 27 -25q0 -10 -4 -26l-217 -1006q-15 -73 -15 -119q0 -145 89.5 -212.5t246.5 -67.5q195 0 324.5 101.5t171.5 297.5l219 1024q7 33 39 33h39q26 0 26 -25q0 -10 -4 -26l-211 -973q-59 -271 -208 -399.5t-410 -128.5 q-194 0 -309 90.5t-115 269.5z" />
<glyph unicode="V" horiz-adv-x="1224" d="M250 1503q0 15 10 24t25 9h47q30 0 30 -33q0 -435 31 -765t121 -642q220 315 397.5 658.5t333.5 748.5q13 33 43 33h45q25 0 25 -20q0 -9 -8 -29q-126 -348 -347.5 -768t-449.5 -719h-111q-98 250 -145 668.5t-47 834.5z" />
<glyph unicode="W" horiz-adv-x="1781" d="M215 977q0 265 29 526q1 15 11.5 24t25.5 9h38q29 0 29 -29q0 -11 -4 -43q-25 -236 -25 -487q0 -175 2 -278.5t15.5 -270.5t40.5 -332q406 668 637 1405q10 35 41 35h35q28 0 28 -35q0 -119 -15.5 -342t-15.5 -328q0 -471 58 -735q348 562 645 1407q10 33 41 33h43 q27 0 27 -20q0 -1 -21 -64q-138 -384 -326.5 -779t-367.5 -673h-129q-39 151 -56.5 387.5t-17.5 443.5q0 218 8 314q-93 -269 -249.5 -588.5t-317.5 -556.5h-127q-82 417 -82 977z" />
<glyph unicode="X" horiz-adv-x="1112" d="M-100 14q0 6 10 19l627 751l-312 711q-6 12 -6 18q0 10 8.5 16.5t20.5 6.5h49q24 0 37 -33l274 -631l527 631q26 33 49 33h53q20 0 20 -14q0 -11 -8 -19l-600 -723l328 -747q4 -8 4 -13q0 -9 -8.5 -14.5t-20.5 -5.5h-49q-24 0 -37 33l-291 661l-548 -661q-26 -33 -52 -33 h-55q-20 0 -20 14z" />
<glyph unicode="Y" horiz-adv-x="1112" d="M213 1511q0 10 8.5 17.5t20.5 7.5h45q25 0 35 -33l253 -760l570 760q20 33 47 33h51q23 0 23 -14q0 -7 -9 -19l-657 -870l-131 -600q-1 -15 -11.5 -24t-25.5 -9h-41q-24 0 -24 25q0 10 4 26l125 590l-275 840q-8 20 -8 30z" />
<glyph unicode="Z" horiz-adv-x="1150" d="M-43 23q0 7 4 34q5 23 27 45q242 253 587 677.5t488 660.5h-766q-29 0 -29 24q0 7 4 19l7 20q10 33 36 33h859q26 0 26 -25q0 -14 -8.5 -40t-17.5 -39q-134 -214 -368 -514.5t-393.5 -487t-291.5 -334.5h803q28 0 28 -24q0 -7 -4 -19l-6 -20q-10 -33 -39 -33h-921 q-25 0 -25 23z" />
<glyph unicode="[" horiz-adv-x="591" d="M12 -233q0 4 4 24l363 1712q7 33 39 33h239q27 0 27 -23q0 -9 -6 -32q-3 -15 -14 -24t-25 -9h-178l-342 -1616h178q22 0 22 -22q0 -6 -4 -33q-7 -33 -39 -33h-239q-25 0 -25 23z" />
<glyph unicode="\" horiz-adv-x="944" d="M287 1509q0 12 8.5 19.5t21.5 7.5h21q28 0 35 -33l356 -1700q6 -30 6 -32q0 -12 -8.5 -19.5t-21.5 -7.5h-21q-28 0 -35 33l-356 1700q-6 30 -6 32z" />
<glyph unicode="]" horiz-adv-x="591" d="M-123 -233q0 9 6 32q7 33 41 33h172l344 1616h-176q-26 0 -26 22q0 18 6 33q10 33 41 33h239q25 0 25 -23q0 -11 -6 -38l-361 -1698q-7 -33 -41 -33h-237q-27 0 -27 23z" />
<glyph unicode="^" d="M61 240q0 6 7 16l606 831q23 33 47 33h29q26 0 36 -33l248 -806q10 -27 10 -33q0 -10 -9 -17.5t-21 -7.5h-33q-25 0 -35 33l-231 752l-551 -752q-23 -33 -47 -33h-33q-23 0 -23 17z" />
<glyph unicode="_" horiz-adv-x="1157" d="M-143 -66q0 10 6 33q7 33 39 33h1085q27 0 27 -23q0 -9 -6 -32q-3 -15 -14 -24t-25 -9h-1088q-24 0 -24 22z" />
<glyph unicode="`" horiz-adv-x="401" d="M96 1585q0 14 23 14h90q4 0 8.5 -1.5l7.5 -2.5t7.5 -5t6.5 -5.5t7.5 -7.5t7.5 -8l221 -242q23 -23 23 -31q0 -16 -25 -16h-8q-20 0 -53 33l-295 246q-21 16 -21 26z" />
<glyph unicode="a" horiz-adv-x="1120" d="M47 215q0 55 16 129l58 264q52 244 210 378t412 134h265q26 0 26 -22q0 -7 -4 -23l-221 -1042q-7 -33 -39 -33h-33q-26 0 -26 25q0 6 8 34l41 197l-88 -72q-3 -2 -35 -28t-39 -31.5t-37.5 -29t-44 -30.5t-42 -24.5t-48 -24t-47 -16t-54 -13t-53.5 -3.5q-103 0 -164 62 t-61 169zM143 231q0 -76 40.5 -117.5t113.5 -41.5q45 0 93 16.5t100 50.5t80 55.5t77 61.5l137 113l140 663h-203q-196 0 -328 -107.5t-178 -316.5l-55 -256q-17 -71 -17 -121z" />
<glyph unicode="b" horiz-adv-x="1130" d="M63 20q0 7 5 27l311 1456q7 33 39 33h33q24 0 24 -23q0 -8 -4 -20l-133 -629l88 72q7 5 35 28t38.5 31.5t38 29.5t43 30t42.5 25t48 24t47.5 17t53 12.5t53.5 3.5q103 0 164.5 -63t61.5 -171q0 -12 -6 -57.5t-11 -69.5l-55 -264q-52 -243 -211.5 -377.5t-413.5 -134.5 h-264q-27 0 -27 20zM172 88h207q196 0 329.5 108t176.5 316l53 256q16 67 16 121q0 76 -40 118t-111 42q-45 0 -93.5 -16.5t-101 -51.5t-80 -55.5t-77.5 -61.5l-138 -112z" />
<glyph unicode="c" horiz-adv-x="952" d="M47 272q0 58 16 136l64 297q46 212 180 322t326 110q76 0 164 -19.5t139 -52.5l-41 -201q-7 -33 -39 -33h-31q-24 0 -24 21q0 9 4 29l26 127q-77 41 -215 41q-160 0 -258.5 -88.5t-134.5 -255.5l-63 -297q-17 -79 -17 -136q0 -102 70.5 -151t185.5 -49q66 0 150.5 18 t152.5 45q12 4 15 4q12 0 12 -14q0 -6 -2 -18t-2 -17q-6 -28 -41 -45q-59 -27 -141.5 -44t-151.5 -17q-344 0 -344 288z" />
<glyph unicode="d" horiz-adv-x="1118" d="M47 215q0 55 16 129l58 264q52 244 210 378t412 134h199l82 383q10 33 41 33h31q26 0 26 -23q0 -8 -4 -20l-311 -1460q-7 -33 -39 -33h-33q-24 0 -24 20q0 11 4 27l43 207l-86 -70q-3 -2 -35 -28t-39 -31.5t-37.5 -29t-44 -30.5t-42 -24.5t-48 -24t-47 -16t-54 -13 t-53.5 -3.5q-103 0 -164 62t-61 169zM143 231q0 -76 40.5 -117.5t113.5 -41.5q45 0 93 16.5t100 50.5t80 55.5t77 61.5l135 111l142 665h-203q-196 0 -328 -107.5t-178 -316.5l-55 -256q-17 -71 -17 -121z" />
<glyph unicode="e" horiz-adv-x="999" d="M47 289q0 61 8 102l66 314q44 215 180.5 323.5t331.5 108.5q140 0 229.5 -65t89.5 -191q0 -174 -113.5 -263.5t-301.5 -89.5h-359l-26 -137q-9 -52 -9 -94q0 -118 62 -171.5t186 -53.5q160 0 311 63q12 4 19 4q3 0 6.5 -4t3.5 -10t-2.5 -19.5t-3.5 -17.5q-9 -29 -41 -43 q-131 -61 -307 -61q-158 0 -244 78t-86 227zM197 616h362q132 0 214.5 63.5t82.5 184.5q0 96 -65.5 140.5t-174.5 44.5q-163 0 -264.5 -87t-136.5 -257z" />
<glyph unicode="f" horiz-adv-x="679" d="M135 20q0 11 4 27l207 985h-172q-27 0 -27 25q0 1 7 30q7 33 39 33h172l18 80q73 336 410 336h69q27 0 27 -25q0 -5 -6 -30q-7 -33 -39 -33h-70q-240 0 -295 -248l-18 -80h266q27 0 27 -24q0 -6 -6 -31q-7 -33 -37 -33h-269l-211 -999q-7 -33 -36 -33h-33q-27 0 -27 20z " />
<glyph unicode="g" horiz-adv-x="1122" d="M-25 -360l7 32q6 31 38 31h199q214 0 344 117t176 340l11 53l-35 -20q-94 -54 -197.5 -92t-187.5 -38q-256 0 -256 281q0 38 8 88l33 168q49 255 206.5 387.5t401.5 132.5h287q26 0 26 -22q0 -7 -4 -23l-194 -907q-61 -281 -216 -417t-427 -136h-193q-27 0 -27 25z M170 344q0 -98 44.5 -145t141.5 -47q76 0 185 42.5t196 94.5l33 16l156 727h-228q-196 0 -320.5 -111t-164.5 -313l-35 -168q-8 -50 -8 -96z" />
<glyph unicode="h" horiz-adv-x="1177" d="M63 20q0 7 5 27l311 1456q7 33 39 33h33q24 0 24 -23q0 -8 -4 -20l-135 -629h2l100 80q56 45 90 69.5t88 58t103.5 49.5t97.5 16q110 0 167.5 -54.5t57.5 -162.5q0 -65 -12 -119l-166 -768q-7 -33 -39 -33h-30q-27 0 -27 20q0 11 4 27l162 754q12 58 12 102 q0 146 -143 146q-21 0 -43 -4t-47.5 -15t-45 -19t-48 -27t-43.5 -28.5t-46 -33t-40.5 -31t-41 -32.5t-34.5 -28l-101 -79l-153 -719q-7 -33 -37 -33h-33q-27 0 -27 20z" />
<glyph unicode="i" horiz-adv-x="512" d="M104 20q0 7 5 27l208 985h-170q-24 0 -24 25q0 5 4 30q7 33 39 33h233q27 0 27 -24q0 -9 -4 -29l-221 -1034q-7 -33 -39 -33h-33q-25 0 -25 20zM397 1397q0 6 4 26l17 80q7 33 39 33h30q27 0 27 -20q0 -11 -4 -27l-16 -82q-7 -31 -37 -31h-33q-27 0 -27 21z" />
<glyph unicode="j" horiz-adv-x="555" d="M-287 -360q0 5 6 32q6 31 39 31h2q162 0 261.5 105t138.5 288l200 936h-176q-26 0 -26 25q0 5 6 30q7 33 39 33h239q27 0 27 -24q0 -7 -4 -27l-201 -940q-27 -127 -65.5 -217.5t-99 -159.5t-150 -103t-209.5 -34q-27 0 -27 25zM440 1397q0 6 4 26l17 80q7 33 37 33h32 q25 0 25 -20q0 -19 -2 -27l-16 -82q-7 -31 -39 -31h-31q-27 0 -27 21z" />
<glyph unicode="k" horiz-adv-x="954" d="M63 20q0 7 5 27l311 1456q7 33 39 33h33q24 0 24 -23q0 -8 -4 -20l-180 -838h135l448 432q33 33 54 33h49q18 0 18 -12q0 -9 -12 -21l-494 -471l293 -575q9 -18 9 -23q0 -18 -27 -18h-41q-26 0 -41 33l-272 534h-138l-112 -534q-7 -33 -37 -33h-33q-27 0 -27 20z" />
<glyph unicode="l" horiz-adv-x="477" d="M70 20q0 11 4 27l299 1401h-176q-27 0 -27 25q0 5 6 30q7 33 37 33h242q24 0 24 -25q0 -6 -4 -22l-309 -1456q-7 -33 -39 -33h-31q-26 0 -26 20z" />
<glyph unicode="m" horiz-adv-x="1880" d="M63 20q0 7 5 27l221 1040q7 33 37 33h32q25 0 25 -20q0 -19 -2 -29l-45 -207l100 80q56 45 90 69.5t88 58t103.5 49.5t97.5 16q110 0 167.5 -54.5t57.5 -162.5q0 -36 -2 -56h2l101 80q53 42 89 68.5t88.5 59.5t103 49t98.5 16q109 0 167 -55t58 -162q0 -65 -12 -119 l-166 -768q-7 -33 -39 -33h-33q-25 0 -25 20q0 7 5 27l161 754q15 73 15 102q0 72 -38 109t-110 37q-21 0 -43 -4t-46.5 -15t-44 -19.5t-48 -27t-44 -28t-46 -33t-40.5 -31t-40.5 -32.5t-34.5 -28l-98 -77l-154 -721q-7 -33 -39 -33h-30q-27 0 -27 20q0 11 4 27l160 754 q12 58 12 102q0 146 -143 146q-21 0 -43 -4t-47.5 -15t-45 -19t-48 -27t-43.5 -28.5t-46 -33t-40.5 -31t-41 -32.5t-34.5 -28l-99 -79l-153 -719q-7 -33 -37 -33h-33q-27 0 -27 20z" />
<glyph unicode="n" horiz-adv-x="1175" d="M63 20q0 7 5 27l221 1040q7 33 37 33h32q25 0 25 -20q0 -19 -2 -29l-45 -207l100 80q56 45 90 69.5t88 58t103.5 49.5t97.5 16q110 0 167.5 -54.5t57.5 -162.5q0 -65 -12 -119l-166 -768q-7 -33 -39 -33h-30q-27 0 -27 20q0 11 4 27l162 754q12 58 12 102q0 146 -143 146 q-21 0 -43 -4t-47.5 -15t-45 -19t-48 -27t-43.5 -28.5t-46 -33t-40.5 -31t-41 -32.5t-34.5 -28l-99 -79l-153 -719q-7 -33 -37 -33h-33q-27 0 -27 20z" />
<glyph unicode="o" horiz-adv-x="1128" d="M63 385q0 118 24.5 228t75 205.5t121 166.5t168.5 111.5t212 40.5q172 0 266 -107t94 -295q0 -114 -24.5 -222.5t-74.5 -204t-120.5 -168t-168.5 -114.5t-212 -42q-176 0 -268.5 107.5t-92.5 293.5zM160 385q0 -142 72.5 -227.5t207.5 -85.5q115 0 210 58.5t154.5 154 t91.5 212t32 238.5q0 142 -73 228t-208 86q-93 0 -173 -38.5t-136.5 -103.5t-97.5 -150.5t-60.5 -180t-19.5 -191.5z" />
<glyph unicode="p" horiz-adv-x="1128" d="M-18 -365q0 9 4 29l301 1421q10 33 39 33h32q25 0 25 -22q0 -15 -2 -23l-45 -209l88 72q7 5 35 28t38.5 31.5t38 29.5t43 30t42.5 25t48 24t47.5 17t53 12.5t53.5 3.5q103 0 164.5 -63t61.5 -171q0 -12 -6 -57.5t-11 -69.5l-55 -264q-52 -243 -211.5 -377.5 t-413.5 -134.5h-200l-74 -352q-7 -33 -37 -33h-33q-26 0 -26 20zM170 88h207q197 0 330 107.5t176 316.5l53 256q16 67 16 121q0 76 -40 118t-111 42q-45 0 -93.5 -16.5t-101 -51.5t-80 -55.5t-77.5 -61.5l-138 -112z" />
<glyph unicode="q" horiz-adv-x="1122" d="M47 215q0 55 16 129l58 264q52 244 210 378t412 134h265q26 0 26 -24q0 -7 -4 -23l-303 -1425q-1 -15 -11.5 -24t-25.5 -9h-33q-24 0 -24 20q0 9 4 29l125 592h-2l-88 -72q-3 -2 -35 -28t-39 -31.5t-37.5 -29t-44 -30.5t-42 -24.5t-48 -24t-47 -16t-54 -13t-53.5 -3.5 q-103 0 -164 62t-61 169zM143 231q0 -76 40.5 -117.5t113.5 -41.5q45 0 93 16.5t100 50.5t80 55.5t77 61.5l137 113l140 663h-203q-196 0 -328 -107.5t-178 -316.5l-55 -256q-17 -71 -17 -121z" />
<glyph unicode="r" horiz-adv-x="727" d="M63 20q0 7 5 27l221 1040q7 33 37 33h32q25 0 25 -20q0 -19 -2 -29l-39 -182l109 102q64 62 125.5 95.5t148.5 33.5h41q27 0 27 -24q0 -2 -9 -39q-7 -33 -39 -33h-38q-119 0 -269 -143l-123 -117l-155 -731q-7 -33 -37 -33h-33q-27 0 -27 20z" />
<glyph unicode="s" horiz-adv-x="911" d="M6 43q0 6 10 49q7 27 27 27q5 0 23 -6q121 -41 245 -41q353 0 353 247q0 63 -38 114.5t-114 78.5l-168 55q-104 35 -160.5 93t-56.5 163q0 81 37 143.5t101 98.5t142 54t168 18q120 0 236 -27q23 -7 23 -27q0 -11 -5 -36q-6 -27 -28 -27q-6 0 -25.5 3.5t-23.5 4.5 q-143 21 -191 21q-71 0 -128.5 -11t-106.5 -35.5t-76 -70t-27 -109.5q0 -67 33.5 -100.5t103.5 -58.5l160 -56q42 -15 74 -30.5t64.5 -39.5t54 -52t34.5 -68.5t13 -89.5q0 -93 -37 -161.5t-102.5 -107t-146 -57t-177.5 -18.5q-152 0 -266 32q-25 9 -25 27z" />
<glyph unicode="t" horiz-adv-x="796" d="M150 1057q0 5 6 30q7 33 39 33h190l49 223q7 33 37 33h33q26 0 26 -20q0 -9 -4 -29l-45 -207h273q26 0 26 -24q0 -6 -6 -31q-7 -33 -39 -33h-272l-144 -680q-12 -55 -12 -94q0 -88 53 -129t160 -41h64q26 0 26 -25q0 -5 -6 -30q-7 -33 -39 -33h-82q-139 0 -204.5 60 t-65.5 180q0 74 16 145l138 647h-191q-26 0 -26 25z" />
<glyph unicode="u" horiz-adv-x="1167" d="M104 201q0 59 13 118l166 768q7 33 36 33h33q27 0 27 -20q0 -9 -4 -29l-162 -752q-12 -59 -12 -104q0 -143 143 -143q36 0 82 17t78.5 34.5t86.5 56.5t72 53.5t68 55.5l100 80l152 718q7 33 39 33h33q24 0 24 -20q0 -9 -4 -29l-219 -1038q-7 -33 -39 -33h-31 q-26 0 -26 20q0 11 4 27l43 207l-98 -78q-55 -44 -89.5 -69t-88.5 -58t-104 -49t-99 -16q-109 0 -166.5 54.5t-57.5 162.5z" />
<glyph unicode="v" horiz-adv-x="991" d="M104 584q0 127 17 217l57 286q7 33 37 33h33q26 0 26 -20q0 -9 -4 -29l-55 -270q-14 -86 -14 -217q0 -290 159 -504q142 117 263.5 316t169.5 405l65 286q7 33 37 33h33q26 0 26 -20q0 -9 -4 -29l-61 -270q-56 -242 -195.5 -455t-310.5 -346h-86q-93 110 -143 268.5 t-50 315.5z" />
<glyph unicode="w" horiz-adv-x="1488" d="M113 545q0 139 24 256l66 286q7 33 37 33h32q27 0 27 -20q0 -9 -4 -29l-62 -270q-24 -107 -24 -256q0 -126 30 -254.5t83 -210.5q129 130 245.5 332t153.5 372l65 303q7 33 37 33h33q27 0 27 -20q0 -9 -4 -29l-64 -287q-14 -74 -14 -239q0 -236 112 -465q298 303 392 721 l63 286q7 33 39 33h31q26 0 26 -20q0 -9 -4 -29l-59 -270q-109 -486 -457 -801h-88q-51 78 -97 232.5t-46 279.5q-62 -142 -160 -280t-209 -232h-96q-82 142 -108.5 270t-26.5 275z" />
<glyph unicode="x" horiz-adv-x="937" d="M-102 14q0 9 12 21l477 530l-242 512q-6 12 -6 21q0 22 27 22h47q25 0 41 -33l207 -440l397 440q30 33 51 33h64q18 0 18 -14q0 -8 -10 -21l-479 -528l246 -518q4 -8 4 -16q0 -23 -27 -23h-47q-26 0 -39 33l-211 442l-401 -442q-30 -33 -54 -33h-55q-20 0 -20 14z" />
<glyph unicode="y" horiz-adv-x="1185" d="M82 -360q0 5 6 32q6 31 39 31h201q95 0 169.5 24t123 62t84 96.5t54.5 116.5t34 133l14 72l-29 -17q-211 -127 -377 -127q-256 0 -256 256q0 22 4.5 54.5t9 56t11.5 57t8 39.5l121 561q1 15 11.5 24t25.5 9h33q24 0 24 -20q0 -9 -4 -29l-123 -569q-24 -106 -24 -183 q0 -89 42.5 -129t133.5 -40q82 0 187.5 41.5t197.5 95.5l24 14l172 786q7 33 39 33h31q27 0 27 -20q0 -9 -4 -29l-195 -936q-26 -127 -70 -220t-113 -162t-169.5 -103.5t-233.5 -34.5h-202q-27 0 -27 25z" />
<glyph unicode="z" horiz-adv-x="1007" d="M-33 23q0 6 2 24q6 27 27 45q201 196 461 481.5t399 458.5h-620q-25 0 -25 25q0 5 4 30q7 33 39 33h704q25 0 25 -24q0 -38 -25 -74q-120 -163 -402.5 -472t-451.5 -462h660q27 0 27 -25q0 -1 -7 -30q-7 -33 -39 -33h-753q-25 0 -25 23z" />
<glyph unicode="{" horiz-adv-x="960" d="M133 623q0 10 4 24q3 15 14.5 24t26.5 11q295 34 342 246l53 256q38 186 133 269t293 83h33q25 0 25 -23q0 -12 -4 -32q-7 -33 -41 -33h-97q-103 0 -159.5 -61t-83.5 -187l-54 -256q-30 -140 -111.5 -208.5t-207.5 -94.5q95 -23 147 -71t52 -142q0 -44 -11 -92l-53 -256 q-12 -56 -12 -105q0 -72 35.5 -107.5t115.5 -35.5h97q26 0 26 -22q0 -10 -6 -33q-7 -33 -41 -33h-31q-157 0 -224.5 51t-67.5 162q0 60 18 139l53 256q6 27 6 51q0 165 -243 195q-27 3 -27 25z" />
<glyph unicode="|" horiz-adv-x="559" d="M23 -362q0 7 6 28l417 1968q6 31 39 31h17q26 0 26 -20q0 -8 -6 -29l-418 -1968q-7 -33 -41 -33h-16q-24 0 -24 23z" />
<glyph unicode="}" horiz-adv-x="960" d="M-127 -233q0 8 6 32q7 33 39 33h96q103 0 160 61.5t84 186.5l53 256q16 76 47 130.5t75.5 88.5t91.5 53t110 33q-97 22 -150 71t-53 144q0 33 10 88l54 256q12 56 12 105q0 73 -35.5 108t-116.5 35h-96q-27 0 -27 22q0 2 7 33q7 33 41 33h30q157 0 225 -51t68 -162 q0 -59 -18 -139l-54 -256q-6 -30 -6 -56q0 -164 244 -190q25 -3 25 -25q0 -18 -2 -24q-3 -15 -14.5 -24t-26.5 -11q-297 -37 -342 -246l-54 -256q-41 -187 -135 -269.5t-291 -82.5h-32q-11 0 -18 6.5t-7 16.5z" />
<glyph unicode="~" d="M180 596q0 21 6 39q8 25 45 59q110 99 230 99q48 0 106 -21.5t103 -47.5t97 -47.5t89 -21.5q133 0 221 109q13 18 25 18q8 0 8 -10q0 -24 -6 -39q-16 -32 -43 -59q-47 -42 -109 -70.5t-123 -28.5q-48 0 -105.5 21.5t-102 47.5t-96.5 47.5t-89 21.5q-119 0 -223 -113 q-13 -16 -25 -16q-8 0 -8 12z" />
<glyph unicode="&#xa1;" horiz-adv-x="559" d="M94 25q0 11 10 47l232 985q7 30 41 30h6q27 0 27 -20q0 -1 -1.5 -6.5t-4 -18.5t-5.5 -26l-186 -983q-1 -15 -11.5 -24t-25.5 -9h-55q-27 0 -27 25zM387 1366q0 15 4 31l23 106q7 33 41 33h47q24 0 24 -23q0 -14 -4 -28l-22 -109q-3 -15 -14 -24t-25 -9h-49q-25 0 -25 23z " />
<glyph unicode="&#xa2;" d="M127 479q0 91 25 201l43 184q152 657 720 686l43 195q7 31 37 31h41q27 0 27 -25q0 -14 -8 -47l-33 -152q151 -9 264 -53q27 -9 27 -29q0 -6 -8 -49q-7 -24 -29 -24q-4 0 -13.5 3t-24 8t-21.5 7q-121 41 -254 41q-277 0 -442 -153.5t-224 -438.5l-41 -192 q-25 -127 -25 -193q0 -399 416 -399h66q96 0 248 41q53 16 63 16q16 0 16 -16q0 -6 -10 -47q-6 -28 -41 -37q-149 -50 -289 -53h-2l-45 -209q-7 -33 -37 -33h-41q-24 0 -24 25q0 9 6 47l37 172q-228 12 -347.5 135t-119.5 358z" />
<glyph unicode="&#xa3;" d="M39 25q0 5 6 38q7 33 37 33h98q181 109 240 375l63 297h-190q-27 0 -27 25q0 5 6 38q3 15 14 24t25 9h193l41 193q51 244 188 361.5t377 117.5h209q24 0 24 -25q0 -5 -8 -38q-7 -33 -37 -33h-208q-103 0 -179 -24t-127.5 -74.5t-83.5 -119t-53 -165.5l-41 -193h473 q27 0 27 -22q0 -10 -8 -41q-7 -33 -37 -33h-475l-62 -297q-28 -131 -83 -225t-156 -150h727q26 0 26 -24q0 -6 -8 -39q-7 -33 -39 -33h-928q-24 0 -24 25z" />
<glyph unicode="&#xa4;" horiz-adv-x="1024" d="M57 1071l93 94l139 -155q97 84 235 84h2q69 0 131.5 -22t104.5 -60l145 153l92 -94l-161 -145q71 -95 71 -242q0 -157 -71 -250l153 -151l-90 -90l-141 155q-44 -41 -109.5 -63.5t-130.5 -22.5q-64 0 -128 22t-105 60l-137 -151l-89 90l148 143q-33 44 -54.5 109.5 t-21.5 138.5q0 151 80 252zM279 676q0 -137 75 -211t166 -74q98 0 171 72.5t73 218.5q0 74 -27 137t-83 104.5t-132 41.5h-2q-110 0 -175.5 -82.5t-65.5 -206.5z" />
<glyph unicode="&#xa5;" d="M86 440q0 6 6 39q3 15 14 24t25 9h406l26 129l-272 832q-12 35 -12 38q0 10 8.5 17.5t19.5 7.5h47q25 0 35 -33l254 -760l569 760q26 33 50 33h51q20 0 20 -16q0 -8 -6 -17l-659 -870l-27 -121h451q26 0 26 -23q0 -9 -8 -40q-7 -33 -39 -33h-450l-82 -383q-7 -33 -39 -33 h-37q-27 0 -27 25q0 8 8 47l72 344h-403q-27 0 -27 24z" />
<glyph unicode="&#xa6;" horiz-adv-x="559" d="M23 -362q0 7 6 28l159 750q3 15 14 24t25 9h17q26 0 26 -23q0 -8 -6 -29l-160 -749q-7 -33 -41 -33h-16q-24 0 -24 23zM283 854q0 8 6 29l160 749q6 31 38 31h17q26 0 26 -21q0 -7 -6 -28l-159 -750q-7 -33 -41 -33h-17q-24 0 -24 23z" />
<glyph unicode="&#xa7;" horiz-adv-x="1087" d="M-68 -360q0 8 9 49q7 30 39 30h366q147 0 232.5 65t85.5 208q0 76 -35 131t-123 125l-352 284q-23 17 -23 39q0 14 8 64q4 22 21 22q7 0 16 -6l416 -332q184 -148 184 -327q0 -81 -26 -146.5t-69 -108t-102 -70.5t-121 -40t-130 -12h-371q-11 0 -18 7.5t-7 17.5z M313 1159q0 81 26 146.5t69 108t102 70.5t121 40t129 12h375q22 0 22 -23q0 -11 -3 -28t-3 -21q-6 -32 -39 -32h-369q-147 0 -232 -65t-85 -208q0 -75 35.5 -131t122.5 -125l352 -280q22 -19 22 -41q0 -24 -8 -64q-1 -10 -7.5 -17t-14.5 -7q-9 0 -15 6l-415 331 q-185 149 -185 328z" />
<glyph unicode="&#xa8;" horiz-adv-x="634" d="M113 1303q0 11 6 32l18 105q7 33 41 33h47q25 0 25 -23q0 -11 -6 -35l-21 -102q-7 -33 -39 -33h-49q-22 0 -22 23zM608 1303q0 11 6 32l21 105q7 33 39 33h49q22 0 22 -23q0 -11 -6 -35l-18 -102q-7 -33 -41 -33h-47q-25 0 -25 23z" />
<glyph unicode="&#xa9;" horiz-adv-x="1728" d="M96 784q0 217 100 389t275 267.5t393 95.5t393 -95.5t275 -267.5t100 -389t-100 -389t-275 -267t-393 -95t-393 95t-275 267t-100 389zM201 784q0 -140 48 -262.5t133.5 -210.5t210 -139t271.5 -51q196 0 348 87t234 237.5t82 338.5q0 187 -82 338t-234.5 238.5 t-347.5 87.5q-147 0 -271.5 -51t-210 -140t-133.5 -211t-48 -262zM496 784q0 179 120 297.5t295 118.5q86 0 166 -22q35 -9 35 -41v-17q0 -30 -22 -30q-5 0 -17 2.5t-27 6.5t-22 5q-37 8 -113 8q-141 0 -226 -91t-85 -237q0 -152 81.5 -239.5t229.5 -87.5q65 0 121 12 q13 1 33 5.5t25 4.5q22 0 22 -28v-19q0 -34 -35 -43q-82 -20 -166 -20q-187 0 -301 112t-114 303z" />
<glyph unicode="&#xaa;" horiz-adv-x="970" d="M68 827q0 36 14 99l47 204q43 188 181.5 291t357.5 103h227q20 0 20 -17q0 -12 -2 -16l-190 -805q-7 -24 -33 -24h-28q-23 0 -23 18q0 9 4 29l35 149l-72 -53q-51 -39 -75 -55.5t-74 -46t-97 -42t-98 -12.5q-89 0 -141.5 48t-52.5 130zM152 840q0 -58 34.5 -89.5 t96.5 -31.5q50 0 112.5 26.5t99.5 51t89 63.5l114 84l123 512h-176q-167 0 -280 -83t-152 -243l-47 -196q-14 -47 -14 -94z" />
<glyph unicode="&#xab;" horiz-adv-x="1200" d="M100 655q0 27 11 60q8 25 41 45l440 291q13 10 24 10q13 0 13 -14q0 -11 -11 -50q-8 -25 -43 -47l-372 -262l264 -262q20 -23 20 -41q0 -23 -6.5 -46.5t-21.5 -23.5q-8 0 -15 7l-321 296q-23 20 -23 37zM612 655q0 27 11 60q8 25 41 45l440 291q13 10 24 10q13 0 13 -14 q0 -11 -11 -50q-8 -25 -43 -47l-372 -262l264 -262q20 -23 20 -41q0 -23 -6.5 -46.5t-21.5 -23.5q-8 0 -15 7l-321 296q-23 20 -23 37z" />
<glyph unicode="&#xac;" d="M188 733q0 2 5 27q7 33 38 33h834q11 0 18 -6.5t7 -16.5q0 -3 -3 -12v-8l-79 -373q-7 -33 -37 -33h-17q-26 0 -26 25q0 10 4 28l67 316h-786q-25 0 -25 20z" />
<glyph unicode="&#xad;" horiz-adv-x="831" d="M133 733q0 10 6 35q7 33 41 33h508q27 0 27 -23q0 -10 -6 -35q-7 -30 -41 -30h-508q-27 0 -27 20z" />
<glyph unicode="&#xae;" horiz-adv-x="1728" d="M96 784q0 217 100 389t275 267.5t393 95.5t393 -95.5t275 -267.5t100 -389t-100 -389t-275 -267t-393 -95t-393 95t-275 267t-100 389zM201 784q0 -140 48 -262.5t133.5 -210.5t210 -139t271.5 -51q196 0 348 87t234 237.5t82 338.5q0 187 -82 338t-234.5 238.5 t-347.5 87.5q-147 0 -271.5 -51t-210 -140t-133.5 -211t-48 -262zM600 401v764q0 35 37 35h158q333 0 333 -256q0 -82 -36.5 -140.5t-122.5 -98.5l172 -297q8 -13 8 -21q0 -7 -8.5 -12.5t-20.5 -5.5h-53q-26 0 -45 32l-141 263h-176v-263q0 -32 -37 -32h-31q-37 0 -37 32z M705 752h143q76 0 126 49.5t50 142.5q0 81 -50 124.5t-126 43.5h-143v-360z" />
<glyph unicode="&#xaf;" horiz-adv-x="522" d="M96 1303q0 1 0.5 3t2.5 12l5 25t14 24t25 9h449q26 0 26 -22q0 -1 -0.5 -3.5l-2.5 -12.5l-5 -25q-7 -33 -41 -33h-446q-27 0 -27 23z" />
<glyph unicode="&#xb0;" horiz-adv-x="843" d="M152 915q0 82 18 168t57 169t92.5 148.5t131 105.5t167.5 40q124 0 191.5 -66.5t67.5 -191.5q0 -81 -18 -166.5t-56.5 -169.5t-92.5 -150t-133 -106.5t-171 -40.5q-117 0 -185.5 68t-68.5 192zM252 915q0 -88 44 -133t120 -45q101 0 184 73.5t130.5 200t47.5 277.5 q0 95 -43.5 134.5t-126.5 39.5q-99 0 -181 -73.5t-128.5 -199t-46.5 -274.5z" />
<glyph unicode="&#xb1;" d="M23 -57q0 6 4 24q7 33 39 33h831q27 0 27 -23q0 -6 -4 -24q-3 -15 -14 -24t-25 -9h-834q-24 0 -24 23zM188 733q0 2 5 27q7 33 38 33h375l82 374q7 33 37 33h16q27 0 27 -24q0 -11 -4 -29l-76 -354h377q11 0 18 -6.5t7 -16.5q0 -2 -5 -27q-7 -30 -38 -30h-377l-80 -377 q-7 -33 -37 -33h-16q-27 0 -27 25q0 10 4 30l76 355h-377q-25 0 -25 20z" />
<glyph unicode="&#xb2;" horiz-adv-x="843" d="M121 694q0 7 4 27l6 45q15 82 68 141t188 119l127 55q109 49 167 111.5t58 128.5t-52.5 98.5t-141.5 32.5h-234q-13 0 -22.5 8.5t-9.5 20.5q0 8 4 28q7 27 41 27h211q146 0 224.5 -58.5t78.5 -156.5q0 -108 -78 -182t-236 -142l-88 -36q-116 -51 -164.5 -95t-48.5 -114 v-4h492q33 0 33 -25q0 -1 -0.5 -3t-1.5 -10t-3 -18q-6 -28 -41 -28h-550q-31 0 -31 30z" />
<glyph unicode="&#xb3;" horiz-adv-x="825" d="M82 688q0 5 6 29q9 31 41 31h231q158 0 234 53t76 160q0 60 -53.5 96.5t-139.5 36.5h-149q-14 0 -22.5 7t-8.5 19q0 15 4 31q6 25 39 25h195q85 32 130.5 72t45.5 95q0 109 -181 109h-227q-14 0 -23.5 8.5t-9.5 20.5q0 8 4 24q6 31 39 31h224q133 0 203.5 -51.5 t70.5 -141.5q0 -59 -43 -113.5t-125 -88.5q63 -27 93 -69.5t30 -110.5q0 -64 -23 -116t-72 -93.5t-133.5 -64.5t-199.5 -23h-219q-37 0 -37 24z" />
<glyph unicode="&#xb4;" horiz-adv-x="401" d="M104 1296q0 8 23 31l221 242q2 2 7.5 8t7.5 7.5t6.5 5.5t7.5 5l7.5 2.5t8.5 1.5h90q23 0 23 -14q0 -10 -21 -26l-295 -246q-33 -33 -53 -33h-10q-23 0 -23 16z" />
<glyph unicode="&#xb5;" horiz-adv-x="1171" d="M-18 -365q0 9 4 29l303 1423q7 33 37 33h32q25 0 25 -20q0 -19 -2 -29l-164 -752q-10 -65 -10 -104q0 -143 143 -143q36 0 82 17t78.5 34.5t86.5 56.5t72 53.5t68 55.5l97 78l155 720q7 33 39 33h33q24 0 24 -20q0 -9 -4 -29l-174 -815q-16 -76 -16 -150q0 -35 4 -51 q0 -7 2 -17.5t2 -12.5q0 -10 -8.5 -17.5t-20.5 -7.5h-32q-25 0 -35 33q-6 27 -6 76q0 79 12 145l-94 -78q-74 -58 -121.5 -92t-122 -67t-137.5 -33q-121 0 -168 79l-88 -415q-7 -33 -37 -33h-33q-26 0 -26 20z" />
<glyph unicode="&#xb6;" horiz-adv-x="1312" d="M129 815q0 201 79 365.5t222 260t322 95.5h295q22 0 22 -23l-1 -9q-1 -10 -1 -15l-391 -1841q-3 -15 -14 -24t-25 -9h-41q-25 0 -25 23q0 4 7 38l149 709h-127q-229 0 -350 108.5t-121 321.5zM850 -362q0 9 6 38l387 1827q7 33 41 33h39q25 0 25 -23q0 -5 -7 -36 l-387 -1829q-7 -33 -41 -33h-39q-24 0 -24 23z" />
<glyph unicode="&#xb7;" horiz-adv-x="559" d="M231 662q0 10 5 30l22 109q7 30 41 30h47q25 0 25 -20q0 -15 -4 -31l-23 -108q-7 -33 -41 -33h-47q-25 0 -25 23z" />
<glyph unicode="&#xb8;" horiz-adv-x="442" d="M-248 -360q0 6 4 24q7 33 37 33h201q54 0 91.5 29t37.5 81q0 74 -80 121v25h55q43 -23 70 -61.5t27 -84.5q0 -85 -64 -138.5t-176 -53.5h-176q-27 0 -27 25z" />
<glyph unicode="&#xb9;" horiz-adv-x="843" d="M276 1354q0 2 9 37q8 23 37 32l323 109q16 4 27 4h12q35 0 35 -27q0 -5 -10 -41l-195 -776q-6 -28 -43 -28h-22q-37 0 -37 26q0 9 10 39l178 698l-270 -88q-24 -8 -31 -8q-9 0 -16 6.5t-7 16.5z" />
<glyph unicode="&#xba;" horiz-adv-x="976" d="M76 961q0 114 34 216.5t97 183t162.5 128t222.5 47.5q149 0 229 -81.5t80 -225.5q0 -88 -21 -171.5t-64 -157.5t-103 -130t-145 -88.5t-183 -32.5q-152 0 -230.5 83.5t-78.5 228.5zM158 961q0 -112 62 -177t179 -65q99 0 180.5 44.5t132 118t78 163t27.5 184.5 q0 109 -62 174t-177 65q-100 0 -181.5 -44.5t-132.5 -117.5t-78.5 -162.5t-27.5 -182.5z" />
<glyph unicode="&#xbb;" horiz-adv-x="1200" d="M59 330q0 10 11 49q8 25 43 47l372 262l-264 262q-20 23 -20 39q0 25 6.5 48.5t21.5 23.5q9 0 15 -6l321 -297q23 -20 23 -37q0 -29 -10 -59q-7 -22 -41 -46l-441 -290q-15 -11 -24 -11q-13 0 -13 15zM571 330q0 10 11 49q8 25 43 47l372 262l-264 262q-20 23 -20 39 q0 25 6.5 48.5t21.5 23.5q9 0 15 -6l321 -297q23 -20 23 -37q0 -29 -10 -59q-7 -22 -41 -46l-441 -290q-15 -11 -24 -11q-13 0 -13 15z" />
<glyph unicode="&#xbc;" horiz-adv-x="1921" d="M164 1354q0 6 8 37q8 23 39 32l324 109q16 4 24 4h12q35 0 35 -27q0 -5 -10 -41l-195 -776q-6 -28 -41 -28h-24q-37 0 -37 26q0 9 10 39l178 698l-270 -88q-20 -8 -29 -8q-24 0 -24 23zM543 14q0 5 4 13l751 1482q15 27 35 27h23q22 0 22 -14q0 -5 -4 -13l-751 -1482 q-15 -27 -37 -27h-23q-20 0 -20 14zM1057 246q0 5 4 28q4 21 22 39q130 146 224.5 275t148.5 260q9 24 37 24h27q34 0 34 -24q0 -5 -4 -17q-88 -208 -364 -528h346l63 246q9 31 43 31h25q33 0 33 -25q0 -11 -6 -29l-56 -223h113q31 0 31 -24q0 -6 -6 -33t-41 -27h-119 l-49 -188q-9 -31 -39 -31h-29q-13 0 -23 7t-10 20q0 2 8 30l41 162h-424q-30 0 -30 27z" />
<glyph unicode="&#xbd;" horiz-adv-x="1921" d="M164 1354q0 6 8 37q8 23 39 32l324 109q16 4 24 4h12q35 0 35 -27q0 -5 -10 -41l-195 -776q-6 -28 -41 -28h-24q-37 0 -37 26q0 9 10 39l178 698l-270 -88q-20 -8 -29 -8q-24 0 -24 23zM543 14q0 5 4 13l751 1482q15 27 35 27h23q22 0 22 -14q0 -5 -4 -13l-751 -1482 q-15 -27 -37 -27h-23q-20 0 -20 14zM1057 31q0 4 4 24l6 47q15 82 68 141t188 119l127 56q108 47 166.5 109t58.5 128q0 68 -52.5 100.5t-141.5 32.5h-234q-13 0 -23 8t-10 19q0 2 5 31q7 26 41 26h210q146 0 225 -59t79 -158q0 -106 -77.5 -179.5t-236.5 -141.5l-88 -37 q-116 -51 -164.5 -95t-48.5 -114v-4h492q32 0 32 -27q0 -5 -4 -28q-6 -29 -41 -29h-551q-30 0 -30 31z" />
<glyph unicode="&#xbe;" horiz-adv-x="1921" d="M61 688q0 1 7 29q9 31 43 31h229q159 0 234 53t75 160q0 60 -52.5 96.5t-137.5 36.5h-152q-13 0 -22 7t-9 19q0 3 7 31q6 25 36 25h195q85 31 130.5 71t45.5 96q0 109 -180 109h-225q-15 0 -25 8.5t-10 20.5q0 8 4 24q6 31 41 31h221q133 0 204 -52t71 -141 q0 -59 -42.5 -113.5t-123.5 -88.5q61 -27 90.5 -69.5t29.5 -110.5q0 -134 -102 -215.5t-326 -81.5h-219q-37 0 -37 24zM543 14q0 5 4 13l751 1482q15 27 35 27h23q22 0 22 -14q0 -5 -4 -13l-751 -1482q-15 -27 -37 -27h-23q-20 0 -20 14zM1057 246q0 5 4 28q4 21 22 39 q130 146 224.5 275t148.5 260q9 24 37 24h27q34 0 34 -24q0 -5 -4 -17q-88 -208 -364 -528h346l63 246q9 31 43 31h25q33 0 33 -25q0 -11 -6 -29l-56 -223h113q31 0 31 -24q0 -6 -6 -33t-41 -27h-119l-49 -188q-9 -31 -39 -31h-29q-13 0 -23 7t-10 20q0 2 8 30l41 162h-424 q-30 0 -30 27z" />
<glyph unicode="&#xbf;" horiz-adv-x="888" d="M47 246q0 133 58 237t210 244l271 250l30 141q3 15 14 24t25 9h33q25 0 25 -23q0 -14 -4 -30l-25 -111q-4 -23 -27 -45l-249 -237q-143 -136 -203 -229.5t-60 -207.5q0 -90 57 -135t179 -45h248q24 0 24 -25q0 -5 -6 -30q-7 -33 -37 -33h-217q-178 0 -262 61t-84 185z M664 1366q0 15 4 31l22 106q3 15 14 24t25 9h49q25 0 25 -23q0 -14 -4 -28l-23 -109q-7 -33 -41 -33h-47q-24 0 -24 23z" />
<glyph unicode="&#xc0;" horiz-adv-x="1249" d="M-68 20q0 5 9 23q171 425 383.5 822t420.5 671h111q98 -357 150 -715t53 -788q0 -14 -13.5 -23.5t-29.5 -9.5h-39q-31 0 -31 33q-3 184 -20 446h-682q-71 -150 -197 -446q-10 -33 -39 -33h-51q-25 0 -25 20zM289 575h629q-43 471 -140 865q-268 -400 -489 -865zM655 2003 q0 12 23 12h90q22 0 45 -30l223 -240q23 -26 23 -33q0 -16 -25 -16h-10q-21 0 -51 33l-297 245q-21 16 -21 29z" />
<glyph unicode="&#xc1;" horiz-adv-x="1249" d="M-68 20q0 5 9 23q171 425 383.5 822t420.5 671h111q98 -357 150 -715t53 -788q0 -14 -13.5 -23.5t-29.5 -9.5h-39q-31 0 -31 33q-3 184 -20 446h-682q-71 -150 -197 -446q-10 -33 -39 -33h-51q-25 0 -25 20zM289 575h629q-43 471 -140 865q-268 -400 -489 -865zM664 1712 q0 9 22 33l221 240q27 30 47 30h90q23 0 23 -12q0 -13 -20 -29l-297 -245q-13 -13 -18.5 -18t-15 -10t-18.5 -5h-10q-24 0 -24 16z" />
<glyph unicode="&#xc2;" horiz-adv-x="1249" d="M-68 20q0 5 9 23q171 425 383.5 822t420.5 671h111q98 -357 150 -715t53 -788q0 -14 -13.5 -23.5t-29.5 -9.5h-39q-31 0 -31 33q-3 184 -20 446h-682q-71 -150 -197 -446q-10 -33 -39 -33h-51q-25 0 -25 20zM289 575h629q-43 471 -140 865q-268 -400 -489 -865zM489 1708 q0 9 15 21l280 256q38 30 60 30h84q21 0 41 -30l170 -256q6 -9 6 -15q0 -18 -25 -18h-28q-9 0 -17.5 5t-12.5 9.5t-15 18.5l-175 231l-272 -231q-41 -33 -61 -33h-31q-19 0 -19 12z" />
<glyph unicode="&#xc3;" horiz-adv-x="1249" d="M-68 20q0 5 9 23q171 425 383.5 822t420.5 671h111q98 -357 150 -715t53 -788q0 -14 -13.5 -23.5t-29.5 -9.5h-39q-31 0 -31 33q-3 184 -20 446h-682q-71 -150 -197 -446q-10 -33 -39 -33h-51q-25 0 -25 20zM289 575h629q-43 471 -140 865q-268 -400 -489 -865zM469 1718 l6 49q5 26 47 68q96 100 209 100q33 0 63.5 -16.5t53 -39.5t44.5 -46.5t48.5 -40t54.5 -16.5q53 0 109.5 40.5t95.5 92.5q13 18 23 18q8 0 8 -12l-8 -57q-4 -20 -47 -66q-38 -40 -92 -68t-111 -28q-38 0 -76 25t-64 54.5t-62 54.5t-71 25q-102 0 -200 -135q-15 -18 -23 -18 t-8 16z" />
<glyph unicode="&#xc4;" horiz-adv-x="1249" d="M-68 20q0 5 9 23q171 425 383.5 822t420.5 671h111q98 -357 150 -715t53 -788q0 -14 -13.5 -23.5t-29.5 -9.5h-39q-31 0 -31 33q-3 184 -20 446h-682q-71 -150 -197 -446q-10 -33 -39 -33h-51q-25 0 -25 20zM289 575h629q-43 471 -140 865q-268 -400 -489 -865zM549 1718 q0 12 6 33l18 104q7 33 41 33h48q24 0 24 -22q0 -11 -6 -35l-21 -102q-7 -33 -38 -33h-50q-22 0 -22 22zM1044 1718q0 8 7 33l20 104q7 33 39 33h49q23 0 23 -22q0 -11 -6 -35l-19 -102q-7 -33 -41 -33h-47q-25 0 -25 22z" />
<glyph unicode="&#xc5;" horiz-adv-x="1249" d="M-68 20q0 5 9 23q171 425 383.5 822t420.5 671h111q98 -357 150 -715t53 -788q0 -14 -13.5 -23.5t-29.5 -9.5h-39q-31 0 -31 33q-3 184 -20 446h-682q-71 -150 -197 -446q-10 -33 -39 -33h-51q-25 0 -25 20zM289 575h629q-43 471 -140 865q-268 -400 -489 -865zM653 1864 q0 108 73 177.5t192 69.5q89 0 140.5 -46.5t51.5 -120.5q0 -98 -70 -173t-194 -75q-89 0 -141 47t-52 121zM717 1880q0 -69 37 -103t100 -34q81 0 137 51t56 133q0 69 -37.5 103t-100.5 34q-81 0 -136.5 -51t-55.5 -133z" />
<glyph unicode="&#xc6;" horiz-adv-x="1769" d="M-74 20q0 9 4 17q169 401 394 811.5t430 687.5h991q27 0 27 -25q0 -3 -5 -18l-6 -20q-10 -33 -37 -33h-655l-123 -576h617q26 0 26 -24q0 -7 -4 -19l-6 -20q-7 -33 -37 -33h-616l-90 -424q-11 -46 -11 -88q0 -87 53 -123.5t156 -36.5h447q26 0 26 -24q0 -7 -4 -19l-6 -20 q-7 -33 -37 -33h-442q-133 0 -214 59.5t-81 180.5q0 68 10 112l27 127h-522q-99 -209 -197 -446q-13 -33 -41 -33h-49q-25 0 -25 20zM285 575h495l187 865h-181q-290 -432 -501 -865z" />
<glyph unicode="&#xc7;" horiz-adv-x="1239" d="M96 479q0 91 25 201l39 184q73 334 269 511t515 177q231 0 369 -79l-68 -306q-7 -30 -37 -30h-32q-25 0 -25 22q0 21 2 29l47 227q-39 18 -122.5 29.5t-149.5 11.5q-275 0 -440 -154t-224 -438l-41 -192q-22 -134 -22 -193q0 -399 415 -399h64q98 0 264 45q6 1 25 6.5 t24 5.5q15 0 15 -16q0 -7 -4 -23l-7 -22q-9 -31 -41 -39q-154 -53 -299 -53h-41q-255 0 -387.5 123t-132.5 372zM258 -360q0 6 4 24q7 33 37 33h201q54 0 91.5 29t37.5 81q0 74 -80 121v25h55q43 -23 69.5 -61.5t26.5 -84.5q0 -85 -63.5 -138.5t-175.5 -53.5h-176 q-27 0 -27 25z" />
<glyph unicode="&#xc8;" horiz-adv-x="1136" d="M88 240q0 60 12 112l246 1151q7 33 37 33h727q29 0 29 -25q0 -6 -4 -18l-7 -20q-10 -33 -38 -33h-654l-123 -576h615q28 0 28 -24q0 -7 -4 -19l-6 -20q-10 -33 -39 -33h-614l-90 -424q-10 -42 -10 -88q0 -87 52.5 -123.5t153.5 -36.5h447q28 0 28 -24q0 -7 -4 -19l-6 -20 q-10 -33 -39 -33h-442q-133 0 -214 59.5t-81 180.5zM543 2003q0 12 20 12h90q20 0 47 -30l222 -240q22 -24 22 -33q0 -16 -24 -16h-11q-18 0 -51 33l-297 245q-18 16 -18 29z" />
<glyph unicode="&#xc9;" horiz-adv-x="1136" d="M88 240q0 60 12 112l246 1151q7 33 37 33h727q29 0 29 -25q0 -6 -4 -18l-7 -20q-10 -33 -38 -33h-654l-123 -576h615q28 0 28 -24q0 -7 -4 -19l-6 -20q-10 -33 -39 -33h-614l-90 -424q-10 -42 -10 -88q0 -87 52.5 -123.5t153.5 -36.5h447q28 0 28 -24q0 -7 -4 -19l-6 -20 q-10 -33 -39 -33h-442q-133 0 -214 59.5t-81 180.5zM623 1712q0 9 22 31l221 242q2 2 7.5 8t7.5 7.5t6.5 5.5t7.5 5l7.5 2.5t8.5 1.5h90q23 0 23 -14q0 -11 -20 -27l-295 -245q-33 -33 -54 -33h-10q-22 0 -22 16z" />
<glyph unicode="&#xca;" horiz-adv-x="1136" d="M88 240q0 60 12 112l246 1151q7 33 37 33h727q29 0 29 -25q0 -6 -4 -18l-7 -20q-10 -33 -38 -33h-654l-123 -576h615q28 0 28 -24q0 -7 -4 -19l-6 -20q-10 -33 -39 -33h-614l-90 -424q-10 -42 -10 -88q0 -87 52.5 -123.5t153.5 -36.5h447q28 0 28 -24q0 -7 -4 -19l-6 -20 q-10 -33 -39 -33h-442q-133 0 -214 59.5t-81 180.5zM440 1708q0 9 15 21l280 256q38 30 60 30h84q21 0 41 -30l170 -256q6 -9 6 -15q0 -18 -25 -18h-29q-9 0 -17.5 5t-12.5 9.5t-15 18.5l-174 231l-272 -231q-41 -33 -62 -33h-30q-19 0 -19 12z" />
<glyph unicode="&#xcb;" horiz-adv-x="1136" d="M88 240q0 60 12 112l246 1151q7 33 37 33h727q29 0 29 -25q0 -6 -4 -18l-7 -20q-10 -33 -38 -33h-654l-123 -576h615q28 0 28 -24q0 -7 -4 -19l-6 -20q-10 -33 -39 -33h-614l-90 -424q-10 -42 -10 -88q0 -87 52.5 -123.5t153.5 -36.5h447q28 0 28 -24q0 -7 -4 -19l-6 -20 q-10 -33 -39 -33h-442q-133 0 -214 59.5t-81 180.5zM467 1718q0 5 4 33l21 104q7 33 40 33h48q24 0 24 -22q0 -12 -6 -33l-20 -104q-3 -15 -14 -24t-25 -9h-50q-22 0 -22 22zM963 1718q0 12 6 33l18 104q7 33 41 33h47q25 0 25 -22q0 -12 -6 -33l-21 -104q-7 -33 -39 -33 h-49q-22 0 -22 22z" />
<glyph unicode="&#xcc;" horiz-adv-x="487" d="M63 25q0 6 5 26l311 1452q7 33 37 33h41q24 0 24 -25q0 -10 -4 -26l-309 -1452q-7 -33 -39 -33h-39q-27 0 -27 25zM279 2003q0 12 20 12h90q20 0 47 -30l221 -240q23 -26 23 -33q0 -16 -25 -16h-10q-18 0 -51 33l-295 245q-20 16 -20 29z" />
<glyph unicode="&#xcd;" horiz-adv-x="487" d="M63 25q0 6 5 26l311 1452q7 33 37 33h41q24 0 24 -25q0 -10 -4 -26l-309 -1452q-7 -33 -39 -33h-39q-27 0 -27 25zM317 1712q0 7 23 33l221 240q27 30 47 30h90q23 0 23 -12q0 -13 -21 -29l-297 -245q-28 -28 -40 -32q-5 -1 -11 -1h-10q-25 0 -25 16z" />
<glyph unicode="&#xce;" horiz-adv-x="487" d="M63 25q0 6 5 26l311 1452q7 33 37 33h41q24 0 24 -25q0 -10 -4 -26l-309 -1452q-7 -33 -39 -33h-39q-27 0 -27 25zM150 1708q0 10 14 21l280 256q38 30 60 30h84q21 0 41 -30l170 -256q6 -9 6 -15q0 -18 -25 -18h-28q-9 0 -17.5 5t-12.5 9.5t-15 18.5l-175 231l-272 -231 q-41 -33 -61 -33h-31q-18 0 -18 12z" />
<glyph unicode="&#xcf;" horiz-adv-x="487" d="M63 25q0 6 5 26l311 1452q7 33 37 33h41q24 0 24 -25q0 -10 -4 -26l-309 -1452q-7 -33 -39 -33h-39q-27 0 -27 25zM162 1718q0 12 6 33l20 104q3 15 14 24t25 9h49q23 0 23 -22q0 -19 -4 -33l-21 -104q-7 -33 -41 -33h-47q-24 0 -24 22zM657 1718q0 8 7 33l20 104 q7 33 41 33h47q25 0 25 -22q0 -12 -6 -33l-21 -104q-7 -33 -41 -33h-47q-25 0 -25 22z" />
<glyph unicode="&#xd0;" horiz-adv-x="1384" d="M63 25q0 6 5 26l161 758h-98q-27 0 -27 22q0 4 5 19l4 14q9 31 37 31h98l131 608q7 33 37 33h401q537 0 537 -457q0 -97 -19 -182l-47 -225q-32 -148 -90 -266t-147 -211t-219.5 -144t-292.5 -51h-449q-27 0 -27 25zM180 96h398q128 0 233 46t178 127t121 182t74 221 l49 225q16 85 16 174q0 202 -112.5 285.5t-333.5 83.5h-336l-117 -545h244q29 0 29 -23q0 -3 -5 -18l-4 -14q-9 -31 -39 -31h-243z" />
<glyph unicode="&#xd1;" horiz-adv-x="1406" d="M63 25q0 6 5 26l311 1452q7 33 37 33h16q26 0 37 -25l557 -1288l272 1280q7 33 37 33h41q27 0 27 -25q0 -10 -4 -26l-312 -1452q-7 -33 -36 -33h-15q-26 0 -37 25l-557 1288l-274 -1280q-7 -33 -39 -33h-39q-27 0 -27 25zM573 1718l7 49q5 26 47 68q96 100 209 100 q33 0 63.5 -16.5t53 -39.5t44.5 -46.5t48.5 -40t54.5 -16.5q53 0 109.5 40.5t95.5 92.5q13 18 22 18q8 0 8 -12l-8 -57q-4 -20 -47 -66q-38 -40 -92 -68t-111 -28q-38 0 -75.5 25t-64 54.5t-62 54.5t-70.5 25q-103 0 -201 -135q-15 -18 -22 -18q-9 0 -9 16z" />
<glyph unicode="&#xd2;" horiz-adv-x="1386" d="M98 487q0 99 27 248l10 66q24 130 63.5 239.5t101.5 205.5t142 163t190.5 105t241.5 38q230 0 351 -133t121 -370q0 -94 -25 -248l-12 -66q-141 -751 -754 -751q-95 0 -171 24t-129 68t-88.5 107t-52 138.5t-16.5 165.5zM203 487q0 -191 92 -299t274 -108 q115 0 210.5 34.5t163.5 93t121 143.5t86 178.5t54 205.5l13 66q24 129 24 248q0 189 -100 298t-283 109q-114 0 -207.5 -34.5t-159.5 -93t-116.5 -144t-81.5 -178t-53 -205.5l-13 -66q-24 -151 -24 -248zM723 2003q0 12 20 12h91q20 0 47 -30l221 -240q22 -24 22 -33 q0 -16 -24 -16h-10q-9 0 -18.5 5t-15 10t-18.5 18l-297 245q-18 16 -18 29z" />
<glyph unicode="&#xd3;" horiz-adv-x="1386" d="M98 487q0 99 27 248l10 66q24 130 63.5 239.5t101.5 205.5t142 163t190.5 105t241.5 38q230 0 351 -133t121 -370q0 -94 -25 -248l-12 -66q-141 -751 -754 -751q-95 0 -171 24t-129 68t-88.5 107t-52 138.5t-16.5 165.5zM203 487q0 -191 92 -299t274 -108 q115 0 210.5 34.5t163.5 93t121 143.5t86 178.5t54 205.5l13 66q24 129 24 248q0 189 -100 298t-283 109q-114 0 -207.5 -34.5t-159.5 -93t-116.5 -144t-81.5 -178t-53 -205.5l-13 -66q-24 -151 -24 -248zM745 1712q0 7 23 33l221 240q27 30 47 30h90q23 0 23 -12 q0 -13 -21 -29l-297 -245l-5 -5q-30 -26 -46 -28h-10q-25 0 -25 16z" />
<glyph unicode="&#xd4;" horiz-adv-x="1386" d="M98 487q0 99 27 248l10 66q24 130 63.5 239.5t101.5 205.5t142 163t190.5 105t241.5 38q230 0 351 -133t121 -370q0 -94 -25 -248l-12 -66q-141 -751 -754 -751q-95 0 -171 24t-129 68t-88.5 107t-52 138.5t-16.5 165.5zM203 487q0 -191 92 -299t274 -108 q115 0 210.5 34.5t163.5 93t121 143.5t86 178.5t54 205.5l13 66q24 129 24 248q0 189 -100 298t-283 109q-114 0 -207.5 -34.5t-159.5 -93t-116.5 -144t-81.5 -178t-53 -205.5l-13 -66q-24 -151 -24 -248zM578 1708q0 10 14 21l280 256q38 30 60 30h84q21 0 41 -30l170 -256 q6 -9 6 -15q0 -18 -25 -18h-28q-9 0 -17.5 5t-12.5 9.5t-15 18.5l-174 231l-273 -231q-41 -33 -61 -33h-31q-18 0 -18 12z" />
<glyph unicode="&#xd5;" horiz-adv-x="1386" d="M98 487q0 99 27 248l10 66q24 130 63.5 239.5t101.5 205.5t142 163t190.5 105t241.5 38q230 0 351 -133t121 -370q0 -94 -25 -248l-12 -66q-141 -751 -754 -751q-95 0 -171 24t-129 68t-88.5 107t-52 138.5t-16.5 165.5zM203 487q0 -191 92 -299t274 -108 q115 0 210.5 34.5t163.5 93t121 143.5t86 178.5t54 205.5l13 66q24 129 24 248q0 189 -100 298t-283 109q-114 0 -207.5 -34.5t-159.5 -93t-116.5 -144t-81.5 -178t-53 -205.5l-13 -66q-24 -151 -24 -248zM565 1718l6 49q5 26 47 68q96 100 209 100q33 0 63.5 -16.5 t53.5 -39.5t45 -46.5t48.5 -40t54.5 -16.5q53 0 109 40.5t95 92.5q13 18 23 18q8 0 8 -12l-8 -57q-4 -20 -47 -66q-38 -40 -92 -68t-111 -28q-38 0 -75.5 25t-64 54.5t-62 54.5t-70.5 25q-103 0 -201 -135q-15 -18 -23 -18t-8 16z" />
<glyph unicode="&#xd6;" horiz-adv-x="1386" d="M98 487q0 99 27 248l10 66q24 130 63.5 239.5t101.5 205.5t142 163t190.5 105t241.5 38q230 0 351 -133t121 -370q0 -94 -25 -248l-12 -66q-141 -751 -754 -751q-95 0 -171 24t-129 68t-88.5 107t-52 138.5t-16.5 165.5zM203 487q0 -191 92 -299t274 -108 q115 0 210.5 34.5t163.5 93t121 143.5t86 178.5t54 205.5l13 66q24 129 24 248q0 189 -100 298t-283 109q-114 0 -207.5 -34.5t-159.5 -93t-116.5 -144t-81.5 -178t-53 -205.5l-13 -66q-24 -151 -24 -248zM598 1718q0 12 6 33l19 104q7 33 41 33h47q24 0 24 -22 q0 -11 -6 -35l-20 -102q-7 -33 -39 -33h-49q-23 0 -23 22zM1094 1718q0 12 6 33l20 104q7 33 39 33h49q23 0 23 -22q0 -11 -6 -35l-19 -102q-7 -33 -41 -33h-47q-24 0 -24 22z" />
<glyph unicode="&#xd7;" d="M264 459q0 12 17 26l321 267l-209 266q-6 9 -6 16q0 18 16 31l13 8q13 10 26 10q11 0 21 -10l207 -266l323 266q13 10 25 10q9 0 22 -10l9 -8q6 -9 6 -18q0 -15 -17 -29l-323 -266l209 -267q6 -9 6 -16q0 -15 -17 -29l-12 -10q-10 -10 -24 -10q-13 0 -21 10l-209 266 l-323 -266q-10 -10 -25 -10q-13 0 -20 10l-9 10q-6 9 -6 19z" />
<glyph unicode="&#xd8;" horiz-adv-x="1392" d="M98 14q0 8 8 19l84 110q-92 129 -92 344q0 99 27 248l10 66q25 132 64.5 242t101.5 206t142 162t189.5 103.5t241.5 37.5q204 0 322 -106l45 57q26 33 49 33h35q23 0 23 -14q0 -7 -9 -19l-90 -117q97 -129 97 -337q0 -94 -25 -248l-12 -66q-140 -751 -754 -751 q-199 0 -311 100l-39 -51q-26 -33 -49 -33h-35q-23 0 -23 14zM203 487q0 -155 57 -254l868 1125q-98 98 -270 98q-114 0 -207.5 -34t-159.5 -91.5t-116.5 -143t-82 -179t-52.5 -207.5l-13 -66q-24 -151 -24 -248zM311 170q93 -90 258 -90q512 0 635 655l13 66q24 129 24 248 q0 149 -61 247z" />
<glyph unicode="&#xd9;" horiz-adv-x="1376" d="M104 344q0 76 21 168l213 991q7 33 39 33h39q26 0 26 -25q0 -10 -4 -26l-217 -1006q-12 -59 -12 -119q0 -145 88.5 -212.5t247.5 -67.5q195 0 323 101t170 298l219 1024q7 33 39 33h39q27 0 27 -25q0 -10 -4 -26l-209 -973q-60 -272 -209.5 -400t-411.5 -128 q-194 0 -309 90.5t-115 269.5zM711 2003q0 12 20 12h90q20 0 47 -30l222 -240q22 -24 22 -33q0 -16 -25 -16h-10q-18 0 -51 33l-297 245q-18 16 -18 29z" />
<glyph unicode="&#xda;" horiz-adv-x="1376" d="M104 344q0 76 21 168l213 991q7 33 39 33h39q26 0 26 -25q0 -10 -4 -26l-217 -1006q-12 -59 -12 -119q0 -145 88.5 -212.5t247.5 -67.5q195 0 323 101t170 298l219 1024q7 33 39 33h39q27 0 27 -25q0 -10 -4 -26l-209 -973q-60 -272 -209.5 -400t-411.5 -128 q-194 0 -309 90.5t-115 269.5zM725 1712q0 7 23 33l223 240q23 30 45 30h90q22 0 22 -12q0 -13 -20 -29l-297 -245q-30 -33 -51 -33h-10q-25 0 -25 16z" />
<glyph unicode="&#xdb;" horiz-adv-x="1376" d="M104 344q0 76 21 168l213 991q7 33 39 33h39q26 0 26 -25q0 -10 -4 -26l-217 -1006q-12 -59 -12 -119q0 -145 88.5 -212.5t247.5 -67.5q195 0 323 101t170 298l219 1024q7 33 39 33h39q27 0 27 -25q0 -10 -4 -26l-209 -973q-60 -272 -209.5 -400t-411.5 -128 q-194 0 -309 90.5t-115 269.5zM553 1708q0 10 14 21l281 256q38 30 59 30h84q21 0 41 -30l170 -256q6 -9 6 -15q0 -18 -24 -18h-29q-9 0 -17.5 5t-12.5 9.5t-15 18.5l-174 231l-272 -231q-41 -33 -62 -33h-31q-18 0 -18 12z" />
<glyph unicode="&#xdc;" horiz-adv-x="1376" d="M104 344q0 76 21 168l213 991q7 33 39 33h39q26 0 26 -25q0 -10 -4 -26l-217 -1006q-12 -59 -12 -119q0 -145 88.5 -212.5t247.5 -67.5q195 0 323 101t170 298l219 1024q7 33 39 33h39q27 0 27 -25q0 -10 -4 -26l-209 -973q-60 -272 -209.5 -400t-411.5 -128 q-194 0 -309 90.5t-115 269.5zM594 1718q0 12 6 33l18 104q7 33 41 33h48q24 0 24 -22q0 -11 -6 -35l-20 -102q-7 -33 -39 -33h-50q-22 0 -22 22zM1090 1718q0 12 6 33l20 104q7 33 39 33h49q23 0 23 -22q0 -11 -6 -35l-19 -102q-7 -33 -41 -33h-47q-24 0 -24 22z" />
<glyph unicode="&#xdd;" horiz-adv-x="1112" d="M213 1511q0 10 8.5 17.5t20.5 7.5h45q25 0 35 -33l253 -760l570 760q20 33 47 33h51q23 0 23 -14q0 -7 -9 -19l-657 -870l-131 -600q-1 -15 -11.5 -24t-25.5 -9h-41q-24 0 -24 25q0 10 4 26l125 590l-275 840q-8 20 -8 30zM625 1712q0 9 22 31l221 242q2 2 7.5 8t7.5 7.5 t6.5 5.5t7.5 5l7.5 2.5t8.5 1.5h91q22 0 22 -14q0 -11 -20 -27l-295 -245q-33 -33 -54 -33h-10q-22 0 -22 16z" />
<glyph unicode="&#xde;" horiz-adv-x="1167" d="M63 25q0 6 5 26l311 1452q7 33 37 33h41q24 0 24 -25q0 -10 -4 -26l-55 -252h315q188 0 295 -88.5t107 -263.5q0 -281 -156 -453t-428 -172h-340l-47 -223q-7 -33 -39 -33h-39q-27 0 -27 25zM236 352h350q210 0 329 144t119 368q0 136 -74.5 204.5t-214.5 68.5h-344z" />
<glyph unicode="&#xdf;" horiz-adv-x="1327" d="M141 20q0 11 4 27l211 985h-170q-28 0 -28 19q0 8 4 16l8 27q8 26 39 26h166l2 8q23 108 71 188.5t113.5 127.5t141.5 69.5t163 22.5q138 0 228 -71.5t90 -184.5q0 -193 -215 -328q-3 -2 -34 -20.5t-40 -25t-33 -26t-33.5 -34t-18.5 -38t-9 -48.5q0 -52 20 -83.5 t90 -68.5l88 -49q92 -49 138.5 -107t46.5 -149q0 -146 -114 -232.5t-286 -86.5q-147 0 -264 24q-26 6 -26 29q0 6 2 18l4 27q3 24 28 24q4 0 22 -4.5t23 -5.5q95 -24 220 -24q136 0 216.5 64t80.5 167q0 67 -31 104t-98 72l-107 58q-81 44 -115 91.5t-34 123.5 q0 45 16.5 83.5t52 72t65 54.5t81.5 54q170 103 170 256q0 91 -68 133.5t-174 42.5q-74 0 -134 -19t-99.5 -49t-69.5 -74t-46.5 -88t-27.5 -98l-233 -1087q-7 -33 -37 -33h-33q-27 0 -27 20z" />
<glyph unicode="&#xe0;" horiz-adv-x="1120" d="M47 215q0 55 16 129l58 264q52 244 210 378t412 134h265q26 0 26 -22q0 -7 -4 -23l-221 -1042q-7 -33 -39 -33h-33q-26 0 -26 25q0 6 8 34l41 197l-88 -72q-3 -2 -35 -28t-39 -31.5t-37.5 -29t-44 -30.5t-42 -24.5t-48 -24t-47 -16t-54 -13t-53.5 -3.5q-103 0 -164 62 t-61 169zM143 231q0 -76 40.5 -117.5t113.5 -41.5q45 0 93 16.5t100 50.5t80 55.5t77 61.5l137 113l140 663h-203q-196 0 -328 -107.5t-178 -316.5l-55 -256q-17 -71 -17 -121zM451 1585q0 14 20 14h90q4 0 8 -0.5t7.5 -2.5t6 -3.5t6.5 -5t6 -5.5l6.5 -6.5l6.5 -6.5 l221 -242q23 -23 23 -31q0 -16 -25 -16h-10q-18 0 -51 33l-297 246q-18 16 -18 26z" />
<glyph unicode="&#xe1;" horiz-adv-x="1120" d="M47 215q0 55 16 129l58 264q52 244 210 378t412 134h265q26 0 26 -22q0 -7 -4 -23l-221 -1042q-7 -33 -39 -33h-33q-26 0 -26 25q0 6 8 34l41 197l-88 -72q-3 -2 -35 -28t-39 -31.5t-37.5 -29t-44 -30.5t-42 -24.5t-48 -24t-47 -16t-54 -13t-53.5 -3.5q-103 0 -164 62 t-61 169zM143 231q0 -76 40.5 -117.5t113.5 -41.5q45 0 93 16.5t100 50.5t80 55.5t77 61.5l137 113l140 663h-203q-196 0 -328 -107.5t-178 -316.5l-55 -256q-17 -71 -17 -121zM586 1296q0 9 22 31l221 242q2 2 7.5 8t7.5 7.5t6.5 5.5t7.5 5l7.5 2.5t8.5 1.5h91q22 0 22 -14 q0 -10 -20 -26l-295 -246q-33 -33 -54 -33h-10q-22 0 -22 16z" />
<glyph unicode="&#xe2;" horiz-adv-x="1120" d="M47 215q0 55 16 129l58 264q52 244 210 378t412 134h265q26 0 26 -22q0 -7 -4 -23l-221 -1042q-7 -33 -39 -33h-33q-26 0 -26 25q0 6 8 34l41 197l-88 -72q-3 -2 -35 -28t-39 -31.5t-37.5 -29t-44 -30.5t-42 -24.5t-48 -24t-47 -16t-54 -13t-53.5 -3.5q-103 0 -164 62 t-61 169zM143 231q0 -76 40.5 -117.5t113.5 -41.5q45 0 93 16.5t100 50.5t80 55.5t77 61.5l137 113l140 663h-203q-196 0 -328 -107.5t-178 -316.5l-55 -256q-17 -71 -17 -121zM373 1292q0 10 14 21l281 256q38 30 59 30h84q21 0 41 -30l170 -256q6 -9 6 -15q0 -18 -24 -18 h-29q-9 0 -17.5 5t-12.5 9.5t-15 18.5l-174 231l-273 -231q-41 -33 -61 -33h-31q-18 0 -18 12z" />
<glyph unicode="&#xe3;" horiz-adv-x="1120" d="M47 215q0 55 16 129l58 264q52 244 210 378t412 134h265q26 0 26 -22q0 -7 -4 -23l-221 -1042q-7 -33 -39 -33h-33q-26 0 -26 25q0 6 8 34l41 197l-88 -72q-3 -2 -35 -28t-39 -31.5t-37.5 -29t-44 -30.5t-42 -24.5t-48 -24t-47 -16t-54 -13t-53.5 -3.5q-103 0 -164 62 t-61 169zM143 231q0 -76 40.5 -117.5t113.5 -41.5q45 0 93 16.5t100 50.5t80 55.5t77 61.5l137 113l140 663h-203q-196 0 -328 -107.5t-178 -316.5l-55 -256q-17 -71 -17 -121zM328 1303l6 49q5 25 47 67q97 101 209 101q33 0 63.5 -16.5t53 -40t44.5 -47t48.5 -40 t54.5 -16.5q53 0 109.5 40.5t95.5 92.5q13 18 22 18t9 -12l-9 -57q-4 -20 -47 -66q-38 -40 -92 -68t-111 -28q-38 0 -75.5 25t-64 55t-62 55t-70.5 25q-103 0 -201 -135q-16 -19 -22 -19q-8 0 -8 17z" />
<glyph unicode="&#xe4;" horiz-adv-x="1120" d="M47 215q0 55 16 129l58 264q52 244 210 378t412 134h265q26 0 26 -22q0 -7 -4 -23l-221 -1042q-7 -33 -39 -33h-33q-26 0 -26 25q0 6 8 34l41 197l-88 -72q-3 -2 -35 -28t-39 -31.5t-37.5 -29t-44 -30.5t-42 -24.5t-48 -24t-47 -16t-54 -13t-53.5 -3.5q-103 0 -164 62 t-61 169zM143 231q0 -76 40.5 -117.5t113.5 -41.5q45 0 93 16.5t100 50.5t80 55.5t77 61.5l137 113l140 663h-203q-196 0 -328 -107.5t-178 -316.5l-55 -256q-17 -71 -17 -121zM391 1303q0 11 6 32l19 105q7 33 41 33h47q24 0 24 -23q0 -11 -6 -35l-20 -102q-7 -33 -39 -33 h-49q-23 0 -23 23zM887 1303q0 11 6 32l20 105q7 33 39 33h49q23 0 23 -23q0 -11 -6 -35l-19 -102q-7 -33 -41 -33h-47q-24 0 -24 23z" />
<glyph unicode="&#xe5;" horiz-adv-x="1120" d="M47 215q0 55 16 129l58 264q52 244 210 378t412 134h265q26 0 26 -22q0 -7 -4 -23l-221 -1042q-7 -33 -39 -33h-33q-26 0 -26 25q0 6 8 34l41 197l-88 -72q-3 -2 -35 -28t-39 -31.5t-37.5 -29t-44 -30.5t-42 -24.5t-48 -24t-47 -16t-54 -13t-53.5 -3.5q-103 0 -164 62 t-61 169zM143 231q0 -76 40.5 -117.5t113.5 -41.5q45 0 93 16.5t100 50.5t80 55.5t77 61.5l137 113l140 663h-203q-196 0 -328 -107.5t-178 -316.5l-55 -256q-17 -71 -17 -121zM520 1448q0 109 72.5 178.5t191.5 69.5q89 0 141 -47t52 -121q0 -98 -70 -173t-194 -75 q-89 0 -141 47t-52 121zM584 1464q0 -69 37 -103t100 -34q81 0 136.5 51t55.5 133q0 69 -37 103.5t-100 34.5q-80 0 -136 -51t-56 -134z" />
<glyph unicode="&#xe6;" horiz-adv-x="1734" d="M47 215q0 55 16 129l58 264q52 244 210 378t412 134h623q136 0 223.5 -65t87.5 -191q0 -172 -112 -262t-295 -90h-359l-24 -121q-8 -46 -8 -94q0 -118 62 -171.5t185 -53.5q159 0 310 63q12 4 18 4q12 0 12 -14q0 -9 -8 -37q-9 -29 -41 -43q-131 -61 -307 -61 q-152 0 -236.5 71t-91.5 209h-14l-96 -80q-47 -39 -66.5 -55.5t-68 -50.5t-83 -50t-84.5 -30t-98 -14q-103 0 -164 62t-61 169zM143 231q0 -76 40.5 -117.5t113.5 -41.5q45 0 93 16.5t100 50.5t80 55.5t77 61.5l139 113l68 319q47 227 209 344h-342q-196 0 -328 -107.5 t-178 -316.5l-55 -256q-17 -71 -17 -121zM930 600h364q127 0 208 63.5t81 184.5q0 96 -63.5 140t-169.5 44h-17q-156 -5 -253.5 -92t-129.5 -252z" />
<glyph unicode="&#xe7;" horiz-adv-x="952" d="M47 272q0 58 16 136l64 297q46 212 180 322t326 110q76 0 164 -19.5t139 -52.5l-41 -201q-7 -33 -39 -33h-31q-24 0 -24 21q0 9 4 29l26 127q-77 41 -215 41q-316 0 -393 -344l-63 -297q-17 -79 -17 -136q0 -102 70.5 -151t185.5 -49q66 0 150.5 18t152.5 45q12 4 15 4 q12 0 12 -14q0 -6 -2 -18t-2 -17q-6 -28 -41 -45q-59 -27 -141.5 -44t-151.5 -17q-344 0 -344 288zM57 -360q0 6 4 24q7 33 37 33h201q54 0 91.5 29t37.5 81q0 74 -80 121v25h55q43 -23 70 -61.5t27 -84.5q0 -85 -64 -138.5t-176 -53.5h-176q-27 0 -27 25z" />
<glyph unicode="&#xe8;" horiz-adv-x="999" d="M47 289q0 61 8 102l66 314q44 215 180.5 323.5t331.5 108.5q140 0 229.5 -65t89.5 -191q0 -174 -113.5 -263.5t-301.5 -89.5h-359l-26 -137q-9 -52 -9 -94q0 -118 62 -171.5t186 -53.5q160 0 311 63q12 4 19 4q3 0 6.5 -4t3.5 -10t-2.5 -19.5t-3.5 -17.5q-9 -29 -41 -43 q-131 -61 -307 -61q-158 0 -244 78t-86 227zM197 616h362q132 0 214.5 63.5t82.5 184.5q0 96 -65.5 140.5t-174.5 44.5q-163 0 -264.5 -87t-136.5 -257zM455 1585q0 14 20 14h90q4 0 8 -0.5t7.5 -2.5t6 -3.5t6.5 -5t6 -5.5l6.5 -6.5l6.5 -6.5l222 -242q22 -22 22 -31 q0 -16 -25 -16h-10q-18 0 -51 33l-297 246q-18 16 -18 26z" />
<glyph unicode="&#xe9;" horiz-adv-x="999" d="M47 289q0 61 8 102l66 314q44 215 180.5 323.5t331.5 108.5q140 0 229.5 -65t89.5 -191q0 -174 -113.5 -263.5t-301.5 -89.5h-359l-26 -137q-9 -52 -9 -94q0 -118 62 -171.5t186 -53.5q160 0 311 63q12 4 19 4q3 0 6.5 -4t3.5 -10t-2.5 -19.5t-3.5 -17.5q-9 -29 -41 -43 q-131 -61 -307 -61q-158 0 -244 78t-86 227zM197 616h362q132 0 214.5 63.5t82.5 184.5q0 96 -65.5 140.5t-174.5 44.5q-163 0 -264.5 -87t-136.5 -257zM494 1296q0 9 22 31l221 242q2 2 7.5 8t7.5 7.5t6.5 5.5t7.5 5l7.5 2.5t8.5 1.5h90q23 0 23 -14q0 -10 -21 -26 l-294 -246q-33 -33 -54 -33h-10q-22 0 -22 16z" />
<glyph unicode="&#xea;" horiz-adv-x="999" d="M47 289q0 61 8 102l66 314q44 215 180.5 323.5t331.5 108.5q140 0 229.5 -65t89.5 -191q0 -174 -113.5 -263.5t-301.5 -89.5h-359l-26 -137q-9 -52 -9 -94q0 -118 62 -171.5t186 -53.5q160 0 311 63q12 4 19 4q3 0 6.5 -4t3.5 -10t-2.5 -19.5t-3.5 -17.5q-9 -29 -41 -43 q-131 -61 -307 -61q-158 0 -244 78t-86 227zM197 616h362q132 0 214.5 63.5t82.5 184.5q0 96 -65.5 140.5t-174.5 44.5q-163 0 -264.5 -87t-136.5 -257zM297 1292q0 10 14 21l281 256q38 30 59 30h84q21 0 41 -30l170 -256q6 -9 6 -15q0 -18 -24 -18h-29q-9 0 -17.5 5 t-12.5 9.5t-15 18.5l-174 231l-272 -231q-41 -33 -62 -33h-31q-18 0 -18 12z" />
<glyph unicode="&#xeb;" horiz-adv-x="999" d="M47 289q0 61 8 102l66 314q44 215 180.5 323.5t331.5 108.5q140 0 229.5 -65t89.5 -191q0 -174 -113.5 -263.5t-301.5 -89.5h-359l-26 -137q-9 -52 -9 -94q0 -118 62 -171.5t186 -53.5q160 0 311 63q12 4 19 4q3 0 6.5 -4t3.5 -10t-2.5 -19.5t-3.5 -17.5q-9 -29 -41 -43 q-131 -61 -307 -61q-158 0 -244 78t-86 227zM197 616h362q132 0 214.5 63.5t82.5 184.5q0 96 -65.5 140.5t-174.5 44.5q-163 0 -264.5 -87t-136.5 -257zM330 1303q0 11 6 32l18 105q7 33 41 33h47q25 0 25 -23q0 -11 -6 -35l-21 -102q-7 -33 -39 -33h-49q-22 0 -22 23z M825 1303q0 11 6 32l21 105q7 33 39 33h49q23 0 23 -23q0 -7 -7 -35l-18 -102q-7 -33 -41 -33h-47q-25 0 -25 23z" />
<glyph unicode="&#xec;" horiz-adv-x="512" d="M104 20q0 7 5 27l208 985h-170q-24 0 -24 25q0 5 4 30q7 33 39 33h233q27 0 27 -24q0 -9 -4 -29l-221 -1034q-7 -33 -39 -33h-33q-25 0 -25 20zM121 1585q0 14 20 14h90q3 0 6 -0.5t5 -1t5 -2l5 -2.5t4.5 -3t4 -3.5t4.5 -4t4.5 -4l5 -5l4.5 -4.5l221 -242q22 -22 22 -31 q0 -16 -24 -16h-11q-18 0 -51 33l-297 246q-18 16 -18 26z" />
<glyph unicode="&#xed;" horiz-adv-x="512" d="M104 20q0 7 5 27l208 985h-170q-24 0 -24 25q0 5 4 30q7 33 39 33h233q27 0 27 -24q0 -9 -4 -29l-221 -1034q-7 -33 -39 -33h-33q-25 0 -25 20zM256 1296q0 8 23 31l221 242q2 2 7.5 8t7.5 7.5t6.5 5.5t7.5 5l7.5 2.5t8.5 1.5h90q22 0 22 -14q0 -10 -20 -26l-295 -246 q-33 -33 -53 -33h-10q-23 0 -23 16z" />
<glyph unicode="&#xee;" horiz-adv-x="512" d="M0 1292q0 10 14 21l281 256q38 30 59 30h84q21 0 41 -30l170 -256q6 -9 6 -15q0 -18 -24 -18h-29q-9 0 -17.5 5t-12.5 9.5t-15 18.5l-174 231l-272 -231q-41 -33 -62 -33h-31q-18 0 -18 12zM104 20q0 7 5 27l208 985h-170q-24 0 -24 25q0 5 4 30q7 33 39 33h233 q27 0 27 -24q0 -9 -4 -29l-221 -1034q-7 -33 -39 -33h-33q-25 0 -25 20z" />
<glyph unicode="&#xef;" horiz-adv-x="512" d="M37 1303q0 11 6 32l18 105q7 33 41 33h48q24 0 24 -23q0 -11 -6 -35l-21 -102q-7 -33 -38 -33h-50q-22 0 -22 23zM104 20q0 7 5 27l208 985h-170q-24 0 -24 25q0 5 4 30q7 33 39 33h233q27 0 27 -24q0 -9 -4 -29l-221 -1034q-7 -33 -39 -33h-33q-25 0 -25 20zM532 1303 q0 7 7 32l20 105q7 33 39 33h49q23 0 23 -23q0 -11 -6 -35l-19 -102q-7 -33 -41 -33h-47q-25 0 -25 23z" />
<glyph unicode="&#xf0;" horiz-adv-x="1116" d="M47 215q0 55 16 129l58 264q52 244 210 378t412 134h199l49 232h-231q-27 0 -27 24q0 9 4 21q9 26 39 26h230l18 80q7 33 41 33h31q26 0 26 -23q0 -8 -4 -20l-14 -70h104q27 0 27 -22q0 -9 -4 -21q-8 -28 -39 -28h-105l-280 -1319q-7 -33 -39 -33h-33q-24 0 -24 20 q0 11 4 27l43 207l-86 -70q-3 -2 -35 -28t-39 -31.5t-37.5 -29t-44 -30.5t-42 -24.5t-48 -24t-47 -16t-54 -13t-53.5 -3.5q-103 0 -164 62t-61 169zM143 231q0 -76 40.5 -117.5t113.5 -41.5q45 0 93 16.5t100 50.5t80 55.5t77 61.5l135 111l142 665h-203q-196 0 -328 -107.5 t-178 -316.5l-55 -256q-17 -71 -17 -121z" />
<glyph unicode="&#xf1;" horiz-adv-x="1175" d="M63 20q0 7 5 27l221 1040q7 33 37 33h32q25 0 25 -20q0 -19 -2 -29l-45 -207l100 80q56 45 90 69.5t88 58t103.5 49.5t97.5 16q110 0 167.5 -54.5t57.5 -162.5q0 -65 -12 -119l-166 -768q-7 -33 -39 -33h-30q-27 0 -27 20q0 11 4 27l162 754q12 58 12 102q0 146 -143 146 q-21 0 -43 -4t-47.5 -15t-45 -19t-48 -27t-43.5 -28.5t-46 -33t-40.5 -31t-41 -32.5t-34.5 -28l-99 -79l-153 -719q-7 -33 -37 -33h-33q-27 0 -27 20zM379 1303l6 49q5 25 47 67q97 101 209 101q33 0 63.5 -16.5t53 -40t44.5 -47t48.5 -40t54.5 -16.5q53 0 109.5 40.5 t95.5 92.5q13 18 23 18q8 0 8 -12l-8 -57q-2 -9 -9.5 -21t-13.5 -18t-25 -27q-38 -40 -91.5 -68t-110.5 -28q-31 0 -61 16.5t-54.5 40t-48.5 47t-52 40t-57 16.5q-102 0 -200 -135q-16 -19 -23 -19q-8 0 -8 17z" />
<glyph unicode="&#xf2;" horiz-adv-x="1120" d="M55 385q0 118 24.5 228t74.5 205.5t120.5 166.5t168.5 111.5t212 40.5q173 0 267 -107t94 -295q0 -114 -24 -222t-74 -204t-120.5 -168.5t-169 -114.5t-212.5 -42q-176 0 -268.5 107.5t-92.5 293.5zM152 385q0 -142 72.5 -227.5t207.5 -85.5q115 0 210 58.5t154.5 154 t91.5 212t32 238.5q0 142 -73 228t-208 86q-93 0 -173 -38.5t-136.5 -103.5t-97.5 -150.5t-60.5 -180t-19.5 -191.5zM518 1585q0 14 23 14h90q4 0 8.5 -1.5l7.5 -2.5t7.5 -5t6.5 -5.5t7.5 -7.5t7.5 -8l221 -242q23 -23 23 -31q0 -16 -25 -16h-8q-20 0 -53 33l-295 246 q-21 16 -21 26z" />
<glyph unicode="&#xf3;" horiz-adv-x="1120" d="M55 385q0 118 24.5 228t74.5 205.5t120.5 166.5t168.5 111.5t212 40.5q173 0 267 -107t94 -295q0 -114 -24 -222t-74 -204t-120.5 -168.5t-169 -114.5t-212.5 -42q-176 0 -268.5 107.5t-92.5 293.5zM152 385q0 -142 72.5 -227.5t207.5 -85.5q115 0 210 58.5t154.5 154 t91.5 212t32 238.5q0 142 -73 228t-208 86q-93 0 -173 -38.5t-136.5 -103.5t-97.5 -150.5t-60.5 -180t-19.5 -191.5zM535 1296q0 9 22 31l221 242q2 2 7.5 8t7.5 7.5t6.5 5.5t7.5 5l7.5 2.5t8.5 1.5h90q23 0 23 -14q0 -10 -21 -26l-294 -246q-33 -33 -54 -33h-10 q-22 0 -22 16z" />
<glyph unicode="&#xf4;" horiz-adv-x="1120" d="M55 385q0 118 24.5 228t74.5 205.5t120.5 166.5t168.5 111.5t212 40.5q173 0 267 -107t94 -295q0 -114 -24 -222t-74 -204t-120.5 -168.5t-169 -114.5t-212.5 -42q-176 0 -268.5 107.5t-92.5 293.5zM152 385q0 -142 72.5 -227.5t207.5 -85.5q115 0 210 58.5t154.5 154 t91.5 212t32 238.5q0 142 -73 228t-208 86q-93 0 -173 -38.5t-136.5 -103.5t-97.5 -150.5t-60.5 -180t-19.5 -191.5zM352 1292q0 9 15 21l280 256q38 30 60 30h84q9 0 16.5 -4.5t11.5 -9.5t12 -16l170 -256q7 -11 7 -15q0 -18 -25 -18h-29q-9 0 -17.5 5t-12.5 9.5t-15 18.5 l-174 231l-272 -231q-41 -33 -62 -33h-30q-19 0 -19 12z" />
<glyph unicode="&#xf5;" horiz-adv-x="1120" d="M55 385q0 118 24.5 228t74.5 205.5t120.5 166.5t168.5 111.5t212 40.5q173 0 267 -107t94 -295q0 -114 -24 -222t-74 -204t-120.5 -168.5t-169 -114.5t-212.5 -42q-176 0 -268.5 107.5t-92.5 293.5zM152 385q0 -142 72.5 -227.5t207.5 -85.5q115 0 210 58.5t154.5 154 t91.5 212t32 238.5q0 142 -73 228t-208 86q-93 0 -173 -38.5t-136.5 -103.5t-97.5 -150.5t-60.5 -180t-19.5 -191.5zM324 1303l6 49q5 25 47 67q97 101 209 101q33 0 63.5 -16.5t53 -40t44.5 -47t48.5 -40t54.5 -16.5q53 0 109.5 40.5t95.5 92.5q13 18 22 18q8 0 8 -12 l-8 -57q-4 -20 -47 -66q-38 -40 -92 -68t-111 -28q-38 0 -75.5 25t-64 55t-62 55t-70.5 25q-103 0 -201 -135q-16 -19 -22 -19q-8 0 -8 17z" />
<glyph unicode="&#xf6;" horiz-adv-x="1120" d="M55 385q0 118 24.5 228t74.5 205.5t120.5 166.5t168.5 111.5t212 40.5q173 0 267 -107t94 -295q0 -114 -24 -222t-74 -204t-120.5 -168.5t-169 -114.5t-212.5 -42q-176 0 -268.5 107.5t-92.5 293.5zM152 385q0 -142 72.5 -227.5t207.5 -85.5q115 0 210 58.5t154.5 154 t91.5 212t32 238.5q0 142 -73 228t-208 86q-93 0 -173 -38.5t-136.5 -103.5t-97.5 -150.5t-60.5 -180t-19.5 -191.5zM387 1303q0 11 6 32l19 105q7 33 41 33h47q24 0 24 -23q0 -11 -6 -35l-20 -102q-7 -33 -39 -33h-49q-23 0 -23 23zM883 1303q0 11 6 32l20 105q7 33 39 33 h49q23 0 23 -23q0 -11 -6 -35l-19 -102q-7 -33 -41 -33h-47q-24 0 -24 23z" />
<glyph unicode="&#xf7;" d="M188 733q0 2 5 27q7 33 38 33h834q11 0 18 -6.5t7 -16.5q0 -2 -5 -27q-7 -30 -38 -30h-834q-25 0 -25 20zM537 449q0 6 4 22q7 33 37 33h16q27 0 27 -25q0 -2 -5 -22q-7 -33 -38 -33h-17q-24 0 -24 25zM657 1024q0 2 5 25q7 30 38 30h17q24 0 24 -22q0 -7 -4 -25 q-7 -33 -37 -33h-16q-27 0 -27 25z" />
<glyph unicode="&#xf8;" horiz-adv-x="1128" d="M61 14q0 10 9 19l67 84q-74 103 -74 268q0 118 24.5 228t75 205.5t121 166.5t168.5 111.5t212 40.5q141 0 233 -76l21 26q26 33 49 33h34q23 0 23 -14q0 -11 -8 -19l-66 -81q74 -103 74 -271q0 -114 -24.5 -222.5t-74.5 -204t-120.5 -168t-168.5 -114.5t-212 -42 q-146 0 -236 75l-20 -26q-26 -33 -47 -33h-37q-23 0 -23 14zM160 385q0 -110 43 -186l631 784q-76 66 -187 66q-93 0 -173 -38.5t-136.5 -103.5t-97.5 -150.5t-60.5 -180t-19.5 -191.5zM252 137q68 -65 188 -65q115 0 210 58.5t154.5 154t91.5 212t32 238.5q0 113 -45 187z " />
<glyph unicode="&#xf9;" horiz-adv-x="1165" d="M102 201q0 59 13 118l166 768q7 33 36 33h33q27 0 27 -20q0 -9 -4 -29l-162 -752q-12 -59 -12 -104q0 -143 143 -143q36 0 82 17t78.5 34.5t86.5 56.5t72 53.5t68 55.5l100 80l152 718q7 33 39 33h33q24 0 24 -20q0 -9 -4 -29l-219 -1038q-7 -33 -39 -33h-31 q-26 0 -26 20q0 11 4 27l43 207l-98 -78q-55 -44 -89.5 -69t-88.5 -58t-104 -49t-99 -16q-109 0 -166.5 54.5t-57.5 162.5zM469 1585q0 14 20 14h91q4 0 8 -0.5t7.5 -2.5t6 -3.5t6.5 -5t6 -5.5l6.5 -6.5l6.5 -6.5l221 -242q22 -22 22 -31q0 -16 -24 -16h-10q-9 0 -18.5 5 t-15 10t-18.5 18l-297 246q-18 14 -18 26z" />
<glyph unicode="&#xfa;" horiz-adv-x="1165" d="M102 201q0 59 13 118l166 768q7 33 36 33h33q27 0 27 -20q0 -9 -4 -29l-162 -752q-12 -59 -12 -104q0 -143 143 -143q36 0 82 17t78.5 34.5t86.5 56.5t72 53.5t68 55.5l100 80l152 718q7 33 39 33h33q24 0 24 -20q0 -9 -4 -29l-219 -1038q-7 -33 -39 -33h-31 q-26 0 -26 20q0 11 4 27l43 207l-98 -78q-55 -44 -89.5 -69t-88.5 -58t-104 -49t-99 -16q-109 0 -166.5 54.5t-57.5 162.5zM557 1296q0 8 23 31l221 242q2 2 7.5 8t7.5 7.5t6.5 5.5t7.5 5l7.5 2.5t8.5 1.5h90q22 0 22 -14q0 -10 -20 -26l-295 -246q-33 -33 -53 -33h-10 q-23 0 -23 16z" />
<glyph unicode="&#xfb;" horiz-adv-x="1165" d="M102 201q0 59 13 118l166 768q7 33 36 33h33q27 0 27 -20q0 -9 -4 -29l-162 -752q-12 -59 -12 -104q0 -143 143 -143q36 0 82 17t78.5 34.5t86.5 56.5t72 53.5t68 55.5l100 80l152 718q7 33 39 33h33q24 0 24 -20q0 -9 -4 -29l-219 -1038q-7 -33 -39 -33h-31 q-26 0 -26 20q0 11 4 27l43 207l-98 -78q-55 -44 -89.5 -69t-88.5 -58t-104 -49t-99 -16q-109 0 -166.5 54.5t-57.5 162.5zM389 1292q0 10 14 21l281 256q38 30 59 30h84q21 0 41 -30l170 -256q6 -9 6 -15q0 -18 -24 -18h-29q-9 0 -17.5 5t-12.5 9.5t-15 18.5l-174 231 l-272 -231q-41 -33 -62 -33h-30q-19 0 -19 12z" />
<glyph unicode="&#xfc;" horiz-adv-x="1165" d="M102 201q0 59 13 118l166 768q7 33 36 33h33q27 0 27 -20q0 -9 -4 -29l-162 -752q-12 -59 -12 -104q0 -143 143 -143q36 0 82 17t78.5 34.5t86.5 56.5t72 53.5t68 55.5l100 80l152 718q7 33 39 33h33q24 0 24 -20q0 -9 -4 -29l-219 -1038q-7 -33 -39 -33h-31 q-26 0 -26 20q0 11 4 27l43 207l-98 -78q-55 -44 -89.5 -69t-88.5 -58t-104 -49t-99 -16q-109 0 -166.5 54.5t-57.5 162.5zM416 1303q0 11 6 32l18 105q7 33 41 33h47q25 0 25 -23q0 -11 -6 -35l-21 -102q-7 -33 -39 -33h-49q-22 0 -22 23zM911 1303q0 7 7 32l20 105 q7 33 39 33h49q23 0 23 -23q0 -7 -7 -35l-18 -102q-7 -33 -41 -33h-47q-25 0 -25 23z" />
<glyph unicode="&#xfd;" horiz-adv-x="1175" d="M74 -360q0 5 6 32q6 31 39 31h200q95 0 169.5 24t123 62t84 96.5t54.5 116.5t34 133l15 72l-29 -17q-211 -127 -377 -127q-256 0 -256 256q0 22 4.5 54.5t9 56t11.5 57t8 39.5l121 561q1 15 11.5 24t25.5 9h32q25 0 25 -20q0 -9 -4 -29l-123 -569q-25 -110 -25 -183 q0 -89 43 -129t134 -40q82 0 187.5 41.5t197.5 95.5l24 14l172 786q7 33 39 33h31q26 0 26 -20q0 -9 -4 -29l-194 -936q-26 -127 -70 -220t-113 -162t-169.5 -103.5t-233.5 -34.5h-203q-26 0 -26 25zM571 1296q0 8 23 31l221 242q2 2 7.5 8t7.5 7.5t6.5 5.5t7.5 5l7.5 2.5 t8.5 1.5h90q23 0 23 -14q0 -10 -21 -26l-295 -246q-33 -33 -53 -33h-10q-23 0 -23 16z" />
<glyph unicode="&#xfe;" horiz-adv-x="1128" d="M-18 -365q0 9 4 29l391 1839q10 33 39 33h33q24 0 24 -23q0 -8 -4 -20l-135 -629h2l88 72q7 5 35 28t38.5 31.5t38 29.5t43 30t42.5 25t48 24t47.5 17t53 12.5t53.5 3.5q103 0 164.5 -63t61.5 -171q0 -12 -6 -57.5t-11 -69.5l-55 -264q-52 -243 -211.5 -377.5 t-413.5 -134.5h-200l-74 -352q-7 -33 -37 -33h-33q-26 0 -26 20zM170 88h207q196 0 329.5 108t176.5 316l53 256q16 67 16 121q0 76 -40 118t-111 42q-45 0 -93.5 -16.5t-101 -51.5t-80 -55.5t-77.5 -61.5l-138 -112z" />
<glyph unicode="&#xff;" horiz-adv-x="1175" d="M74 -360q0 5 6 32q6 31 39 31h200q95 0 169.5 24t123 62t84 96.5t54.5 116.5t34 133l15 72l-29 -17q-211 -127 -377 -127q-256 0 -256 256q0 22 4.5 54.5t9 56t11.5 57t8 39.5l121 561q7 33 37 33h32q25 0 25 -20q0 -5 -1 -14.5t-1 -14.5l-125 -569q-25 -110 -25 -183 q0 -89 43 -129t134 -40q82 0 187.5 41.5t197.5 95.5l24 14l172 786q7 33 39 33h33q24 0 24 -20q0 -9 -4 -29l-192 -936q-26 -127 -70.5 -220.5t-113.5 -162t-170 -103t-234 -34.5h-203q-26 0 -26 25zM430 1303q0 11 6 32l21 105q7 33 39 33h49q22 0 22 -23q0 -11 -6 -35 l-18 -102q-7 -33 -41 -33h-47q-25 0 -25 23zM926 1303q0 11 6 32l20 105q3 15 14 24t25 9h49q25 0 25 -23q0 -11 -6 -35l-21 -102q-7 -33 -41 -33h-47q-24 0 -24 23z" />
<glyph unicode="&#x152;" horiz-adv-x="1921" d="M98 487q0 99 27 248l10 70q137 731 739 731h1022q27 0 27 -25q0 -6 -4 -18l-4 -20q-10 -33 -39 -33h-655l-123 -576h616q29 0 29 -24q0 -7 -4 -19l-6 -20q-10 -33 -39 -33h-617l-141 -672h696q29 0 29 -24q0 -7 -4 -19l-6 -20q-10 -33 -39 -33h-1057q-233 0 -345 128 t-112 359zM203 487q0 -189 91.5 -290t274.5 -101h262l287 1348h-260q-113 0 -205.5 -32t-159 -88t-117.5 -138t-83 -175t-53 -206l-13 -70q-24 -151 -24 -248z" />
<glyph unicode="&#x153;" horiz-adv-x="1824" d="M63 385q0 118 24.5 228t75 205.5t121 166.5t168.5 111.5t212 40.5q134 0 221.5 -66.5t120.5 -189.5q69 128 185.5 192t264.5 64q140 0 230 -65t90 -191q0 -174 -114 -263.5t-302 -89.5h-356l-27 -137q-8 -46 -8 -94q0 -118 62 -171.5t186 -53.5q158 0 309 63q12 4 18 4 q12 0 12 -14q0 -9 -8 -37q-9 -29 -41 -43q-131 -61 -307 -61q-141 0 -223.5 61t-99.5 182q-80 -114 -194.5 -178.5t-258.5 -64.5q-176 0 -268.5 107.5t-92.5 293.5zM160 385q0 -142 72.5 -227.5t207.5 -85.5q115 0 210 58.5t154.5 154t91.5 212t32 238.5q0 142 -73 228 t-208 86q-93 0 -173 -38.5t-136.5 -103.5t-97.5 -150.5t-60.5 -180t-19.5 -191.5zM1022 616h362q132 0 213.5 63.5t81.5 184.5q0 96 -64.5 140.5t-174.5 44.5q-162 0 -264 -87.5t-136 -256.5z" />
<glyph unicode="&#x178;" horiz-adv-x="1112" d="M213 1511q0 10 8.5 17.5t20.5 7.5h45q25 0 35 -33l253 -760l570 760q20 33 47 33h51q23 0 23 -14q0 -7 -9 -19l-657 -870l-131 -600q-1 -15 -11.5 -24t-25.5 -9h-41q-24 0 -24 25q0 10 4 26l125 590l-275 840q-8 20 -8 30zM475 1718q0 12 6 33l21 104q7 33 41 33h47 q24 0 24 -22q0 -12 -6 -33l-20 -104q-3 -15 -14 -24t-25 -9h-49q-25 0 -25 22zM973 1718q0 12 6 33l18 104q7 33 41 33h47q25 0 25 -22q0 -12 -6 -33l-21 -104q-7 -33 -39 -33h-49q-22 0 -22 22z" />
<glyph unicode="&#x2c6;" horiz-adv-x="655" d="M88 1292q0 10 14 21l281 256q38 30 59 30h84q21 0 41 -30l170 -256q6 -9 6 -15q0 -18 -24 -18h-29q-9 0 -17.5 5t-12.5 9.5t-15 18.5l-174 231l-272 -231q-41 -33 -62 -33h-31q-18 0 -18 12z" />
<glyph unicode="&#x2dc;" horiz-adv-x="759" d="M127 1303l6 49q5 25 47 67q97 101 209 101q33 0 63.5 -16.5t53 -40t44.5 -47t48.5 -40t54.5 -16.5q53 0 109.5 40.5t95.5 92.5q13 18 23 18q8 0 8 -12l-8 -57q-4 -20 -47 -66q-38 -40 -92 -68t-111 -28q-31 0 -61 16.5t-54.5 40t-48.5 47t-52 40t-57 16.5 q-102 0 -200 -135q-16 -19 -23 -19q-8 0 -8 17z" />
<glyph unicode="&#x2000;" horiz-adv-x="1055" />
<glyph unicode="&#x2001;" horiz-adv-x="2111" />
<glyph unicode="&#x2002;" horiz-adv-x="1055" />
<glyph unicode="&#x2003;" horiz-adv-x="2111" />
<glyph unicode="&#x2004;" horiz-adv-x="703" />
<glyph unicode="&#x2005;" horiz-adv-x="527" />
<glyph unicode="&#x2006;" horiz-adv-x="351" />
<glyph unicode="&#x2007;" horiz-adv-x="351" />
<glyph unicode="&#x2008;" horiz-adv-x="263" />
<glyph unicode="&#x2009;" horiz-adv-x="422" />
<glyph unicode="&#x200a;" horiz-adv-x="117" />
<glyph unicode="&#x2010;" horiz-adv-x="831" d="M133 733q0 10 6 35q7 33 41 33h508q27 0 27 -23q0 -10 -6 -35q-7 -30 -41 -30h-508q-27 0 -27 20z" />
<glyph unicode="&#x2011;" horiz-adv-x="831" d="M133 733q0 10 6 35q7 33 41 33h508q27 0 27 -23q0 -10 -6 -35q-7 -30 -41 -30h-508q-27 0 -27 20z" />
<glyph unicode="&#x2012;" horiz-adv-x="831" d="M133 733q0 10 6 35q7 33 41 33h508q27 0 27 -23q0 -10 -6 -35q-7 -30 -41 -30h-508q-27 0 -27 20z" />
<glyph unicode="&#x2013;" horiz-adv-x="1024" d="M70 733q0 10 6 35q7 33 41 33h827q27 0 27 -23q0 -10 -6 -35q-7 -30 -41 -30h-828q-26 0 -26 20z" />
<glyph unicode="&#x2014;" horiz-adv-x="2048" d="M70 733q0 10 6 35q7 33 41 33h1851q27 0 27 -23q0 -10 -6 -35q-7 -30 -41 -30h-1852q-26 0 -26 20z" />
<glyph unicode="&#x2018;" horiz-adv-x="448" d="M213 1112q0 15 6 33q22 59 29 69l203 291q22 31 43 31h8q22 0 22 -16q0 -3 -4 -15l-186 -385q-16 -33 -43 -33h-51q-27 0 -27 25z" />
<glyph unicode="&#x2019;" horiz-adv-x="448" d="M180 1104q0 2 4 14l187 385q17 33 43 33h51q27 0 27 -25q0 -6 -9 -30q-3 -9 -8 -25.5t-9 -27t-9 -19.5l-203 -291q-22 -31 -43 -31h-8q-23 0 -23 17z" />
<glyph unicode="&#x201a;" horiz-adv-x="559" d="M-35 -240q0 3 4 15l187 385q16 33 45 33h49q29 0 29 -25q0 -6 -9 -33q-3 -7 -8 -23.5t-9.5 -26.5t-10.5 -19l-201 -291q-22 -31 -45 -31h-8q-23 0 -23 16z" />
<glyph unicode="&#x201c;" horiz-adv-x="768" d="M213 1112q0 15 6 33q22 59 29 69l203 291q22 31 43 31h8q22 0 22 -16q0 -3 -4 -15l-186 -385q-16 -33 -43 -33h-51q-27 0 -27 25zM532 1112q0 6 9 33l8 24t9 25.5t9 19.5l203 291q22 31 43 31h8q23 0 23 -16q0 -3 -4 -15l-187 -385q-17 -33 -43 -33h-51q-27 0 -27 25z " />
<glyph unicode="&#x201d;" horiz-adv-x="768" d="M180 1104q0 2 4 14l187 385q17 33 43 33h51q27 0 27 -25q0 -6 -9 -30q-3 -9 -8 -25.5t-9 -27t-9 -19.5l-203 -291q-22 -31 -43 -31h-8q-23 0 -23 17zM500 1104q0 2 4 14l186 385q16 33 43 33h51q27 0 27 -25q0 -14 -6 -30q-21 -60 -29 -72l-203 -291q-22 -31 -43 -31h-8 q-22 0 -22 17z" />
<glyph unicode="&#x201e;" horiz-adv-x="880" d="M-35 -240q0 3 4 15l187 385q16 33 45 33h49q29 0 29 -25q0 -6 -9 -33q-3 -7 -8 -23.5t-9.5 -26.5t-10.5 -19l-201 -291q-22 -31 -45 -31h-8q-23 0 -23 16zM287 -240q0 3 4 15l184 385q17 33 45 33h49q29 0 29 -25q0 -9 -8 -33q-22 -59 -29 -69l-201 -291q-22 -31 -45 -31 h-8q-20 0 -20 16z" />
<glyph unicode="&#x2022;" horiz-adv-x="1024" d="M129 641q0 93 32.5 167.5t87 120.5t122 70.5t141.5 24.5t142 -24.5t122.5 -70.5t87.5 -120.5t33 -167.5t-33 -168t-87.5 -121.5t-122.5 -71t-142 -24.5t-141.5 24.5t-122 71t-87 121.5t-32.5 168z" />
<glyph unicode="&#x2026;" horiz-adv-x="1687" d="M88 23q0 14 4 28l23 109q7 33 39 33h49q22 0 22 -23q0 -15 -4 -31l-20 -106q-7 -33 -41 -33h-47q-25 0 -25 23zM655 23q0 14 4 28l23 109q7 33 41 33h47q25 0 25 -23q0 -15 -4 -31l-23 -106q-7 -33 -41 -33h-47q-25 0 -25 23zM1233 23q0 14 4 28l20 109q7 33 41 33h48 q24 0 24 -23q0 -15 -4 -31l-23 -106q-7 -33 -38 -33h-50q-22 0 -22 23z" />
<glyph unicode="&#x202f;" horiz-adv-x="422" />
<glyph unicode="&#x2039;" horiz-adv-x="688" d="M100 655q0 27 11 60q8 25 41 45l440 291q13 10 24 10q13 0 13 -14q0 -11 -11 -50q-8 -25 -43 -47l-372 -262l264 -262q20 -23 20 -41q0 -23 -6.5 -46.5t-21.5 -23.5q-8 0 -15 7l-321 296q-23 20 -23 37z" />
<glyph unicode="&#x203a;" horiz-adv-x="688" d="M59 330q0 10 11 49q8 25 43 47l372 262l-264 262q-20 23 -20 39q0 25 6.5 48.5t21.5 23.5q9 0 15 -6l321 -297q23 -20 23 -37q0 -29 -10 -59q-7 -22 -41 -46l-441 -290q-15 -11 -24 -11q-13 0 -13 15z" />
<glyph unicode="&#x205f;" horiz-adv-x="527" />
<glyph unicode="&#x20ac;" d="M88 592q0 6 6 41q3 13 14 22t25 9h209l49 231h-205q-26 0 -26 25q0 6 6 41q6 30 41 30h205l8 33q64 252 218.5 390t383.5 138h41q68 0 147.5 -14.5t126.5 -36.5q25 -11 25 -28q0 -11 -8 -46q-6 -22 -27 -22q-4 0 -15 3t-26 8t-24 7q-121 33 -220 33h-36 q-86 0 -160.5 -24.5t-138.5 -75t-111.5 -135t-71.5 -197.5l-8 -33h522q27 0 27 -20q0 -10 -8 -43q-7 -33 -39 -33h-522l-50 -231h521q24 0 24 -23q0 -8 -8 -41q-1 -15 -11.5 -24t-25.5 -9h-520l-10 -55q-19 -87 -19 -152q0 -147 76 -213.5t244 -66.5h63q101 0 226 41 q43 16 57 16q10 0 10 -12q0 -6 -6 -45q-3 -26 -41 -39q-116 -57 -268 -57h-64q-188 0 -293.5 88t-105.5 272q0 87 16 168l11 55h-207q-27 0 -27 25z" />
<glyph unicode="&#x2122;" horiz-adv-x="1439" d="M215 1475q0 1 1 4.5t1 5.5l4 14q6 37 41 37h436q27 0 27 -27v-10l-2 -14q-6 -37 -43 -37h-166l-145 -686q-6 -35 -43 -35h-31q-33 0 -33 27q0 1 1 3.5t1 4.5l146 686h-166q-29 0 -29 27zM686 754q0 1 1 3.5t1 4.5l160 747q6 27 33 27h12q13 0 20 -12l170 -371l322 373 q5 10 16 10h11q24 0 24 -18v-9l-160 -747q-6 -35 -43 -35h-30q-33 0 -33 27q0 1 1 3.5t1 4.5l111 518l-222 -256q-13 -16 -28 -16h-9q-14 0 -24 16l-119 256l-108 -518q-6 -35 -43 -35h-31q-33 0 -33 27z" />
<glyph unicode="&#x25fc;" horiz-adv-x="1116" d="M0 0v1116h1116v-1116h-1116z" />
<glyph unicode="&#xfb03;" horiz-adv-x="1779" d="M135 20q0 11 4 27l207 985h-172q-27 0 -27 25q0 1 7 30q7 33 39 33h172l18 80q73 336 410 336h69q27 0 27 -25q0 -5 -6 -30q-7 -33 -39 -33h-70q-240 0 -295 -248l-18 -80h522l18 80q73 336 408 336h72q24 0 24 -25q0 -5 -6 -30q-7 -33 -37 -33h-69q-240 0 -295 -248 l-19 -80h588q27 0 27 -24q0 -9 -4 -29l-222 -1034q-7 -33 -38 -33h-31q-27 0 -27 20q0 11 4 27l209 985h-524l-211 -999q-7 -33 -39 -33h-31q-26 0 -26 20q0 11 4 27l207 985h-523l-211 -999q-7 -33 -36 -33h-33q-27 0 -27 20zM1665 1397q0 6 4 26l17 80q7 33 38 33h31 q27 0 27 -20q0 -11 -4 -27l-17 -82q-7 -31 -37 -31h-32q-27 0 -27 21z" />
<glyph unicode="&#xfb04;" horiz-adv-x="1777" d="M135 20q0 11 4 27l207 985h-172q-27 0 -27 25q0 1 7 30q7 33 39 33h172l18 80q73 336 410 336h69q27 0 27 -25q0 -5 -6 -30q-7 -33 -39 -33h-70q-240 0 -295 -248l-18 -80h522l18 80q73 336 408 336h344q27 0 27 -25q0 -6 -4 -22l-310 -1456q-7 -33 -39 -33h-30 q-27 0 -27 20q0 11 4 27l297 1401h-278q-240 0 -295 -248l-19 -80h267q26 0 26 -24q0 -6 -6 -31q-7 -33 -39 -33h-266l-211 -999q-7 -33 -39 -33h-31q-26 0 -26 20q0 11 4 27l207 985h-523l-211 -999q-7 -33 -36 -33h-33q-27 0 -27 20z" />
</font>
</defs>
</svg>
